<?xml version="1.0" encoding="UTF-8"?>
<svg width="150px" height="150px" viewBox="0 0 150 150" version="1.1" xmlns="http://www.w3.org/2000/svg" xmlns:xlink="http://www.w3.org/1999/xlink">
    <title>Approved Vendor</title>
    <g id="Approved-Vendor" stroke="none" stroke-width="1" fill="none" fill-rule="evenodd">
        <g id="noun_network-protection_1857814" transform="translate(2.000000, 1.000000)" fill="#0F0423" fill-rule="nonzero">
            <path d="M143.711642,73.7340469 C139.159397,73.922625 134.394019,73.3242969 129.707408,71.8110156 C130.013208,69.3734687 130.212441,66.919625 130.233291,64.4820781 C130.233291,64.4774219 130.230974,64.4727656 130.230974,64.4657812 C130.230974,64.461125 130.233291,64.4564687 130.233291,64.4494844 C130.117458,52.70875 126.841695,41.2241094 120.758135,31.2387812 C108.848165,11.677875 88.1487725,0 65.3875487,0 C29.1688236,0 0.933322759,29.3041094 0.520956566,64.4471562 C0.520956566,64.4541406 0.525589894,64.461125 0.525589894,64.4681094 C0.525589894,64.4750937 0.520956566,64.4820781 0.520956566,64.4890625 C0.935639423,99.7857656 29.3240401,128.908281 65.364382,128.908281 C70.1343932,128.908281 74.8511211,128.3635 79.4172659,127.336797 C85.8830751,136.833219 95.6200139,144.504391 107.506817,148.892906 C107.6991,148.96275 107.90065,149 108.106833,149 L108.13,149 C108.174016,149 108.215716,148.979047 108.259733,148.976719 C108.394099,148.965078 108.528466,148.948781 108.655882,148.904547 C108.681366,148.895234 108.706849,148.899891 108.732332,148.890578 C130.003941,140.988922 144.425174,122.624672 145.47694,101.943937 C145.500107,101.191953 145.520957,100.439969 145.520957,99.6903125 L145.520957,75.4778125 C145.520957,74.4906875 144.710124,73.699125 143.711642,73.7340469 Z M142.045961,99.6903125 C142.045961,99.8835469 142.041327,100.079109 142.039011,100.272344 L109.844331,100.272344 L109.844331,62.5776719 C109.916147,62.6684687 110.004181,62.7452969 110.078314,62.8360937 C110.106114,62.8710156 110.136231,62.9059375 110.164031,62.9408594 C110.224264,63.0130312 110.28218,63.0852031 110.342414,63.157375 C118.036055,72.395375 130.154524,77.2541719 142.045961,77.2611562 L142.045961,99.6903125 Z M74.5059382,103.764531 L106.369335,103.764531 L106.369335,144.660375 C88.897055,137.333766 76.3662194,122.536203 74.5059382,103.764531 Z M75.1847207,119.938016 C72.0502743,123.574547 68.7513448,125.416094 65.364382,125.416094 C57.5410077,125.416094 50.0048997,115.165359 45.4387549,98.52625 L70.6811259,98.52625 C70.9405923,106.358063 71.4780583,111.594016 75.0017043,119.516625 C75.0665709,119.658641 75.1198542,119.796 75.1847207,119.938016 Z M31.1426214,62.9362031 C31.1426214,58.3847187 34.8284338,54.6806719 39.3575119,54.6806719 C43.8865901,54.6806719 47.5724025,58.3847187 47.5724025,62.9362031 C47.5724025,67.4876875 43.8865901,71.1917344 39.3575119,71.1917344 C34.8284338,71.1917344 31.1426214,67.4876875 31.1426214,62.9362031 Z M65.3875487,3.4921875 C71.6077915,3.4921875 77.7307345,9.99696875 82.3177292,21.3791719 C79.2365661,23.2905625 77.1353518,26.5848594 76.8272355,30.4053125 L45.4387549,30.4053125 C50.0072164,13.7522344 57.552591,3.4921875 65.3875487,3.4921875 Z M88.4198222,39.6083906 C83.8884274,39.6083906 80.2049316,35.9043437 80.2049316,31.3528594 C80.2049316,26.801375 83.8907441,23.0973281 88.4198222,23.0973281 C92.9489003,23.0973281 96.6347128,26.801375 96.6347128,31.3528594 C96.6347128,35.9043437 92.9489003,39.6083906 88.4198222,39.6083906 Z M74.2395218,100.272344 C74.1422219,99.9138125 74.1769719,86.9182187 74.1700219,77.2495156 C87.180407,77.778 99.1089099,72.0740937 106.369335,62.6545 L106.369335,100.272344 L74.2395218,100.272344 Z M93.0323002,69.4433125 C93.0740002,68.3258125 93.0994835,67.2502187 93.1133835,66.2142031 L97.9644779,66.2142031 C96.3103798,67.5016562 94.5914151,68.5912187 93.0323002,69.4433125 Z M77.024152,33.8975 C78.1570007,39.019375 82.6212122,42.8631094 88.007456,43.0586719 C88.9920382,49.3609062 89.5549876,55.9518281 89.6522874,62.7220156 L51.0265485,62.7220156 C50.9246153,57.160125 46.9747032,52.5271563 41.7344092,51.4352656 C42.3043085,45.2284844 43.2495075,39.3476406 44.556106,33.8975 L77.024152,33.8975 Z M50.5261491,66.211875 L89.6522874,66.211875 C89.6291208,67.7484375 89.5758375,69.3688125 89.4924376,71.1079219 C84.0853438,73.2567812 77.5361347,74.0995625 72.5877404,73.6455781 C71.5382916,73.5594375 70.6927092,74.3812656 70.6927092,75.3846875 C70.6996592,82.1385781 70.5490761,89.7864687 70.6069927,95.0340625 L44.5584226,95.0340625 C43.031741,88.6573281 42.0054589,81.7544375 41.4934761,74.4650781 C45.8372211,73.6548906 49.3006338,70.4164687 50.5261491,66.211875 Z M118.698621,66.211875 L126.714278,66.211875 C126.658678,67.6599687 126.549795,69.1103906 126.387629,70.5561563 C123.466315,69.3199219 120.813735,67.7717187 118.698621,66.211875 Z M114.679209,62.7196875 C112.723944,60.736125 110.958646,58.4289531 109.638148,55.9564844 C108.739282,54.27325 106.742318,55.46525 107.071284,55.3977344 C106.274352,55.9983906 105.609469,58.5663125 101.736007,62.7196875 L93.1041168,62.7196875 C93.0068169,55.8167969 92.4554509,49.0838594 91.4569687,42.6465937 C95.6223306,41.5127969 98.8749268,38.1556406 99.8178091,33.8975 L118.265405,33.8975 C123.408399,42.6442656 126.325079,52.5481094 126.714278,62.7196875 L114.679209,62.7196875 L114.679209,62.7196875 Z M116.055307,30.4053125 L100.014726,30.4053125 C99.5259094,24.3754687 94.5427652,19.6051406 88.4198222,19.6051406 C87.4120734,19.6051406 86.4483411,19.7750937 85.5147255,20.0172187 C82.6953454,13.0328437 79.326916,7.74101562 75.5855036,4.36290625 C91.9828514,7.09845312 106.515285,16.3597344 116.055307,30.4053125 Z M55.2660436,4.3489375 C49.74775,9.28921875 45.0449221,18.2804375 41.8409757,30.4053125 L14.6966236,30.4053125 C24.2528626,16.334125 38.8246792,7.06585938 55.2660436,4.3489375 Z M12.4888428,33.8975 L40.9884434,33.8975 C39.7304948,39.3336719 38.8107792,45.1632969 38.2547799,51.3002344 C32.4028866,51.8613125 27.7996752,56.7224375 27.690792,62.7196875 L4.03996919,62.7196875 C4.45001872,52.5504375 7.3666987,42.6465937 12.4888428,33.8975 Z M28.1888748,66.211875 C29.4885233,70.6655781 33.3133355,73.997125 38.0161635,74.5465625 C38.5165629,81.782375 39.5196784,88.6503437 40.99771,95.0340625 L12.4842095,95.0340625 C7.36206537,86.2826406 4.45001872,76.3787969 4.03996919,66.211875 L28.1888748,66.211875 L28.1888748,66.211875 Z M14.7197902,98.52625 L41.8409757,98.52625 C45.0426054,110.637156 49.7408,119.621391 55.249827,124.557016 C38.8269959,121.84475 24.2690793,112.583469 14.7197902,98.52625 Z M75.5322203,124.552359 C75.9839698,124.147266 76.4264527,123.704922 76.8666188,123.246281 C77.0473186,123.572219 77.2233851,123.898156 77.4110349,124.221766 C76.7901689,124.345156 76.1600363,124.445266 75.5322203,124.552359 Z M109.844331,144.665031 L109.844331,103.764531 L141.832827,103.764531 C140.183363,121.388437 127.898093,137.077672 109.844331,144.665031 Z" id="Shape"></path>
        </g>
    </g>
</svg>