<svg height="71" viewBox="0 0 1608 71" width="1608" xmlns="http://www.w3.org/2000/svg" xmlns:xlink="http://www.w3.org/1999/xlink"><mask id="a" fill="#fff"><path d="m.6969697.52312663h1606.0000003v68.99999997h-1606.0000003z" fill="#fff" fill-rule="evenodd"/></mask><path d="m.6969697.52312663c1.16377002.99036623 1.78706656 65.93915487 1.15952269 68.29933397 56.26552011-2.3548944 77.92799481-2.7237714 98.30140361-3.0958194 39.149818 1.8021072 69.364303 4.6928774 107.698633 2.1139088 14.126639-.950202 33.063386.6764508 47.417258 0 14.354933-.6753939 25.54454 1.619254 39.487481 0 5.368633-.6214892 10.474993.5506732 15.903088 0 4.32485-.4365222 9.879303-.5485594 14.210524-.926949 30.136971-2.6371012 45.761858 2.5546587 75.961478.602464 4.469259-.2885486 32.110921-1.320136 36.576995-1.6266528 3.781191-.2578969 10.203162 2.617019 13.985415 2.3432678 38.412906-2.800929 63.514661.8920695 99.190158-1.9152013 7.946766 1.6625892 16.306584-.7303554 23.962407-.1183789 5.075567.4058705 9.516156.5665276 14.487663.626774 17.521322.2177326 71.688658.7483237 88.426347-.6616535 6.591865.765235 12.771739 1.8940623 18.98453 2.1339909 16.594341.6426283 36.746888-2.2428572 53.349724-1.8084489 2.242593.0591894 5.939899-1.2704592 8.180369-1.2112697 1.744593.0422782 2.034473 1.4723374 3.779067 1.5167295 4.776129.1204928 13.987539-.9184933 18.763668-.8254814 14.275296.2811499 22.051106-1.3750976 36.316845-.9142655 4.940713.1596001 12.727142 2.3580652 17.978973 2.826296 7.553887.6732799 12.626267-.3192002 19.724628 0 3.60174.1638279 5.235903-2.6423859 8.454322-2.8040999 3.50299-.1775684 8.582804 2.2745657 12.496724 2.2544836 22.281523-.1173219 44.576851 5.3915242 66.961373-1.1552511 7.256573-2.1213074 15.704525-.4798573 23.588642-.1543153 16.33313.6753938 32.648209 2.7681634 48.978152 3.4784368 7.65264.3297697 15.33395-3.1465532 22.97915-2.7174297 3.17913.1796822 6.52603 2.7216575 9.39511 2.1561869 23.2669-4.5597011 37.91384-2.5620574 61.25295-1.5611216 10.88486.4682308 21.78353-1.6361653 32.68431-1.4089202 30.43004.6310018 32.69812.7314125 63.11966.1490306 11.8214-.2283021 23.63961 1.5431534 35.4557 1.1224855 7.30966-.2578968 18.01826 1.2207823 25.32368.9121517 23.81162-1.0125623 44.21795.2113908 68.0179-.9332908 28.96152-1.3941228 59.96813.1226068 88.89674.3265989 15.18528.1099233 25.295-1.8391005 42.55724.117322 4.66357 2.9541874 14.64163 1.7344621 20.03468-1.3285917 33.14409-.1426888 41.34676 4.7288139 61.55346 0 4.71985-1.2926551 42.07304.6394574 46.92562 0 24.41051-3.2141982 2.78095 2.9013398 13.37699 0 .28457-.6109196-.13379-65.13058471-.00425-65.81232027z" fill="#071a39" fill-rule="evenodd" mask="url(#a)" transform="translate(.30303 .476873)"/></svg>