<?xml version="1.0" encoding="UTF-8"?>
<svg width="56px" height="50px" viewBox="0 0 56 50" version="1.1" xmlns="http://www.w3.org/2000/svg" xmlns:xlink="http://www.w3.org/1999/xlink">
    <title>noun_Sending email_1259815</title>
    <g id="-Vertical-Page" stroke="none" stroke-width="1" fill="none" fill-rule="evenodd">
        <g id="Auto" transform="translate(-762.000000, -4854.000000)" fill="#202A30" fill-rule="nonzero">
            <g id="noun_Sending-email_1259815" transform="translate(762.000000, 4854.000000)">
                <path d="M15.4765799,32.0365493 L47.7830255,7.78719011 L23.2322595,36.7193902 C23.2275423,36.7249124 23.2239221,36.7308678 23.2193147,36.73639 C23.2061505,36.7526318 23.1938639,36.7693068 23.181687,36.7860899 C23.1703878,36.8017904 23.1591982,36.8172743 23.1487766,36.8334078 C23.1378064,36.8502993 23.1278236,36.8677322 23.1178408,36.8852733 C23.1080773,36.9024897 23.0984236,36.9195977 23.0896474,36.9372472 C23.0808714,36.9547883 23.0731922,36.9726543 23.0652937,36.9907369 C23.0572855,37.0093608 23.049387,37.0279848 23.0423661,37.0469336 C23.0399527,37.0537551 23.0366616,37.0601436 23.0343579,37.0668569 L20.120685,45.5466018 L15.4765799,32.0365493 Z M55.9628112,1.36084412 C55.9670895,1.34492713 55.9710388,1.32890187 55.9747686,1.31287661 C55.97795,1.29825898 55.9808022,1.28364134 55.9834351,1.26913198 C55.9865067,1.2516991 55.9891395,1.23437449 55.9914433,1.21704989 C55.9930888,1.20308192 55.9946246,1.18911396 55.9959411,1.17514599 C55.9974769,1.15738828 55.9984642,1.13963055 55.9991224,1.12187283 C56,1.10768831 56,1.09361207 56,1.07942755 C56,1.06221122 56,1.04510317 55.9984642,1.02799513 C55.997806,1.01294437 55.9969283,0.998110177 55.9955022,0.983059427 C55.9939664,0.967142444 55.9919918,0.951225466 55.989688,0.935308483 C55.9876037,0.919391499 55.9851903,0.903582799 55.982338,0.887665816 C55.9794858,0.872615066 55.9760851,0.857889149 55.9726843,0.842946677 C55.9689544,0.826813138 55.9653343,0.810571321 55.9608366,0.79454606 C55.9565582,0.779711866 55.951841,0.765094233 55.9470141,0.750476594 C55.9419679,0.734992727 55.9370313,0.71950886 55.9312172,0.704241549 C55.9249641,0.687674899 55.9178336,0.67154136 55.910703,0.655407821 C55.9051082,0.642522644 55.8999522,0.62942091 55.8938089,0.616644016 C55.8827291,0.593580633 55.8703328,0.571166921 55.8576074,0.548861494 C55.8545357,0.543555833 55.8521223,0.538250171 55.8490507,0.53294451 C55.8487216,0.532511394 55.8483925,0.532078283 55.8481731,0.531536888 C55.8312791,0.503276121 55.8131783,0.47577331 55.7936514,0.449136733 C55.7891536,0.443073116 55.784217,0.437550899 55.7796096,0.431487288 C55.7646902,0.411997105 55.7494417,0.392398644 55.7329865,0.373666416 C55.7242103,0.36348821 55.7146663,0.354176233 55.7054514,0.344539421 C55.692726,0.331004571 55.6800006,0.317253166 55.6665073,0.304259716 C55.6549886,0.293323555 55.6429215,0.283253627 55.6310737,0.272750588 C55.6187872,0.262139266 55.60672,0.25120311 55.5938849,0.240916621 C55.5805013,0.230305299 55.5665692,0.220451933 55.5528565,0.210382005 C55.5404602,0.201503144 55.5282834,0.192407727 55.515558,0.183961983 C55.5007483,0.17410861 55.4856095,0.165121471 55.470361,0.156134333 C55.4604878,0.150395555 55.4512729,0.143898833 55.4411804,0.138268333 C55.437999,0.136535871 55.4345982,0.135128249 55.4311975,0.13328751 C55.417046,0.125599716 55.4022363,0.118669871 55.387646,0.111523471 C55.3722878,0.104160516 55.357149,0.0965809992 55.3415714,0.0898677159 C55.3293945,0.0845620548 55.3168885,0.080122627 55.3046019,0.075250077 C55.2861721,0.068103677 55.2677422,0.060957277 55.249093,0.0548936659 C55.2386713,0.0514287437 55.2279206,0.0486134992 55.2172795,0.0454734103 C55.1967653,0.0393015215 55.1761414,0.0334544659 55.1554078,0.0286901992 C55.1450959,0.0261997881 55.1345645,0.0243590492 55.1242526,0.0223017548 C55.1031899,0.018078877 55.0822369,0.0139642881 55.0610645,0.010932477 C55.0496555,0.00930829924 55.0381369,0.00822551035 55.0266182,0.0069261659 C55.0065429,0.00476058812 54.9865772,0.00270329368 54.9665018,0.00162050479 C54.953557,0.000862554791 54.9405025,0.00064599368 54.927448,0 C54.9087988,0 54.8902592,0 54.87161,0 C54.8573487,0.000754271458 54.8430875,0.00172878257 54.8288264,0.00259501035 C54.8112741,0.00378607701 54.7937219,0.00530198257 54.7761696,0.00725099924 C54.7615793,0.00898346035 54.746989,0.010932477 54.7323987,0.0133146103 C54.7147367,0.0160215826 54.6971845,0.0192699437 54.6796323,0.0228431437 C54.6659196,0.0257666715 54.6520972,0.028798477 54.6383845,0.0321551215 C54.6195158,0.0368111103 54.6007568,0.0421167715 54.5821076,0.0477472659 C54.5700404,0.0514287437 54.5579732,0.0550019437 54.5460158,0.0591165381 C54.5250628,0.0661546603 54.5044389,0.0741672937 54.4839247,0.0827213159 C54.4767941,0.0855365659 54.4696635,0.0875938603 54.4626426,0.0907339437 L0.656011468,23.4060803 C0.275127717,23.5710972 0.0216074564,23.9345891 0.00131267131,24.3446408 C-0.0189821137,24.7546926 0.197349324,25.1408147 0.560132322,25.3417802 L13.2803551,32.3875891 L19.0754487,49.2457299 C19.1231688,49.394505 19.2041286,49.5347261 19.3181085,49.6551321 C19.3425719,49.681119 19.3683518,49.7059148 19.3952287,49.7291948 C19.6028937,49.9102369 19.8621184,50 20.120685,50 L20.1317648,50 C20.1320939,50 20.1325327,50 20.1328618,50 C20.1892484,49.9994586 20.2448671,49.9945861 20.2992791,49.9857072 C20.5118806,49.9512746 20.7160352,49.8550147 20.8813554,49.6976856 C20.8968234,49.6831763 20.9117428,49.6680172 20.9262234,49.6525334 L28.8810112,41.3130095 L38.9524902,46.8797302 C39.1181396,46.9713341 39.302877,47.0176774 39.4883823,47.0176774 C39.6213405,47.0176774 39.7546279,46.9939643 39.8816623,46.945672 C40.1859744,46.8304633 40.4226006,46.5874858 40.5272559,46.2827892 L55.9425164,1.43003426 C55.9449298,1.42277958 55.946685,1.41520007 55.9489888,1.40794539 C55.9539253,1.39235324 55.9585328,1.3767611 55.9628112,1.36084412 L55.9628112,1.36084412 Z" id="Shape"></path>
            </g>
        </g>
    </g>
</svg>