<?xml version="1.0" encoding="UTF-8"?>
<svg width="74px" height="59px" viewBox="0 0 74 59" version="1.1" xmlns="http://www.w3.org/2000/svg" xmlns:xlink="http://www.w3.org/1999/xlink">
    <title>noun_Car_62802</title>
    <g id="Homepage" stroke="none" stroke-width="1" fill="none" fill-rule="evenodd">
        <g id="Homepage--w/artwork" transform="translate(-328.000000, -1294.000000)" fill="#0CA0CF" fill-rule="nonzero">
            <g id="noun_Car_62802" transform="translate(328.513158, 1294.000000)">
                <path d="M72.4868421,19.7866185 C72.4868421,17.6103858 70.705022,15.8289839 68.5265504,15.8289839 L63.7908443,15.8289839 L60.3570879,6.90720712 C59.5038985,4.69133591 56.9373309,2.3441135 54.6515302,1.69124369 C54.6515302,1.69202092 48.7258699,0 36.4856755,0 C24.245481,0 18.3198208,1.69202092 18.3198208,1.69202092 C16.0355756,2.34489073 13.4682302,4.69133591 12.6150409,6.90798435 L9.18128445,15.8289839 L4.44713376,15.8289839 C2.26944,15.8289839 0.486842105,17.6096086 0.486842105,19.7866185 C0.486842105,21.9628512 2.26866225,23.7442531 4.44713376,23.7442531 L6.13640192,23.7442531 L4.91844891,26.9098945 C4.0652596,29.1249885 3.36761985,32.8820988 3.36761985,35.2565241 L3.36761985,53.9635758 C3.36761985,56.7336091 5.63553236,59 8.40742542,59 C11.1793185,59 13.447231,56.7336091 13.447231,53.9635758 L13.447231,51.085508 L59.527231,51.085508 L59.527231,53.9635758 C59.527231,56.7336091 61.7951435,59 64.5670365,59 C67.3389296,59 69.6068421,56.7336091 69.6068421,53.9635758 L69.6068421,35.2565241 C69.6068421,32.8820988 68.9084246,29.1257657 68.056013,26.9098945 L66.8372823,23.7442531 L68.5273282,23.7442531 C70.705022,23.7442531 72.4868421,21.9636285 72.4868421,19.7866185 Z M13.0871338,38.8543031 C10.900107,38.8543031 9.12684211,37.0806734 9.12684211,34.8966685 C9.12684211,32.7126635 10.8993293,30.9390339 13.0871338,30.9390339 C15.2741605,30.9390339 17.0474254,32.7126635 17.0474254,34.8966685 C17.0474254,37.0806734 15.2741605,38.8543031 13.0871338,38.8543031 Z M59.8873282,38.8543031 C57.7003015,38.8543031 55.9270365,37.0830051 55.9270365,34.8966685 C55.9270365,32.7111091 57.6995237,30.9390339 59.8873282,30.9390339 C62.0743549,30.9390339 63.8476199,32.7103318 63.8476199,34.8966685 C63.8468421,37.0822279 62.0743549,38.8543031 59.8873282,38.8543031 Z" id="Shape"></path>
            </g>
        </g>
    </g>
</svg>