<?xml version="1.0" encoding="UTF-8"?>
<svg width="48px" height="51px" viewBox="0 0 48 51" version="1.1" xmlns="http://www.w3.org/2000/svg" xmlns:xlink="http://www.w3.org/1999/xlink">
    <title>noun_Statistics Bar_1012151</title>
    <g id="-Vertical-Page" stroke="none" stroke-width="1" fill="none" fill-rule="evenodd">
        <g id="Auto" transform="translate(-278.000000, -4854.000000)" fill="#202A30" fill-rule="nonzero">
            <g id="noun_Statistics-Bar_1012151" transform="translate(278.000000, 4854.000000)">
                <path d="M12.304285,50.7142857 L0.852458993,50.7142857 C0.381363234,50.7142857 0,50.3903606 0,49.9911171 L0,32.6356376 C0,32.2363942 0.381363234,31.912469 0.852458993,31.912469 L12.3048602,31.912469 C12.7759559,31.912469 13.1573192,32.2363942 13.1573192,32.6356376 L13.1573192,49.9911171 C13.156744,50.3909269 12.7753807,50.7142857 12.304285,50.7142857 Z M12.304285,50.7142857 L0.852458993,50.7142857 C0.381363234,50.7142857 0,50.3903606 0,49.9911171 L0,32.6356376 C0,32.2363942 0.381363234,31.912469 0.852458993,31.912469 L12.3048602,31.912469 C12.7759559,31.912469 13.1573192,32.2363942 13.1573192,32.6356376 L13.1573192,49.9911171 C13.156744,50.3909269 12.7753807,50.7142857 12.304285,50.7142857 Z M29.6042557,50.7142857 L18.1518546,50.7142857 C17.6807588,50.7142857 17.2993956,50.3903606 17.2993956,49.9911171 L17.2993956,19.6191695 C17.2993956,19.2199261 17.6807588,18.8960009 18.1518546,18.8960009 L29.6042557,18.8960009 C30.0753515,18.8960009 30.4567147,19.2199261 30.4567147,19.6191695 L30.4567147,49.9916834 C30.4567147,50.3909269 30.0753515,50.7142857 29.6042557,50.7142857 Z M12.304285,50.7142857 L0.852458993,50.7142857 C0.381363234,50.7142857 0,50.3903606 0,49.9911171 L0,32.6356376 C0,32.2363942 0.381363234,31.912469 0.852458993,31.912469 L12.3048602,31.912469 C12.7759559,31.912469 13.1573192,32.2363942 13.1573192,32.6356376 L13.1573192,49.9911171 C13.156744,50.3909269 12.7753807,50.7142857 12.304285,50.7142857 Z M29.6042557,50.7142857 L18.1518546,50.7142857 C17.6807588,50.7142857 17.2993956,50.3903606 17.2993956,49.9911171 L17.2993956,19.6191695 C17.2993956,19.2199261 17.6807588,18.8960009 18.1518546,18.8960009 L29.6042557,18.8960009 C30.0753515,18.8960009 30.4567147,19.2199261 30.4567147,19.6191695 L30.4567147,49.9916834 C30.4567147,50.3909269 30.0753515,50.7142857 29.6042557,50.7142857 Z M47.1475397,50.7142857 L35.2079369,50.7142857 C34.7368412,50.7142857 34.3554779,50.3903606 34.3554779,49.9911171 L34.3554779,1.43745429 C34.3554779,1.03821087 34.7368412,0.714285714 35.2079369,0.714285714 L47.1475397,0.714285714 C47.6186355,0.714285714 47.9999994,1.03821087 47.9999994,1.43745429 L47.9999994,49.9916834 C48.0005739,50.3909269 47.6192107,50.7142857 47.1475397,50.7142857 Z" id="Shape"></path>
            </g>
        </g>
    </g>
</svg>