<?xml version="1.0" encoding="UTF-8"?>
<svg width="452px" height="584px" viewBox="0 0 452 584" version="1.1" xmlns="http://www.w3.org/2000/svg" xmlns:xlink="http://www.w3.org/1999/xlink">
    <title>Group 36</title>
    <g id="Homepage" stroke="none" stroke-width="1" fill="none" fill-rule="evenodd">
        <g transform="translate(-937.000000, -193.000000)" fill-rule="nonzero" id="Group-36">
            <g transform="translate(937.642576, 193.000000)">
                <g id="arrows" transform="translate(0.357424, 0.000000)">
                    <path d="M449.663951,584 L449.663951,212.833525 C449.665065,211.173967 449.004669,209.582061 447.828277,208.408576 C446.651884,207.235091 445.056034,206.577438 443.392365,206.577438 L393.404518,206.577438 C391.74119,206.577438 390.145988,207.236561 388.969838,208.409804 C387.793688,209.583048 387.132933,211.174308 387.132933,212.833525 L387.132933,584 L449.663951,584 Z" id="Path" fill="#0F0423"></path>
                    <path d="M331.301668,583.995806 L331.301668,304.403219 C331.302782,302.742165 330.642386,301.148823 329.465994,299.97428 C328.289602,298.799737 326.693751,298.141491 325.030082,298.141491 L275.042236,298.141491 C273.378567,298.141491 271.782717,298.799737 270.606325,299.97428 C269.429933,301.148823 268.769537,302.742165 268.770651,304.403219 L268.770651,584 L331.301668,584 L331.301668,583.995806 Z" id="Path" fill="#0F0423"></path>
                    <path d="M97.9269781,584 L97.9269781,488.664554 C97.9246608,485.198095 95.1177564,482.388553 91.6545507,482.386233 L41.6599856,482.386233 C38.1991015,482.390874 35.3959607,485.200415 35.3959607,488.664554 L35.3959607,583.987384 L97.9269781,584 Z" id="Path" fill="#0F0423"></path>
                    <path d="M214.05601,584 L214.05601,397.074391 C214.058334,393.626968 211.258386,390.829111 207.799126,390.82218 L157.794484,390.82218 C156.130984,390.82218 154.535677,391.481026 153.359799,392.653664 C152.183921,393.826301 151.523879,395.416586 151.524993,397.074391 L151.524993,584 L214.05601,584 Z" id="Path" fill="#0F0423"></path>
                    <g id="Group" transform="translate(0.780576, 0.000000)" fill="#A1D5E5">
                        <path d="M412.503408,0.357323136 L321.645343,45.2539242 C320.276554,45.9216854 319.518304,47.4224939 319.790471,48.9252823 C320.062638,50.4280708 321.298623,51.5651063 322.814003,51.7067596 L362.414397,55.6162951 C329.972568,95.5271875 295.662558,132.390324 260.209022,165.373351 C217.592731,205.027811 172.869502,239.658729 127.295957,268.295026 C77.4373269,299.625959 34.6492978,318.379118 10.3210674,327.055764 C2.27281866,329.899841 -1.95425398,338.753268 0.879636428,346.830447 C3.71352684,354.907626 12.5352436,359.149893 20.5834924,356.305816 C43.08543,348.318593 86.9080791,330.275876 142.966052,295.132095 C190.277926,265.449052 236.664087,229.611643 280.800892,188.590947 C318.223138,153.808693 354.405517,114.860471 388.518655,72.6416916 L408.369117,106.734523 C409.140592,108.038617 410.677684,108.67447 412.140732,108.294735 C413.603779,107.915001 414.64098,106.61099 414.685745,105.09504 L417.388282,3.48915533 C417.413091,2.30125288 416.819851,1.18586214 415.822184,0.546124689 C414.824517,-0.0936127624 413.566721,-0.165167405 412.503408,0.357323136 Z" id="Path"></path>
                    </g>
                </g>
                <g id="Group-35" transform="translate(49.357424, 429.000000)" fill="#F98E01">
                    <path d="M27.1360829,21.5538681 C26.8555869,21.3685543 26.5283416,21.4148828 26.294595,21.6001965 C23.9571285,23.314349 21.1054194,24.2872464 17.9732143,24.2872464 C14.8410092,24.2872464 11.9893001,23.2680206 9.65183359,21.6001965 C9.41808694,21.4148828 9.0440923,21.4148828 8.81034565,21.5538681 C3.29392474,25.07483 0.535714286,31.9777684 0.535714286,39.8999326 C0.535714286,45.3666891 35.4107143,45.3666891 35.4107143,39.8999326 C35.4107143,31.9777684 32.6525038,25.07483 27.1360829,21.5538681 Z" id="Path"></path>
                    <ellipse id="Oval" cx="17.9732143" cy="10.7179487" rx="10.6875" ry="10.7179487"></ellipse>
                </g>
                <path d="M201.356362,360.5879 C201.391911,363.683933 200.534405,366.725089 198.885672,369.350236 C197.530178,371.516634 195.88062,373.486182 193.983778,375.203028 C191.609602,377.443031 189.006239,379.429146 186.216335,381.128839 C185.708658,381.437768 185.172778,381.690528 184.642539,381.960138 C184.508517,382.013287 184.359138,382.013287 184.225116,381.960138 C179.684236,379.556112 175.521293,376.646567 172.159349,372.720366 C170.333894,370.661842 168.946506,368.25617 168.081018,365.648711 C167.186787,363.113062 167.119665,360.360959 167.88923,357.785075 C168.672177,355.092044 170.593266,352.87157 173.152138,351.701991 C174.661876,351.041116 176.335751,350.845486 177.958138,351.140303 C180.57549,351.516634 182.470814,352.977024 183.965637,355.072121 C184.168708,355.358582 184.17999,355.358582 184.405623,355.072121 C185.680433,353.329915 187.490211,352.048341 189.561355,351.421147 C192.99663,350.46066 196.053968,351.106602 198.586707,353.735303 C200.395752,355.557032 201.393738,358.026218 201.356362,360.5879 Z" id="Path" fill="#3B2763"></path>
                <path d="M319.973114,246 L286.741744,246 C283.769444,246.003283 281.360747,248.38309 281.357424,251.31974 L281.357424,270.863803 C281.360747,273.800454 283.769444,276.180261 286.741744,276.183543 L296.207255,276.183543 L296.207255,284.163964 C296.207214,284.502103 296.413366,284.806962 296.729562,284.936354 C297.045757,285.065746 297.40971,284.994182 297.651671,284.75504 L306.327223,276.183543 L319.973114,276.183543 C322.945411,276.180255 325.354102,273.80045 325.357424,270.863803 L325.357424,251.31974 C325.354102,248.383094 322.945411,246.003288 319.973114,246 Z M308.371511,268.285714 L302.793321,265.430525 L297.215132,268.285714 L298.280496,262.238421 L293.76768,257.955637 L300.004227,257.073278 L302.793321,251.571429 L305.582416,257.073278 L311.818963,257.955637 L307.306147,262.238421 L308.371511,268.285714 Z" id="Shape" fill="#FFC02B"></path>
                <path d="M421.357424,149 C409.20716,149 399.357424,158.849736 399.357424,171 C399.357424,183.150264 409.20716,193 421.357424,193 C433.507689,193 443.357424,183.150264 443.357424,171 C443.357424,158.849736 433.507689,149 421.357424,149 Z M422.819851,179.632885 L422.819851,181.365385 C422.819851,182.183191 422.168236,182.846154 421.364428,182.846154 C420.56062,182.846154 419.909005,182.183191 419.909005,181.365385 L419.909005,179.6625 C418.449701,179.212601 417.26123,178.128145 416.663411,176.700962 C416.503028,176.249703 416.567513,175.74735 416.836427,175.353136 C417.105341,174.958921 417.545339,174.721724 418.016955,174.716731 C418.604551,174.70014 419.144272,175.0448 419.385053,175.590385 C419.716773,176.403068 420.499541,176.930098 421.364428,176.923077 C422.57014,176.923077 423.547563,175.928632 423.547563,174.701923 C423.547563,173.475214 422.57014,172.480769 421.364428,172.480769 C419.609164,172.457101 417.986524,171.525807 417.058802,170.00961 C416.131081,168.493414 416.025952,166.600973 416.779845,164.988077 C417.376573,163.666613 418.525471,162.687994 419.909005,162.322692 L419.909005,160.634615 C419.909005,159.816809 420.56062,159.153846 421.364428,159.153846 C422.168236,159.153846 422.819851,159.816809 422.819851,160.634615 L422.819851,162.381923 C423.615753,162.615172 424.341379,163.047947 424.930215,163.640577 C425.428419,164.135594 425.819974,164.730632 426.079999,165.387885 C426.205833,165.825486 426.126506,166.297668 425.864955,166.667902 C425.603404,167.038136 425.188796,167.265137 424.74101,167.283269 C424.15506,167.311112 423.609952,166.978352 423.358358,166.439231 C423.239393,166.176105 423.07694,165.935694 422.878068,165.728462 C422.476203,165.31897 421.93313,165.085207 421.364428,165.076923 L421.364428,165.076923 C420.183782,165.093022 419.232775,166.067173 419.224956,167.268462 C419.228962,168.447782 420.121532,169.426742 421.277103,169.519231 C423.801141,169.576813 425.936673,171.43384 426.385638,173.961538 C426.730002,176.487008 425.217783,178.892175 422.819851,179.632885 Z" id="Shape" fill="#36A992"></path>
            </g>
        </g>
    </g>
</svg>