<?xml version="1.0" encoding="UTF-8"?>
<svg width="53px" height="59px" viewBox="0 0 53 59" version="1.1" xmlns="http://www.w3.org/2000/svg" xmlns:xlink="http://www.w3.org/1999/xlink">
    <title>Path 2</title>
    <g id="Homepage" stroke="none" stroke-width="1" fill="none" fill-rule="evenodd">
        <g id="Homepage--w/artwork" transform="translate(-762.000000, -1291.000000)" fill="#40A48F" fill-rule="nonzero">
            <g id="Path-2" transform="translate(762.000000, 1291.000000)">
                <path d="M52.7110551,58.675118 C52.5785631,58.7252533 52.4410178,58.7604142 52.3009168,58.7799623 C51.3040419,58.7787206 50.3081279,58.8427243 49.319389,58.9715742 C48.8648435,59.0094753 48.4079953,59.0094753 47.9534498,58.9715742 C46.5625457,58.9715742 45.1716416,58.8920372 43.7807375,58.9281904 C42.589553,58.9571129 41.3983684,58.8848065 40.2143167,58.8703453 C38.2527853,58.845038 36.2912539,58.8305767 34.326156,58.8052695 C34.0158774,58.8052695 33.7020324,58.765501 33.3453903,58.7401938 C33.2802042,58.5550103 33.233605,58.3636354 33.2062999,58.1689733 C33.181335,57.3591418 33.1635029,56.5493103 33.1670693,55.7394788 C33.1670693,53.8920508 33.1314051,52.0410073 33.2134328,50.1971946 C33.3061597,48.1726158 33.1599364,46.1552677 33.1670693,44.1343043 C33.1580857,43.6142125 33.1007696,43.0961364 32.9958811,42.5869477 C32.8567907,41.8205 32.6998682,41.0576677 32.5001486,40.3056813 C32.3984576,39.9445896 32.2394555,39.602688 32.0293811,39.2933919 C31.3147466,38.2420983 30.3458578,37.3943671 29.2154751,36.8313596 C27.460796,35.9347604 25.7382148,36.1986787 24.0192,36.9000506 C23.6904942,37.008049 23.4051844,37.2211597 23.2060561,37.5074243 C23.1651879,37.5855803 23.0999909,37.6478583 23.0206022,37.6845749 C22.3465486,37.8581102 22.0505357,38.4474073 21.6689287,38.942706 C21.2746203,39.4371727 20.9987312,40.0175536 20.8629176,40.6382907 C20.8629176,40.7250583 20.8165541,40.8082107 20.8094213,40.891363 C20.7874017,41.5245365 20.7290515,42.1558744 20.6346667,42.7821749 C20.5182461,43.3772343 20.4656329,43.9833093 20.4777442,44.5898345 C20.4777442,45.9166567 20.4456464,47.2470941 20.44208,48.5666856 C20.44208,49.058369 20.5098419,49.5464371 20.5169748,50.0345052 C20.5383733,51.968701 20.5419397,53.8992814 20.5633383,55.8190159 C20.5633383,56.5095418 20.5633383,57.2036831 20.620401,57.8942091 C20.6547529,58.0670395 20.6188552,58.2466094 20.5208385,58.3922475 C20.4228218,58.5378856 20.2709798,58.6372688 20.0997036,58.6678874 C19.9114692,58.7259215 19.7149751,58.7515838 19.518377,58.7438091 C18.662436,58.7438091 17.806495,58.7438091 16.950554,58.7438091 C15.3028676,58.7257325 13.6551812,58.7004253 12.0074948,58.685964 L6.45814409,58.6425801 C5.52017543,58.6425801 4.57864034,58.5919657 3.6442381,58.6425801 C2.8945549,58.7255763 2.13910629,58.7413037 1.38669375,58.6895793 C1.16789927,58.3053451 1.0569047,57.8677814 1.06571588,57.4242176 C1.11207935,55.8117852 1.06571588,54.1957376 1.1049465,52.5833052 C1.06641769,51.9292393 1.07356837,51.2732301 1.12634503,50.6201869 C1.14351023,50.3044363 1.13754985,49.98783 1.10851292,49.6729733 C1.10851292,48.288306 1.16200924,46.9036388 1.10851292,45.5189716 C1.05858303,44.1957647 1.15487639,42.8761732 1.10851292,41.5421205 C1.06214945,40.2080677 1.16914208,38.9101681 1.07641514,37.6050379 C1.05858303,37.3194277 1.09781366,37.0302021 1.09781366,36.7409766 C1.09781366,35.2948489 1.09186963,33.857157 1.07998156,32.4279008 C1.07998156,31.3433051 1.04788377,30.2587093 1.05145019,29.1524217 C1.05145019,28.5161255 1.07998156,27.8834446 1.10851292,27.2471485 C1.16072198,26.8675974 1.05332193,26.4832641 0.8125,26.1878599 C0.944340922,25.8886089 1.14052565,25.6230311 1.38669375,25.4105663 C1.74333582,25.0743416 2.0999779,24.7489629 2.45661998,24.4127382 C3.40172148,23.4944472 4.35038941,22.5833867 5.28479165,21.657865 C7.01093931,19.9405884 8.72282128,18.2124659 10.4454025,16.4951892 C11.2371479,15.7034343 12.0467254,14.9369867 12.8384709,14.1488471 C13.508958,13.4800131 14.1651794,12.8003331 14.8285337,12.1278837 C15.1530779,11.802505 15.4918879,11.4915875 15.8128658,11.1625935 C17.0504138,9.89361644 18.2772625,8.61017813 19.518377,7.3412011 C20.2316611,6.61813727 20.9449453,5.93845727 21.6582294,5.22985471 C23.2155665,3.67526746 24.745561,2.08693724 26.248213,0.464864041 C26.3231078,0.3817117 26.3980027,0.29494404 26.4800303,0.215407018 C26.5703174,0.0806674305 26.7205706,0 26.8812527,0 C27.0419348,0 27.1921879,0.0806674305 27.282475,0.215407018 C28.5770857,1.56392107 29.8716965,2.89797384 31.1734401,4.24287257 C31.8403608,4.94062917 32.5536449,5.62030918 33.2312649,6.31806578 C33.9088848,7.01582238 34.486645,7.65934919 35.1250343,8.31733728 C35.7634236,8.97532537 36.0273387,9.20309048 37.1222299,10.3310701 C38.2171211,11.4590496 39.2941802,12.6051058 40.3962042,13.7294701 C41.055992,14.4055348 41.7514441,15.0454463 42.4183648,15.7142803 C43.2885715,16.5855722 44.1480789,17.4677101 45.0147191,18.3462327 C46.3842247,19.7345152 47.7572967,21.1191825 49.1232358,22.5146957 C50.0255403,23.4366021 50.9064462,24.3657391 51.8158835,25.2948761 C51.901332,25.4088736 52.0035772,25.5088625 52.1190293,25.5913323 C52.6682581,25.8588659 52.7716843,26.3722412 52.7966492,26.8892319 C52.8323134,27.6701408 52.7966492,28.4474344 52.7966492,29.2283434 C52.7966492,30.0092523 52.7966492,30.844391 52.7716843,31.6542225 C52.7716843,32.633974 52.7253208,33.6137255 52.7217544,34.5970923 C52.7217544,37.0772013 52.7217544,39.5609256 52.6967895,42.0446498 C52.6967895,43.8354379 52.6777685,45.626226 52.6397267,47.4170141 C52.6397267,48.5703009 52.5291677,49.7272031 52.582664,50.8804899 C52.650426,52.3519248 52.582664,53.8233597 52.6361603,55.2947946 C52.6682581,56.4046976 52.6896566,57.5254465 52.7110551,58.675118 Z" id="Path"></path>
            </g>
        </g>
    </g>
</svg>