<?xml version="1.0" encoding="UTF-8"?>
<svg width="56px" height="41px" viewBox="0 0 56 41" version="1.1" xmlns="http://www.w3.org/2000/svg" xmlns:xlink="http://www.w3.org/1999/xlink">
    <title>CC</title>
    <g id="-Vertical-Page" stroke="none" stroke-width="1" fill="none" fill-rule="evenodd">
        <g id="Auto" transform="translate(-1210.000000, -4859.000000)" fill="#202A30" fill-rule="nonzero">
            <g id="CC" transform="translate(1210.000000, 4859.000000)">
                <path d="M55.9708954,14.999681 C55.9492765,15.4931902 55.9060387,15.9866994 55.9096419,16.4802086 C55.9096419,18.0484712 55.9564828,19.6167338 55.9636891,21.1813408 C55.9636891,21.8503199 55.9096419,22.5156434 55.9024356,23.180967 C55.9024356,23.4368606 55.9672922,23.6964099 55.9708954,23.9523036 C55.9708954,25.0489907 56.0033237,26.1712672 56,27.2789212 C56,28.6790251 55.9744985,30.079129 55.9672922,31.4828885 C55.9672922,33.9577458 55.1818063,36.1401532 53.4450899,37.8875413 C52.3859107,39.0176878 51.0268458,39.8124997 49.5320731,40.1759618 C49.1249176,40.2636968 48.69254,40.4391667 48.2925908,40.0991937 C48.224131,40.0407037 48.0691957,40.0699487 47.9611013,40.0991937 C47.5643881,40.1641529 47.1581498,40.1328342 46.7756662,40.0078031 C46.6186381,39.9502294 46.448775,39.9388247 46.2856384,39.9749025 C45.7339261,40.1375057 45.1574367,40.1957464 44.5849533,40.1467168 C42.4230656,40.1467168 40.2611779,40.1576837 38.0992902,40.1796174 C34.9597488,40.1796174 31.8214084,40.1881472 28.6842691,40.2052068 C25.3717767,40.2052068 22.0604854,40.2052068 18.750395,40.2052068 C16.6245388,40.2052068 14.4986825,40.2052068 12.3728263,40.1759618 C10.8775206,40.1759618 9.38221491,40.1759618 7.88690923,40.1320943 C6.87763387,40.0937387 5.88111276,39.8900503 4.93593249,39.5289164 C3.40515577,38.9696503 2.11949195,37.8776943 1.30756426,36.4472256 C0.783741371,35.567257 0.412066763,34.6029013 0.208604662,33.595839 C0.108699029,32.9614366 0.0700822841,32.3186533 0.0933039838,31.6766366 C0.0933039838,30.1595527 0.122129153,28.6424689 0.147351177,27.125385 C0.147351177,26.7598226 0.205001516,26.3686709 0.23022354,25.988486 C0.266107476,25.6718227 0.280553923,25.3530362 0.273461294,25.0343682 C0.194192078,23.7804893 0.273461294,22.5266103 0.273461294,21.276387 C0.273461294,19.4485751 0.359936803,17.6207632 0.363539949,15.7710176 C0.349127364,14.7986217 0.323905341,13.8445039 0.298683318,12.8830748 C0.315663741,12.5030931 0.23495427,12.1251625 0.0644788141,11.7863877 C-0.101265911,11.4975934 0.0644788141,11.2928785 0.424793435,11.3 C1.05534402,11.3 1.68949775,11.3440572 2.32365149,11.365991 C4.07478054,11.4281366 5.8259096,11.4975934 7.57703866,11.5414609 C8.4381906,11.5633947 9.29934254,11.5414609 10.1604945,11.5414609 C11.281073,11.5414609 12.4052546,11.5414609 13.5294362,11.5414609 C15.3958659,11.5414609 17.2658988,11.559739 19.1359317,11.5049047 C20.8870607,11.4537259 22.6417929,11.4829709 24.392922,11.4391034 C26.4323028,11.3915803 28.4680804,11.4391034 30.5182706,11.4573816 L39.5837864,11.4573816 C41.6844207,11.4573816 43.788658,11.4573816 45.8892923,11.4902822 C47.2116469,11.5085603 48.5303984,11.5816728 49.8527531,11.5816728 C51.1751078,11.5816728 52.5551128,11.5195272 53.9062926,11.4939378 C54.3656047,11.4842068 54.825097,11.5000717 55.2826944,11.5414609 C55.4718427,11.5438545 55.650868,11.6285513 55.7742572,11.7740192 C55.8976464,11.9194871 55.9535143,12.111714 55.9276576,12.3018307 C55.9276576,13.2011141 55.9276576,14.1003975 55.9276576,15.0033366 L55.9708954,14.999681 Z" id="Path"></path>
                <path d="M0,7.88122494 C0,7.59078519 0,7.35438073 0,7.11459907 C0.0357390409,6.34797321 0.39312945,5.65902309 0.636154929,4.94980973 C0.858581149,4.48083354 1.16440593,4.0513419 1.54035266,3.6799801 C1.82487378,3.34446959 2.13165561,3.02637203 2.45884602,2.72760787 C3.41187443,1.86865436 4.57246471,1.24262273 5.83975929,0.903916381 C6.91711458,0.628236272 8.02952811,0.494138595 9.14562058,0.505406018 C9.3419493,0.51176577 9.53762697,0.480756334 9.72101914,0.414221444 C10.0374829,0.286697674 10.390574,0.265248231 10.7217123,0.353431727 C11.4397798,0.499883408 12.175775,0.552158651 12.9089416,0.508783225 C13.6701832,0.451370715 14.4421464,0.529046463 15.2105358,0.539178083 C17.4656693,0.569572941 19.7172289,0.593213386 21.9723624,0.640494277 C23.62708,0.664134722 25.2817976,0.708038406 26.9365152,0.728301645 C27.5619484,0.728301645 28.1909555,0.69452958 28.8163887,0.69452958 C29.4418219,0.69452958 30.1280115,0.731678851 30.7856099,0.738433264 C32.3819537,0.75194209 33.9806801,0.76207371 35.5817892,0.768828123 L44.8346269,0.799222981 L46.7180743,0.799222981 C47.4610123,0.806809346 48.1984502,0.920673955 48.9053036,1.13694363 C49.4235197,1.28891792 49.9274402,1.47466427 50.4349346,1.63339298 C51.3026112,1.98763797 52.0827757,2.508642 52.7258071,3.16326751 C54.0838907,4.37906184 54.7236195,5.94608564 54.9880884,7.66508373 C55.0167452,7.78560679 54.9932101,7.91195413 54.9227246,8.01598653 C54.8522392,8.12001892 54.7406569,8.1930971 54.6128285,8.21894559 C54.3922122,8.27287871 54.16524,8.3001143 53.9373606,8.3 C52.4255992,8.27973531 50.9138377,8.23920883 49.3985024,8.2257 C47.0575952,8.2257 44.716688,8.2257 42.3722069,8.20881397 L36.7254385,8.20881397 C34.098619,8.20881397 31.4717995,8.20881397 28.8449799,8.20881397 C26.7006375,8.20881397 24.556295,8.1716647 22.4119526,8.16828749 C20.8144174,8.16828749 19.2168823,8.19530514 17.6193472,8.19868235 C13.9096347,8.19868235 10.198731,8.20431103 6.48663593,8.21556838 C5.11783066,8.21556838 3.7490254,8.21556838 2.38022013,8.14464705 C1.7476391,8.1210066 1.07217123,8.26622648 0.489624861,7.8609617 C0.407425067,7.77990875 0.192990821,7.86433891 0,7.88122494 Z M34.3094793,7.59416239 L34.3988269,7.7562683 C34.4580728,7.71632214 34.512063,7.6698384 34.5596526,7.61780284 C34.5596526,7.5975396 34.5167657,7.53337268 34.4917484,7.4928462 L34.3094793,7.59416239 Z M32.5618402,7.50635502 L32.493936,7.50635502 L32.5225273,7.60429401 C32.5225273,7.60429401 32.568988,7.57727636 32.5761358,7.56039033 C32.5832836,7.5435043 32.5725619,7.52661826 32.568988,7.50635502 L32.5618402,7.50635502 Z" id="Shape"></path>
            </g>
        </g>
    </g>
</svg>