<?xml version="1.0" encoding="UTF-8"?>
<svg width="62px" height="59px" viewBox="0 0 62 59" version="1.1" xmlns="http://www.w3.org/2000/svg" xmlns:xlink="http://www.w3.org/1999/xlink">
    <title>Group 4</title>
    <g id="Homepage" stroke="none" stroke-width="1" fill="none" fill-rule="evenodd">
        <g id="Homepage--w/artwork" transform="translate(-1181.000000, -1294.000000)" fill="#DE8918" fill-rule="nonzero">
            <g id="Group-4" transform="translate(1181.000000, 1294.000000)">
                <path d="M30.9751032,49.7778278 C30.6797183,50.2590738 30.5006288,50.8011347 30.4517532,51.3618827 C30.347914,51.9405141 30.2233068,52.5191456 30.0696247,53.0895695 C29.6234334,54.6149423 28.6839231,55.9539795 27.3947247,56.9019711 C26.5105078,57.5481071 25.465483,57.9452205 24.3709248,58.0510264 C22.6283216,58.2881434 20.8746286,58.4374403 19.116657,58.4983373 C16.862319,58.636306 14.6000462,58.4230391 12.4127928,57.8663568 C10.2404749,57.258999 8.71196068,55.9745192 8.10138569,53.6969273 C7.64864641,52.0225895 7.90616784,50.4508459 8.42536426,48.8791023 C8.7343519,47.9436796 9.1792792,47.0575827 9.74619996,46.2485863 C10.7056749,44.8738236 11.5945392,43.4498157 12.5789356,42.0955719 C13.7419356,40.5033094 14.988007,38.9726035 16.1842356,37.4049637 C17.3804641,35.8373239 18.4811606,34.3558632 19.6358534,32.8333648 C20.5288712,31.6514793 21.4218891,30.4695938 22.3356748,29.3041233 C23.4737533,27.8595966 24.6229081,26.4232774 25.783139,24.9951657 C26.5598569,24.0430912 27.6480926,23.5465352 28.7737104,23.1279507 C30.8504961,22.8324793 32.8068282,22.9843188 34.5554818,24.2729023 C35.2982903,24.8250788 35.9730064,25.4614037 36.5658103,26.1688437 C37.1223889,26.7967203 37.6789674,27.461531 38.2023174,28.1345491 C38.7256674,28.8075672 39.1825603,29.451859 39.6436067,30.1289809 C41.1181245,32.3039786 42.5926424,34.48308 44.0463924,36.670389 C44.8272638,37.844067 45.5582923,39.0546789 46.3308566,40.2324607 C46.966353,41.1927426 47.6475387,42.1201945 48.274728,43.1050991 C49.2965066,44.6727389 50.3182851,46.2444825 51.2943744,47.8408487 C51.9228777,48.8821595 52.4010088,50.0051413 52.7148958,51.1772131 C53.237959,53.3709635 52.3926166,55.6621381 50.5633458,57.0086691 C49.1223725,58.0193396 47.4466185,58.6545038 45.6912066,58.8553652 C45.0657519,58.9347759 44.43606,58.9772569 43.8054852,58.982582 C42.2814538,59.0267083 40.7561178,58.9869771 39.2365567,58.8635727 C38.0826472,58.740947 36.9442891,58.5030806 35.8389353,58.1536207 C35.1447388,57.9143903 34.5192271,57.5131754 34.0155175,56.9840465 C32.7867315,55.8613638 31.9492324,54.3831458 31.6230604,52.761268 C31.4319961,51.7435332 31.191089,50.7586286 30.9751032,49.7778278 Z" id="Path"></path>
                <path d="M31.8676471,12.9801182 C31.8784697,11.2706849 32.0970458,9.56916866 32.5184023,7.91428212 C32.9917671,6.11288933 33.8108957,4.42454404 34.9286067,2.94649445 C35.40783,2.29989431 35.9713673,1.72264596 36.6036988,1.23064674 C37.4071003,0.617843988 38.2707569,0.00504123418 39.3673999,0.00504123418 C40.4938445,-0.0469369117 41.6025608,0.304347558 42.5006657,0.997781696 C44.5091694,2.54204464 45.392911,4.67459822 45.7142716,7.12580924 C45.9602479,9.06799118 45.9101151,11.037143 45.5656424,12.9637768 C45.2979497,14.6726162 44.7650838,16.3273703 43.9869584,17.8661988 C43.3508652,19.227583 42.4081496,20.4172787 41.2353084,21.3387478 C40.6151915,21.850718 39.9416506,22.2918583 39.2268047,22.654231 C37.9620253,23.2130356 36.5058794,23.0887304 35.3503925,22.3233175 C34.5429729,21.7851248 33.8945509,21.0338838 33.47445,20.1499104 C32.6065147,18.5310602 32.1016863,16.7368894 31.9961913,14.8961482 C31.9439702,14.1485288 31.8957661,13.4009094 31.8676471,12.9801182 Z" id="Path"></path>
                <path d="M42.8799812,29.9081056 C42.8283918,28.8951828 42.9388577,27.8805287 43.2072301,26.9022493 C43.4106158,26.0715551 43.656372,25.2517513 43.9435401,24.4460352 C44.8477805,22.350524 45.9500925,20.4095996 47.6466196,18.8336721 C48.3743178,18.1552074 48.9771447,17.3436262 49.7263724,16.6866319 C50.718148,15.7377717 51.8890484,14.9948324 53.1710975,14.5009449 C54.4708173,14.0228505 55.871487,13.8839073 57.2401791,14.0973014 C58.5115451,14.2687018 59.6898567,14.8562395 60.5901743,15.7676987 C60.7627479,15.9344616 60.9080417,16.1271717 61.0207649,16.3388114 C61.6285405,17.4968447 61.9182284,18.7946378 61.8604167,20.1004258 C61.7500979,21.43275 61.4604364,22.7442013 60.9992354,23.9994509 C60.2500077,26.0262569 59.0228243,27.7481831 57.6879934,29.4185804 C56.5435308,30.7858612 55.2264711,31.999713 53.7696185,33.0299021 C53.4532137,33.2343358 53.1254387,33.4207118 52.7878719,33.5881325 C51.4352518,34.3398976 49.941441,34.8047918 48.4001533,34.9536501 C47.5080681,35.0636965 46.6026353,34.977213 45.7477149,34.7002994 C44.4505258,34.2552123 43.4859559,33.1593739 43.211536,31.8189714 C43.0676466,31.1882243 42.9569768,30.5503957 42.8799812,29.9081056 L42.8799812,29.9081056 Z" id="Path"></path>
                <path d="M18.5223151,0.00333323776 C19.1615397,0.0205380191 19.7875926,0.184460904 20.34964,0.481791851 C21.7706262,1.07006814 23.039852,1.95866941 24.0656389,3.08341056 C25.0151839,4.11955306 25.8495086,5.25080794 26.5546571,6.45825257 C27.0995372,7.48610197 27.5398463,8.56350452 27.8692794,9.67503235 C28.1804066,10.7173886 28.4301848,11.7811046 28.7018735,12.8362768 C28.8621344,13.4280721 28.9067312,14.0439821 28.8333357,14.6518563 C28.7807565,15.2602437 28.7807565,15.8718643 28.8333357,16.4802517 C28.836488,17.4005538 28.6687252,18.3138116 28.3381613,19.1758534 C28.0344162,20.0872229 27.5389024,20.9267604 26.8833127,21.6407696 C25.8872121,22.7987985 24.2821409,23.2717411 22.7948374,22.8454601 C21.3987259,22.5073917 20.1053486,21.8498625 19.0218715,20.9273537 C18.7852395,20.7265719 18.5573717,20.5001585 18.3119755,20.3207365 C16.7069836,18.9812748 15.4804992,17.2635208 14.7493492,15.3310967 C14.080905,13.6839798 13.5675476,11.9809973 13.2156232,10.243202 C13.084161,9.61095307 13.0096657,8.96161638 12.9132601,8.3293675 C12.876891,8.12921712 12.8622034,7.92589432 12.8694394,7.72275033 C12.9483167,6.67185016 12.904496,5.58677438 13.2550619,4.59568154 C13.675741,3.36963134 14.0569815,2.156397 15.1086793,1.23365539 C16.0346554,0.399229603 17.2622444,-0.0432106619 18.5223151,0.00333323776 L18.5223151,0.00333323776 Z" id="Path"></path>
                <path d="M0.909308451,19.4353372 C0.815956073,18.6596384 1.03626769,17.9353672 1.15949282,17.2025247 C1.21761177,16.9730108 1.30305772,16.7538033 1.41341129,16.5511091 C1.49556139,16.3711127 1.61131833,16.2082588 1.69720252,16.032548 C2.42535107,14.5197211 3.58665466,13.9711606 5.05788814,14.00116 C6.49518253,14.0721034 7.88777397,14.5954734 9.08324269,15.5139869 C10.5686698,16.5358475 11.9002734,17.8267845 13.0264471,19.3367678 C14.0210651,20.7470291 14.8577965,22.2947687 15.5170886,23.9438187 C16.0974807,25.3280095 16.5180052,26.7932085 16.7680105,28.3023031 C17.14142,30.5436869 16.4394101,32.412221 15.0951358,33.993618 C14.5522149,34.5962804 13.8336142,34.946031 13.0787245,34.975027 C11.9756436,35.0797751 10.8677734,34.8538283 9.86366857,34.3193258 C8.89492484,33.8752595 7.98497221,33.2780733 7.1601837,32.5450755 C6.07356201,31.4822396 4.95706757,30.4494031 4.17290759,29.0522881 C3.68747523,28.1951624 3.13109505,27.3851785 2.67926954,26.4809109 C1.82815283,24.9171608 1.27461311,23.1646127 1.05493816,21.3381564 C0.991458544,20.708169 0.778615121,20.0867528 0.909308451,19.4353372 Z" id="Path"></path>
            </g>
        </g>
    </g>
</svg>