<?xml version="1.0" encoding="UTF-8"?>
<svg width="150px" height="150px" viewBox="0 0 150 150" version="1.1" xmlns="http://www.w3.org/2000/svg" xmlns:xlink="http://www.w3.org/1999/xlink">
    <title>Software-Integration-Icon</title>
    <g id="Software-Integration-Icon" stroke="none" stroke-width="1" fill="none" fill-rule="evenodd">
        <g id="noun_Productivity_254047" transform="translate(0.000000, 1.000000)" fill="#0F0423" fill-rule="nonzero">
            <path d="M4.44471371,99.7439892 C-0.287244214,86.7726554 -1.16353272,72.7495919 1.6405905,59.2523932 C4.61997141,45.4046179 11.2797641,32.6085724 21.269453,22.4418513 C50.011716,-7.00658215 97.1560375,-7.53244703 126.599331,21.2148333 L128.176651,22.7924279 L128.001393,12.8009951 C128.001393,11.5739771 128.877681,10.6975356 130.104485,10.6975356 C130.104485,10.6975356 130.104485,10.6975356 130.104485,10.6975356 C131.331289,10.6975356 132.207578,11.5739771 132.207578,12.8009951 L132.382835,27.8757885 C132.382835,29.1028065 131.506547,29.979248 130.279743,29.979248 L115.207581,30.1545363 C115.207581,30.1545363 115.207581,30.1545363 115.207581,30.1545363 C113.980777,30.1545363 113.104488,29.2780948 113.104488,28.0510768 C113.104488,26.8240587 113.980777,25.9476172 115.207581,25.9476172 L125.19727,25.7723289 L123.61995,24.1947343 C110.125107,11.2234005 92.4240796,4.03658041 73.6715056,4.2118687 C54.9189316,4.56244529 37.3931615,11.9245537 24.2488339,25.4217523 C5.32100222,44.878753 -0.637759616,72.7495919 8.47564084,98.3416829 C8.82615624,99.3934126 8.30038314,100.620431 7.24883693,101.146296 C7.07357923,101.146296 6.72306383,101.321584 6.54780613,101.321584 C5.49625992,101.146296 4.79522912,100.620431 4.44471371,99.7439892 Z M124.846754,123.583197 C97.6818107,151.278748 53.1663546,151.804613 25.4756378,124.810215 L23.8983185,123.232621 L33.8880075,123.057332 C35.1148114,123.057332 35.9910999,122.005603 35.9910999,120.953873 C35.9910999,119.726855 34.9395537,118.850413 33.8880075,118.850413 L18.8158452,119.025702 C17.5890413,119.025702 16.7127528,120.077431 16.7127528,121.129161 L16.8880105,136.203954 C16.8880105,137.430973 17.9395567,138.307414 18.9911029,138.307414 C18.9911029,138.307414 18.9911029,138.307414 18.9911029,138.307414 C20.2179068,138.307414 21.0941953,137.255684 21.0941953,136.203954 L20.9189376,126.212522 L22.4962569,127.790116 C37.0426461,141.988468 55.7952201,149 74.5477941,149 C93.8261412,149 113.279746,141.462603 127.826135,126.563098 C137.815824,116.396377 144.650875,103.600332 147.454998,89.7525564 C150.259121,76.2553578 149.382832,62.2322942 144.650875,49.2609604 C144.300359,48.2092306 143.073555,47.5080775 141.846751,48.0339423 C140.795205,48.3845189 140.094174,49.611537 140.619947,50.8385551 C149.733348,76.2553578 143.774586,104.126197 124.846754,123.583197 Z M49.8364583,47.3327892 C50.1869737,46.9822126 50.3622314,46.4563477 50.1869737,46.1057711 L48.6096544,40.1459691 C47.9086236,37.691933 49.1354275,35.0626085 51.5890353,34.0108788 L59.1251164,30.5051129 C59.8261472,30.1545363 60.527178,29.979248 61.4034665,29.979248 C63.1560436,29.979248 64.7333629,30.8556895 65.7849091,32.2579958 L69.2900631,37.3413564 C69.4653208,37.691933 69.9910939,37.8672213 70.516867,37.8672213 C72.6199594,37.691933 74.5477941,37.5166447 76.6508865,37.691933 C76.6508865,37.691933 76.6508865,37.691933 76.6508865,37.691933 C77.1766596,37.691933 77.7024327,37.5166447 77.8776904,36.9907798 L80.8570714,31.7321309 C81.7333599,30.1545363 83.4859369,29.1028065 85.4137716,29.1028065 C86.1148024,29.1028065 86.6405755,29.2780948 87.3416063,29.4533831 L95.0529451,32.4332841 C97.506553,33.3097256 98.9086146,35.93905 98.3828415,38.3930861 L97.1560375,44.5281764 C97.1560375,45.0540413 97.3312952,45.4046179 97.6818107,45.7551945 C99.0838723,46.9822126 100.661192,48.2092306 101.887995,49.7868253 C102.238511,50.1374019 102.764284,50.3126902 103.114799,50.1374019 L109.073561,48.5598072 C111.702427,47.858654 114.331292,49.2609604 115.207581,51.5397082 L118.712735,59.0771049 C119.764281,61.3558527 119.06325,64.1604654 116.7849,65.7380601 L111.527169,69.243826 C111.176654,69.4191143 111.001396,69.9449792 111.001396,70.470844 C111.176654,72.3990153 111.351911,74.3271865 111.176654,76.2553578 C111.176654,76.7812226 111.351911,77.1317992 111.877684,77.4823758 L117.135415,80.6375651 C119.413766,81.8645832 120.290054,84.6691959 119.413766,87.123232 L116.609642,94.6606287 C115.908612,96.7640882 113.805519,98.1663946 111.527169,98.1663946 C111.176654,98.1663946 110.826138,98.1663946 110.475623,97.9911063 L104.341603,96.7640882 C103.81583,96.5887999 103.465315,96.9393765 103.114799,97.2899531 C101.887995,98.8675478 100.661192,100.269854 99.0838723,101.496872 C98.7333569,101.847449 98.5580992,102.373314 98.7333569,102.72389 L100.310676,108.683692 C101.011707,111.137728 99.7849031,113.767053 97.3312952,114.818783 L89.7952141,118.324548 C89.0941833,118.675125 88.3931525,118.850413 87.516864,118.850413 C85.764287,118.850413 84.1869677,117.973972 83.1354215,116.571666 L79.6302674,111.313017 C79.4550097,110.96244 78.9292366,110.787152 78.4034635,110.787152 C76.4756288,110.96244 74.7230518,111.137728 72.7952171,110.96244 C72.7952171,110.96244 72.7952171,110.96244 72.7952171,110.96244 C72.269444,110.96244 71.7436709,111.137728 71.5684132,111.663593 L68.4137746,117.09753 C67.5374861,118.675125 65.6096514,119.726855 63.8570744,119.726855 C63.1560436,119.726855 62.6302704,119.551567 61.9292396,119.376278 L54.2179008,116.396377 C51.764293,115.519936 50.3622314,112.890611 50.8880045,110.436575 L52.1148084,104.301485 C52.2900661,103.77562 51.9395507,103.425043 51.5890353,103.074467 C50.011716,101.847449 48.6096544,100.445142 47.2075928,99.0428361 C46.8570774,98.6922595 46.3313043,98.5169712 45.9807889,98.6922595 L40.022027,100.269854 C37.5684192,100.971007 34.9395537,99.5687009 33.8880075,97.2899531 L30.3828535,89.7525564 C29.3313073,87.4738086 30.0323381,84.6691959 32.3106882,83.0916012 L37.5684192,79.5858354 C37.9189346,79.2352588 38.0941923,78.8846822 38.0941923,78.3588173 C37.9189346,76.4306461 37.7436769,74.5024748 37.9189346,72.3990153 C37.9189346,71.8731504 37.7436769,71.5225738 37.2179038,71.1719972 L31.7849151,68.0168079 C29.506565,66.7897899 28.6302765,63.9851771 29.506565,61.531141 L32.4859459,53.8184561 C32.4859459,53.8184561 32.4859459,53.8184561 32.4859459,53.6431678 C33.3622344,51.7149965 35.2900691,50.3126902 37.3931615,50.3126902 C37.7436769,50.3126902 38.0941923,50.3126902 38.4447077,50.4879785 L44.5787272,51.7149965 C45.1045003,51.8902848 45.4550157,51.5397082 45.8055312,51.1891316 C47.0323351,50.1374019 48.4343967,48.5598072 49.8364583,47.3327892 Z M49.1354275,54.3443209 C47.9086236,55.9219156 45.8055312,56.7983571 43.7024387,56.4477805 L37.5684192,55.2207624 C37.5684192,55.2207624 37.3931615,55.2207624 37.3931615,55.2207624 C37.0426461,55.2207624 36.516873,55.571339 36.3416153,55.9219156 L33.5374921,63.6346006 C33.3622344,64.1604654 33.5374921,64.6863303 34.0632652,64.8616186 L39.4962539,68.0168079 C41.2488309,69.0685377 42.3003771,70.9967089 42.3003771,73.1001685 C42.3003771,74.8530514 42.3003771,76.6059344 42.4756348,78.3588173 C42.6508925,80.4622768 41.774604,82.3904481 40.022027,83.6174661 L34.9395537,87.123232 C34.5890383,87.4738086 34.4137806,87.9996735 34.5890383,88.3502501 L38.0941923,95.8876468 C38.26945,96.4135116 38.7952231,96.5887999 39.3209962,96.4135116 L45.279758,94.835917 C45.8055312,94.6606287 46.1560466,94.6606287 46.6818197,94.6606287 C48.259139,94.6606287 49.6612006,95.3617819 50.8880045,96.4135116 C52.1148084,97.6405297 53.3416123,98.8675478 54.7436739,99.9192808 C56.3209932,101.146296 57.1972817,103.249755 56.8467663,105.353215 L55.269447,111.313017 C55.0941893,111.838882 55.4447047,112.364746 55.9704778,112.540035 L63.6818167,115.519936 C64.2075898,115.695224 64.7333629,115.519936 64.9086206,114.994071 L68.0632592,109.560134 C69.1148054,107.807251 71.0426401,106.755521 73.1457325,106.755521 C74.7230518,106.755521 76.4756288,106.755521 78.0529481,106.580233 C80.1560405,106.404944 82.0838753,107.281386 83.3106792,109.034269 L86.8158332,114.292918 C87.1663486,114.643494 87.6921217,114.818783 88.0426371,114.643494 L95.5787182,111.137728 C96.1044913,110.96244 96.279749,110.436575 96.1044913,109.91071 L94.527172,103.950908 C94.0013989,101.847449 94.7024297,99.7439892 96.1044913,98.3416829 C97.3312952,97.1146648 98.5580992,95.8876468 99.6096454,94.6606287 C100.836449,93.083034 102.939542,92.2065926 105.042634,92.5571692 L111.176654,93.7841872 C111.702427,93.9594755 112.2282,93.6088989 112.403458,93.083034 L115.382838,85.3703491 C115.558096,84.8444842 115.382838,84.3186193 114.857065,84.143331 L109.599334,80.9881417 C107.846757,79.9364119 106.795211,78.0082407 106.795211,75.9047812 C106.970469,74.1518982 106.795211,72.3990153 106.619953,70.8214206 C106.444696,68.7179611 107.320984,66.7897899 109.073561,65.5627718 L114.331292,62.0570059 C114.681808,61.7064293 114.857065,61.1805644 114.681808,60.8299878 L111.176654,53.2925912 C111.001396,52.7667263 110.475623,52.591438 109.94985,52.7667263 L104.341603,54.3443209 C102.413769,54.8701858 100.135418,54.1690326 98.7333569,52.7667263 C97.506553,51.5397082 96.279749,50.3126902 95.0529451,49.2609604 C93.4756258,48.0339423 92.5993373,45.9304828 92.9498527,43.8270233 L94.1766566,37.691933 C94.3519143,37.1660681 94.0013989,36.6402032 93.4756258,36.4649149 L85.764287,33.4850139 C85.2385139,33.3097256 84.7127408,33.4850139 84.5374831,34.0108788 L81.5581022,39.2695276 C80.506556,41.0224106 78.5787212,42.0741403 76.4756288,42.0741403 C74.7230518,41.898852 72.9704748,42.0741403 71.2178978,42.2494286 C69.1148054,42.4247169 67.011713,41.5482754 65.9601668,39.7953925 L62.4550127,34.712032 C62.1044973,34.3614554 61.5787242,34.1861671 61.2282088,34.3614554 L53.6921277,37.8672213 C53.1663546,38.0425096 52.9910969,38.5683744 53.1663546,39.0942393 L54.7436739,45.0540413 C55.269447,46.9822126 54.5684162,49.2609604 53.1663546,50.6632668 C51.4137776,51.5397082 50.1869737,52.9420146 49.1354275,54.3443209 Z M58.9498587,81.6892949 C57.022024,77.4823758 56.6715086,72.9248802 58.2488279,68.5426728 C60.7024357,61.7064293 67.1869707,57.1489337 74.3725364,57.1489337 C76.3003711,57.1489337 78.2282058,57.4995102 80.1560405,58.2006634 C84.5374831,59.7782581 88.0426371,62.9334474 89.9704718,66.9650782 C91.8983065,71.1719972 92.2488219,75.7294929 90.6715026,80.1117002 C88.2178948,86.9479437 81.7333599,91.5054394 74.5477941,91.5054394 C72.6199594,91.5054394 70.6921247,91.1548628 68.76429,90.4537096 C64.5581052,89.0514033 61.0529511,85.896214 58.9498587,81.6892949 Z M62.9807859,79.9364119 C64.3828475,83.0916012 67.011713,85.3703491 70.3416093,86.5973671 C71.7436709,87.123232 73.1457325,87.2985203 74.7230518,87.2985203 C80.1560405,87.2985203 85.0632562,83.7927544 86.8158332,78.7093939 C88.0426371,75.3789163 87.8673794,71.8731504 86.2900601,68.8932494 C84.8879985,65.7380601 82.259133,63.4593123 78.9292366,62.2322942 C77.527175,61.7064293 76.1251134,61.531141 74.5477941,61.531141 C69.1148054,61.531141 64.2075898,65.0369069 62.4550127,70.1202675 C61.2282088,73.2754568 61.4034665,76.7812226 62.9807859,79.9364119 Z" id="Shape"></path>
        </g>
    </g>
</svg>