<?xml version="1.0" encoding="UTF-8"?>
<svg width="140px" height="126px" viewBox="0 0 140 126" version="1.1" xmlns="http://www.w3.org/2000/svg" xmlns:xlink="http://www.w3.org/1999/xlink">
    <title>Group 9</title>
    <g id="Page-1" stroke="none" stroke-width="1" fill="none" fill-rule="evenodd">
        <g id="HOMEPAGE-v1.6-Copy" transform="translate(-399.000000, -1269.000000)">
            <g id="Group-9" transform="translate(399.000000, 1269.000000)">
                <g id="noun_shape_2901834-(1)">
                    <path d="M67.8817626,0.086022606 C60.1366273,0.0752052115 52.3926518,2.49923783 45.8568333,7.36144555 C32.7851964,17.0858395 27.685262,34.4433886 33.2524104,49.7672835 C33.4772086,50.3740718 33.4227714,51.0465815 33.0999898,51.6073283 C32.7772732,52.1680751 32.2254749,52.5535516 31.5884744,52.6630223 C15.4115003,55.338031 2.82102412,68.4240943 0.888214696,84.7281456 C-1.04459469,101.032197 8.03135403,116.679103 23.1333062,123.072315 C38.2352807,129.465571 55.8133674,124.987924 66.1458478,112.239791 C66.5578767,111.728885 67.1709038,111.434957 67.8267207,111.434241 C68.4825158,111.433524 69.1029914,111.725492 69.5160608,112.235552 C79.855955,124.978214 97.4511997,129.466209 112.549771,123.063836 C127.648364,116.661464 136.712501,101.010194 134.769459,84.7069461 C132.826418,68.4036112 120.248364,55.3274812 104.069201,52.6630223 C103.430748,52.5551363 102.877447,52.1686612 102.553451,51.6073283 C102.229456,51.0459954 102.171585,50.3751138 102.396795,49.7672835 C108.007648,34.4593436 102.933621,17.1825542 89.8897529,7.42080196 C83.3678299,2.53990413 75.6268741,0.0971296899 67.8817626,0.086022606 Z" id="Path" fill="#EADF32"></path>
                    <path d="M72.3617626,0.086022606 C64.6166273,0.0752052115 56.8726518,2.49923783 50.3368333,7.36144555 C37.2651964,17.0858395 32.165262,34.4433886 37.7324104,49.7672835 C37.9572086,50.3740718 37.9027714,51.0465815 37.5799898,51.6073283 C37.2572732,52.1680751 36.7054749,52.5535516 36.0684744,52.6630223 C19.8915003,55.338031 7.30102412,68.4240943 5.3682147,84.7281456 C3.43540531,101.032197 12.511354,116.679103 27.6133062,123.072315 C42.7152807,129.465571 60.2933674,124.987924 70.6258478,112.239791 C71.0378767,111.728885 71.6509038,111.434957 72.3067207,111.434241 C72.9625158,111.433524 73.5829914,111.725492 73.9960608,112.235552 C84.335955,124.978214 101.9312,129.466209 117.029771,123.063836 C132.128364,116.661464 141.192501,101.010194 139.249459,84.7069461 C137.306418,68.4036112 124.728364,55.3274812 108.549201,52.6630223 C107.910748,52.5551363 107.357447,52.1686612 107.033451,51.6073283 C106.709456,51.0459954 106.651585,50.3751138 106.876795,49.7672835 C112.487648,34.4593436 107.413621,17.1825542 94.3697529,7.42080196 C87.8478299,2.53990413 80.1068741,0.0971296899 72.3617626,0.086022606 Z" id="Path-Copy" fill="#F6F0DE" style="mix-blend-mode: multiply;"></path>
                </g>
                <g id="homee" transform="translate(54.303030, 51.000000)" fill="#202A30" fill-rule="nonzero">
                    <path d="M30.6384438,33.8127799 C30.5620061,33.8416714 30.4826531,33.8619336 30.4018255,33.8731986 C29.8267054,33.8724831 29.2521397,33.9093666 28.6817133,33.983619 C28.4194755,34.0054603 28.1559093,34.0054603 27.8936715,33.983619 C27.0912268,33.983619 26.2887822,33.9377841 25.4863375,33.9586182 C24.7991156,33.9752854 24.1118938,33.9336173 23.428787,33.9252837 C22.2971343,33.9106999 21.1654816,33.9023663 20.0317713,33.8877824 C19.8527644,33.8877824 19.6716999,33.864865 19.4659449,33.8502812 C19.4283375,33.7435652 19.4014533,33.6332814 19.3857004,33.5211033 C19.3712976,33.0544207 19.3610098,32.5877382 19.3630674,32.1210556 C19.3630674,31.056436 19.3424919,29.989733 19.3898155,28.9271969 C19.4433118,27.7604905 19.3589523,26.5979509 19.3630674,25.4333279 C19.3578845,25.133614 19.3248175,24.8350616 19.2643049,24.5416309 C19.1840605,24.0999492 19.0935283,23.6603509 18.9783054,23.2270028 C18.9196375,23.018916 18.8279055,22.821888 18.7067088,22.6436496 C18.2944197,22.0378193 17.7354453,21.5492963 17.0833015,21.2248513 C16.0709866,20.708167 15.0771898,20.8602555 14.0854505,21.264436 C13.8958125,21.3266723 13.7312107,21.4494818 13.616329,21.6144479 C13.5927512,21.659487 13.5551375,21.695376 13.5093363,21.7165347 C13.1204593,21.8165381 12.9496826,22.156133 12.7295247,22.4415594 C12.5020391,22.7265063 12.3428723,23.0609631 12.2645183,23.418676 C12.2645183,23.4686777 12.2377702,23.516596 12.2336551,23.5645143 C12.2209514,23.9293939 12.1872879,24.2932157 12.1328351,24.6541347 C12.0656694,24.9970503 12.0353156,25.3463138 12.0423029,25.6958368 C12.0423029,26.4604462 12.0237849,27.227139 12.0217274,27.9875815 C12.0217274,28.2709245 12.0608208,28.5521841 12.0649359,28.8334437 C12.0772812,29.948065 12.0793388,31.0606028 12.0916841,32.1668905 C12.0916841,32.5648207 12.0916841,32.9648343 12.1246049,33.3627646 C12.1444233,33.4623617 12.1237131,33.5658427 12.067165,33.6497698 C12.0106169,33.7336968 11.9230157,33.7909684 11.8242025,33.8086131 C11.7156058,33.8420565 11.6022438,33.8568449 11.4888218,33.8523646 C10.9950097,33.8523646 10.5011976,33.8523646 10.0073855,33.8523646 C9.05679717,33.8419475 8.10620886,33.8273637 7.15562055,33.8190301 L3.95407206,33.7940292 C3.41293629,33.7940292 2.86974297,33.7648616 2.33066475,33.7940292 C1.89815522,33.8418575 1.46231948,33.8509208 1.02823532,33.8211135 C0.902007737,33.5996904 0.837972408,33.347535 0.843055779,33.091922 C0.869803935,32.1627237 0.843055779,31.231442 0.865688834,30.3022437 C0.843460671,29.9253243 0.847586063,29.5472851 0.878034136,29.1709552 C0.887937139,28.9889972 0.884498456,28.8065461 0.867746384,28.6251032 C0.867746384,27.8271594 0.898609641,27.0292156 0.867746384,26.2312717 C0.838940678,25.4687458 0.89449454,24.7083032 0.867746384,23.939527 C0.840998228,23.1707509 0.902724742,22.4228087 0.84922843,21.6706998 C0.838940678,21.5061109 0.861573733,21.3394385 0.861573733,21.1727662 C0.861573733,20.3394045 0.858144482,19.510904 0.851285981,18.6872649 C0.851285981,18.0622436 0.832768027,17.4372223 0.834825577,16.7997006 C0.834825577,16.4330215 0.851285981,16.0684257 0.867746384,15.7017466 C0.897866995,15.4830223 0.835905423,15.261542 0.696969697,15.0913091 C0.773031767,14.9188594 0.886215265,14.7658145 1.02823532,14.6433772 C1.23399036,14.4496206 1.43974541,14.2621142 1.64550045,14.0683576 C2.19075132,13.5391729 2.73805974,13.0141551 3.27713796,12.4808036 C4.27299238,11.4911865 5.26061659,10.4953193 6.25441346,9.50570228 C6.71118966,9.04943674 7.17825361,8.60775504 7.63502981,8.15357291 C8.02184929,7.76814312 8.40043857,7.37646312 8.78314296,6.98894992 C8.97038005,6.80144354 9.16584734,6.62227077 9.35102688,6.43268098 C10.0649969,5.70140608 10.7727942,4.96179757 11.4888218,4.23052267 C11.9003319,3.81384182 12.311842,3.42216181 12.7233521,3.01381458 C13.6218158,2.11795074 14.5045049,1.2026418 15.3714195,0.267887752 C15.4146281,0.219969454 15.4578366,0.169967752 15.5051603,0.124132858 C15.557249,0.0464863159 15.6439335,0 15.7366347,0 C15.8293359,0 15.9160204,0.0464863159 15.9681091,0.124132858 C16.7149999,0.90124265 17.4618907,1.67001882 18.2128967,2.44504521 C18.5976586,2.84714224 19.0091687,3.23882224 19.4001033,3.64091926 C19.7910379,4.04301629 20.124361,4.41386225 20.4926626,4.79304182 C20.8609641,5.1722214 21.264244,5.5639014 21.6448908,5.953498 C22.2765588,6.60352013 22.897939,7.26395928 23.5337221,7.91189801 C23.914369,8.30149461 24.3155913,8.67025717 24.7003532,9.05568696 C25.2023955,9.55778738 25.6982652,10.066138 26.19825,10.5724053 C26.9883493,11.3724325 27.7805062,12.1703763 28.5685481,12.9745704 C29.0891083,13.5058385 29.5973233,14.0412734 30.1219987,14.5767083 C30.1712959,14.6424017 30.2302835,14.7000225 30.2968904,14.7475474 C30.6137532,14.9017193 30.6734222,15.1975627 30.687825,15.4954895 C30.7084005,15.9455049 30.687825,16.3934368 30.687825,16.8434521 C30.687825,17.2934674 30.687825,17.7747338 30.6734222,18.2414164 C30.6734222,18.8060189 30.646674,19.3706215 30.6446165,19.9373074 C30.6446165,21.3665228 30.6446165,22.7978215 30.6302136,24.2291202 C30.6302136,25.2610998 30.61924,26.2930794 30.5972928,27.325059 C30.5972928,27.9896649 30.5335087,28.6563543 30.564372,29.3209603 C30.6034655,30.1689058 30.564372,31.0168513 30.5952353,31.8647969 C30.6137532,32.504402 30.6260985,33.1502573 30.6384438,33.8127799 Z" id="Path"></path>
                </g>
            </g>
        </g>
    </g>
</svg>