<?xml version="1.0" encoding="UTF-8"?>
<svg width="165px" height="168px" viewBox="0 0 165 168" version="1.1" xmlns="http://www.w3.org/2000/svg" xmlns:xlink="http://www.w3.org/1999/xlink">
    <title>Group 12</title>
    <g id="Page-1" stroke="none" stroke-width="1" fill="none" fill-rule="evenodd">
        <g id="HOMEPAGE-v1.6-Copy" transform="translate(-516.000000, -2344.000000)">
            <g id="Group-12" transform="translate(516.000000, 2344.000000)">
                <g id="Group-5-Copy">
                    <polygon id="Path-3-Copy-2" fill="#4DC3C5" style="mix-blend-mode: multiply;" points="90.0842437 51.2493471 128.108113 14.6258295 109.096178 62.6026801 158 57.8174063 116.493666 83.7950271 158 108.397637 109.096178 104.887908 128.108113 151.683614 90.0842437 120.020949 79.9843691 168 67.1764097 120.020949 31.2225652 151.683614 49.2798551 104.887908 -4.38538095e-15 111.481083 41.5442138 83.7950271 0 62.6026801 49.2798551 62.6026801 28.6040038 18.3809101 67.1764097 51.2493471 79 0"></polygon>
                    <polygon id="Path-3-Copy-3" fill="#F6F0DE" style="mix-blend-mode: multiply;" points="97.0842437 51.2493471 135.108113 14.6258295 116.096178 62.6026801 165 57.8174063 123.493666 83.7950271 165 108.397637 116.096178 104.887908 135.108113 151.683614 97.0842437 120.020949 86.9843691 168 74.1764097 120.020949 38.2225652 151.683614 56.2798551 104.887908 7 111.481083 48.5442138 83.7950271 7 62.6026801 56.2798551 62.6026801 35.6040038 18.3809101 74.1764097 51.2493471 86 0"></polygon>
                </g>
                <g id="connect2" transform="translate(45.000000, 48.788079)" fill="#202A30" fill-rule="nonzero">
                    <path d="M11.0918068,52.138269 C10.7407547,51.8251344 10.371455,51.5325687 9.98580182,51.2620724 C8.39114097,50.2175047 6.98640453,48.9144338 5.83081023,47.4077915 C4.00999504,45.2120002 2.58588082,42.7225307 1.6210166,40.048724 C0.458464963,37.1525842 -0.0892617594,34.0512731 0.0118292043,30.9372631 C0.0965232775,29.4605271 0.056667243,27.949334 0.270893428,26.4578307 C0.536246944,24.7455308 1.0391791,23.0775344 1.76549472,21.5009203 C2.713304,19.3773339 3.82421359,17.3285332 5.08849159,15.3724661 C6.12156828,13.6943537 7.34144538,12.1357249 8.72535473,10.7256703 C9.80262625,9.68266698 10.9694709,8.73399737 12.2127577,7.89033721 C13.707359,6.90584657 15.1571223,5.86720894 16.6965616,4.99101227 C17.9820326,4.2972684 19.3136192,3.69041568 20.6821651,3.17462704 C22.1569781,2.58828857 23.661958,2.07893271 25.190879,1.64866655 C27.7305676,0.932775441 30.3448913,0.506667318 32.9827337,0.378673622 C34.2979828,0.319604183 35.60825,0.299914371 36.9234991,0.226077573 C38.5898331,0.172435848 40.2576155,0.271306668 41.9055034,0.521424765 C43.3801767,0.747857612 44.8249579,0.974290459 46.2846852,1.21056821 C46.7888982,1.30446191 47.2877832,1.42440617 47.7792865,1.5699073 C48.7756873,1.85048713 49.7720882,2.12614451 50.7684891,2.44610397 C51.5955018,2.71683889 52.4225145,3.00726363 53.2246172,3.35183536 C54.8950087,3.99124711 56.5026092,4.78049623 58.0272693,5.70969044 C58.1568015,5.7982946 58.3012796,5.86720894 58.4308117,5.96073555 C59.7809349,6.94522619 61.155968,7.86572494 62.4761992,8.86990539 C64.5718304,10.4365173 66.4613338,12.2554805 68.1008821,14.2846039 C69.1798118,15.5441964 70.132516,16.9042417 70.9456065,18.3456278 C72.3121629,20.9244504 73.3992855,23.6386449 74.1888913,26.4430633 C74.9383394,29.4249009 75.1708044,32.5106855 74.8764079,35.5692916 C74.7720448,37.3863596 74.2361354,39.15362 73.3120586,40.7280225 C72.6209389,41.8771854 71.995547,43.0637164 71.4388249,44.2820337 C70.7286548,45.6871927 69.8595589,47.008281 68.8481827,48.2199963 C67.1361695,50.4495252 65.1016828,52.4182293 62.8099935,54.0629482 C61.9381427,54.6831773 61.101166,55.3427861 60.2143692,55.9384029 C58.5378344,57.0170045 56.7845823,57.9744553 54.9683187,58.8032707 C53.12465,59.6426171 51.2089714,60.3180216 49.2439958,60.8214765 C47.5537605,61.2638535 45.8289065,61.5651822 44.0876213,61.7222854 C43.5346188,61.7813549 42.9865983,61.8847264 42.4335959,61.9437958 C41.0096714,62.0307636 39.5813349,62.0192498 38.1590362,61.9093386 C37.5661777,61.9093386 36.9683371,61.9093386 36.3754786,61.8551917 C35.9071702,61.8108896 35.4438438,61.6878282 34.8808773,61.5795343 L33.6154482,62.2489879 C32.7834535,62.7116985 31.9514588,63.1694867 31.1244461,63.6469646 C29.859017,64.3754877 28.5836239,65.0990883 27.3381228,65.866991 C25.9581076,66.7234979 24.5581644,67.5406251 23.1183652,68.2986829 C20.8714812,69.4800717 18.6843813,70.7599095 16.4773534,72.02498 C15.7574808,72.4425247 15.0043663,72.8014107 14.2254875,73.0980748 C13.6957608,73.2912133 13.1059692,73.2365943 12.6217925,72.9495607 C12.1376157,72.6625272 11.8112904,72.1740464 11.7344853,71.6213388 C11.5924496,70.6895606 11.5274686,69.7478991 11.5401872,68.8056956 C11.5949892,65.8965257 11.6198992,62.9922783 11.395709,60.0831085 C11.2213389,57.8138576 11.1765009,55.5298393 11.0768608,53.2507435 C11.0768608,52.8963268 11.0918068,52.5566776 11.0918068,52.138269 Z M43.3951227,28.5547957 C43.4847988,25.8720588 41.7161872,23.1400972 37.7256018,23.0268808 C34.8758953,22.9481216 32.2453971,25.5324095 32.2453971,28.7172367 C32.3361229,31.6791691 34.7764411,34.042529 37.7754218,34.0728658 C40.7446964,34.107323 43.5146908,31.5919494 43.3951227,28.5547957 Z M25.3951411,29.0371962 C25.3680911,28.1898513 25.1805176,27.3550255 24.8421387,26.5759696 C24.5807207,25.9165929 24.1558792,25.3326481 23.6066016,24.8777232 C22.4707046,23.8686203 21.0607974,23.4600567 19.6758002,22.9825787 C19.5124126,22.9408965 19.3409874,22.9408965 19.1775998,22.9825787 C18.0285795,23.157149 16.9602091,23.6720759 16.1136671,24.4593147 C14.1893144,26.2488127 13.7029495,29.0838644 14.9229681,31.3999737 C15.7615185,32.9335145 17.2925407,33.9776248 19.041137,34.2084386 C20.7897332,34.4392524 22.5444651,33.82886 23.7610437,32.5665951 C24.7214671,31.6252415 25.3023154,30.3706983 25.3951411,29.0371962 Z M50.4795328,28.7763061 C50.4795328,31.6116392 53.010391,34.0580984 55.9099175,34.1270128 C58.2514595,34.1860822 61.5744564,32.1038845 61.5495464,28.7123142 C61.5431856,27.237191 60.937721,25.8263436 59.8689911,24.7963014 C58.8002612,23.7662593 57.3577458,23.2032633 55.8650795,23.2336238 C52.8260568,23.159787 50.4795328,25.5865565 50.4795328,28.7763061 Z" id="Shape"></path>
                </g>
            </g>
        </g>
    </g>
</svg>