<?xml version="1.0" encoding="UTF-8"?>
<svg width="150px" height="145px" viewBox="0 0 150 145" version="1.1" xmlns="http://www.w3.org/2000/svg" xmlns:xlink="http://www.w3.org/1999/xlink">
    <title>Group 17</title>
    <g id="Page-1" stroke="none" stroke-width="1" fill="none" fill-rule="evenodd">
        <g id="HOMEPAGE-v1.6-Copy" transform="translate(-1254.000000, -2350.000000)" fill-rule="nonzero">
            <g id="Group-17" transform="translate(1254.000000, 2350.000000)">
                <g id="CC" transform="translate(38.000000, 43.000000)" fill="#202A30">
                    <path d="M79.9584219,22.2305835 C79.9275378,22.9283034 79.8657696,23.6260233 79.870917,24.3237432 C79.870917,26.540942 79.9378325,28.7581409 79.9481272,30.9701714 C79.9481272,31.9159695 79.870917,32.8565993 79.8606223,33.7972291 C79.8606223,34.1590098 79.9532746,34.5259588 79.9584219,34.8877395 C79.9584219,36.4382282 80.0047481,38.024895 80,39.5908886 C80,41.5703458 79.9635693,43.5498031 79.9532746,45.5344286 C79.9532746,49.0333647 78.8311519,52.1188373 76.3501284,54.5892826 C74.8370153,56.1870759 72.895494,57.3107754 70.7601044,57.8246357 C70.1784537,57.9486748 69.5607715,58.1967529 68.9894154,57.7161015 C68.8916157,57.6334087 68.6702796,57.6747551 68.5158591,57.7161015 C67.9491258,57.8079403 67.3687855,57.7636621 66.8223803,57.5868941 C66.5980545,57.5054967 66.3553929,57.4893729 66.1223405,57.5403794 C65.3341801,57.7702667 64.5106239,57.852607 63.6927905,57.7832893 C60.6043795,57.7832893 57.5159684,57.7987942 54.4275574,57.829804 C49.9424983,57.829804 45.4591549,57.8418633 40.9775273,57.865982 C36.2453953,57.865982 31.5149791,57.865982 26.7862786,57.865982 C23.7493411,57.865982 20.7124036,57.865982 17.6754661,57.8246357 C15.5393151,57.8246357 13.4031642,57.8246357 11.2670132,57.7626161 C9.82519124,57.7083891 8.40158966,57.420416 7.05133212,56.9098473 C4.86450824,56.1191608 3.02784564,54.5753609 1.86794894,52.5529741 C1.11963053,51.3088806 0.588666804,49.9454812 0.298006661,48.5217035 C0.155284327,47.6247896 0.100117549,46.716027 0.133291405,45.8083483 C0.133291405,43.6635056 0.174470219,41.5186629 0.210501681,39.3738202 C0.210501681,38.8569906 0.292859309,38.303983 0.328890771,37.7664802 C0.380153537,37.3187838 0.400791318,36.8680857 0.390658992,36.417555 C0.277417254,34.6448296 0.390658992,32.8721042 0.390658992,31.1045471 C0.390658992,28.5203993 0.514195433,25.9362515 0.519342785,23.3210938 C0.498753378,21.9463272 0.462721916,20.597402 0.426690454,19.2381403 C0.450948202,18.7009247 0.335648957,18.1666091 0.0921125916,17.6876516 C-0.144665588,17.2793562 0.0921125916,16.9899317 0.606847764,17 C1.50763432,17 2.41356822,17.0622878 3.31950212,17.0932976 C5.82111506,17.1811586 8.322728,17.2793562 10.8243409,17.3413758 C12.054558,17.3723855 13.2847751,17.3413758 14.5149921,17.3413758 C16.1158185,17.3413758 17.7217922,17.3413758 19.327766,17.3413758 C21.9940942,17.3413758 24.6655697,17.3672173 27.3370453,17.2896928 C29.8386582,17.2173367 32.3454185,17.258683 34.8470314,17.1966635 C37.7604325,17.1294757 40.6686862,17.1966635 43.5975294,17.222505 L56.5482663,17.222505 C59.5491724,17.222505 62.5552258,17.222505 65.5561318,17.2690196 C67.4452099,17.2948611 69.3291406,17.398227 71.2182187,17.398227 C73.1072968,17.398227 75.0787325,17.310366 77.0089894,17.2741879 C77.6651496,17.2604303 78.3215672,17.2828601 78.9752778,17.3413758 C79.2454895,17.3447598 79.50124,17.4645036 79.6775103,17.6701651 C79.8537806,17.8758266 79.9335918,18.1475957 79.8966537,18.4163813 C79.8966537,19.687782 79.8966537,20.9591827 79.8966537,22.2357518 L79.9584219,22.2305835 Z" id="Path"></path>
                    <path d="M0,11.3718379 C0,10.9361783 0,10.5815716 0,10.2218991 C0.0513342588,9.07196022 0.564676847,8.03853499 0.913749807,6.97471491 C1.23323474,6.2712506 1.67251034,5.6270131 2.21250655,5.06997037 C2.62118234,4.5667046 3.06183261,4.08955823 3.53179701,3.64141197 C4.90069236,2.35298164 6.56772204,1.41393416 8.38801789,0.905874613 C9.93549184,0.492354431 11.5333222,0.291207905 13.1364368,0.308109041 C13.4184363,0.317648669 13.6995006,0.271134513 13.9629184,0.171332173 C14.4174754,-0.0199534895 14.9246427,-0.0521276563 15.4002776,0.0801475943 C16.4316838,0.299825125 17.4888404,0.378237994 18.5419343,0.313174851 C19.635354,0.227056082 20.744174,0.343569711 21.8478606,0.35876714 C25.0870523,0.40435943 28.3211106,0.439820099 31.5603023,0.510741438 C33.9370785,0.546202108 36.3138547,0.612057637 38.6906309,0.642452496 C39.5889804,0.642452496 40.4924634,0.591794397 41.3908129,0.591794397 C42.2891624,0.591794397 43.2747802,0.647518306 44.2193305,0.657649926 C46.5122608,0.677913166 48.8086133,0.693110596 51.1083881,0.703242216 L64.3988277,0.748834505 L67.1041431,0.748834505 C68.1712722,0.760214054 69.2305012,0.931010974 70.2457998,1.2554155 C70.9901465,1.48337694 71.7139596,1.76199649 72.442906,2.00008956 C73.6892052,2.53145707 74.8098051,3.31296315 75.733432,4.29490146 C77.6841339,6.11859303 78.6030171,8.46912884 78.9828906,11.0476261 C79.0240522,11.2284107 78.9902472,11.4179317 78.8890045,11.5739803 C78.7877618,11.7300289 78.627489,11.8396462 78.4438809,11.8784189 C78.1269957,11.9593186 77.8009811,12.000172 77.4736634,12 C75.3022243,11.9696035 73.1307851,11.9088138 70.9542125,11.8885505 C67.5918186,11.8885505 64.2294246,11.8885505 60.8618972,11.8632215 L52.7510844,11.8632215 C48.9780163,11.8632215 45.2049483,11.8632215 41.4318803,11.8632215 C38.3518248,11.8632215 35.2717692,11.8074976 32.1917137,11.8024318 C29.8970723,11.8024318 27.602431,11.8429582 25.3077896,11.8480241 C19.9792935,11.8480241 14.6490863,11.8564671 9.31716797,11.8733531 C7.35106586,11.8733531 5.38496375,11.8733531 3.41886164,11.7669711 C2.51024526,11.7315104 1.54002776,11.9493403 0.703279346,11.3414431 C0.58521055,11.2198636 0.277204998,11.3465089 0,11.3718379 Z M49.2808885,10.9412441 L49.4092241,11.184403 C49.4943228,11.1244837 49.5718723,11.0547581 49.6402283,10.9767048 C49.6402283,10.9463099 49.5786272,10.8500595 49.5426932,10.7892698 L49.2808885,10.9412441 Z M46.7706432,10.809533 L46.6731081,10.809533 L46.7141755,10.9564415 C46.7141755,10.9564415 46.7809101,10.915915 46.7911769,10.890586 C46.8014438,10.8652569 46.7860435,10.8399279 46.7809101,10.809533 L46.7706432,10.809533 Z" id="Shape"></path>
                </g>
                <g id="Group-13">
                    <g id="noun_banners_1567399" transform="translate(5.730769, 0.000000)" fill="#F59223">
                        <polygon id="Path" style="mix-blend-mode: multiply;" points="18.368518 64.4357656 2.44093776 52.9415346 21.9983443 50.9278148 9.59719673 35.7141407 29.0110847 38.8164288 20.9813281 20.9209259 38.9283717 28.9277181 35.8173151 9.56960321 51.0747681 21.9351903 53.0942355 2.43389129 64.6217327 18.3156701 71.634601 0 78.6475024 18.3156701 90.1750162 2.43389129 92.1944588 21.9351903 107.451912 9.56960321 104.34088 28.9277181 122.287911 20.9209259 114.258167 38.8164288 133.672038 35.7141407 121.270887 50.9278148 140.828277 52.9415346 124.900721 64.4357656 143.269231 71.4285735 124.900721 78.4213813 140.828277 89.9156124 121.270887 91.9293322 133.672038 107.14271 114.258167 104.040718 122.287911 121.936225 104.34088 113.929429 107.451912 133.28754 92.1944588 120.921957 90.1750162 140.423247 78.6475024 124.541485 71.634601 142.857143 64.6217327 124.541485 53.0942355 140.423247 51.0747681 120.921957 35.8173151 133.28754 38.9283717 113.929429 20.9813281 121.936225 29.0110847 104.040718 9.59719673 107.14271 21.9983443 91.9293322 2.44093776 89.9156124 18.368518 78.4213813 0 71.4285735"></polygon>
                    </g>
                    <g id="noun_banners_1567399-copy-3" transform="translate(0.000000, 1.142857)" fill="#F6F0DE">
                        <polygon id="Path" style="mix-blend-mode: multiply;" points="18.368518 64.4357656 2.44093776 52.9415346 21.9983443 50.9278148 9.59719673 35.7141407 29.0110847 38.8164288 20.9813281 20.9209259 38.9283717 28.9277181 35.8173151 9.56960321 51.0747681 21.9351903 53.0942355 2.43389129 64.6217327 18.3156701 71.634601 0 78.6475024 18.3156701 90.1750162 2.43389129 92.1944588 21.9351903 107.451912 9.56960321 104.34088 28.9277181 122.287911 20.9209259 114.258167 38.8164288 133.672038 35.7141407 121.270887 50.9278148 140.828277 52.9415346 124.900721 64.4357656 143.269231 71.4285735 124.900721 78.4213813 140.828277 89.9156124 121.270887 91.9293322 133.672038 107.14271 114.258167 104.040718 122.287911 121.936225 104.34088 113.929429 107.451912 133.28754 92.1944588 120.921957 90.1750162 140.423247 78.6475024 124.541485 71.634601 142.857143 64.6217327 124.541485 53.0942355 140.423247 51.0747681 120.921957 35.8173151 133.28754 38.9283717 113.929429 20.9813281 121.936225 29.0110847 104.040718 9.59719673 107.14271 21.9983443 91.9293322 2.44093776 89.9156124 18.368518 78.4213813 0 71.4285735"></polygon>
                    </g>
                </g>
            </g>
        </g>
    </g>
</svg>