<?xml version="1.0" encoding="UTF-8"?>
<svg width="113px" height="120px" viewBox="0 0 113 120" version="1.1" xmlns="http://www.w3.org/2000/svg" xmlns:xlink="http://www.w3.org/1999/xlink">
    <title>Group 16</title>
    <g id="Page-1" stroke="none" stroke-width="1" fill="none" fill-rule="evenodd">
        <g id="HOMEPAGE-v1.6-Copy" transform="translate(-925.000000, -2368.000000)">
            <g id="Group-16" transform="translate(925.000000, 2368.000000)">
                <g id="noun_shape_2901857" opacity="0.606910342" transform="translate(6.000000, 0.000000)" fill="#9F75FF">
                    <path d="M53.6007379,0 C50.6311001,0 47.6585966,0.770869491 45,2.31297315 C39.682803,5.39716128 36.3059725,11.1057759 36.3059725,17.2741713 L36.3059725,26.1436713 C36.3059725,26.8324693 35.9443821,27.4637251 35.3544741,27.8081145 C34.764547,28.1525231 34.0488934,28.1525231 33.4589663,27.8081145 L25.7910413,23.2646428 C20.4738456,20.1804547 13.9142286,20.1777484 8.59701377,23.2608041 C3.27981807,26.3450114 0,32.0536068 0,38.2220022 C0,44.3903977 3.27981807,50.0990123 8.59701377,53.1832004 L16.4850796,57.8353842 C17.0750067,58.1797736 17.436578,58.8110294 17.436578,59.4998274 C17.436578,60.1886254 17.0712622,60.819862 16.4813542,61.1642706 L8.57836781,65.7789503 C3.261153,68.8631384 0,74.6092572 0,80.7776526 C0,86.946048 3.28354344,92.6546434 8.60075825,95.7388508 C13.917954,98.8230581 20.4738456,98.8230389 25.7910413,95.7388508 L33.5708994,91.1916363 C34.1608265,90.8472277 34.8802437,90.8472277 35.4701517,91.1916363 C36.0600979,91.5360257 36.3059916,92.1635195 36.3059725,92.8523175 L36.3059725,101.725675 C36.3059725,107.894071 39.6865284,113.602685 45.0037241,116.686874 C47.6406957,118.216425 50.5540517,118.98739 53.5,119 C56.4942826,119.013263 59.5212529,118.24153 62.2014961,116.686874 C67.5186919,113.602685 70.7947654,107.894071 70.7947654,101.725675 L70.6940275,92.8561754 C70.6863858,92.1674158 70.9436657,91.5361216 71.5335737,91.1917323 C72.1235008,90.8473237 72.8391735,90.8473237 73.4291006,91.1917323 L81.2089587,95.7314421 C86.5261544,98.8156494 93.0857714,98.8156494 98.4029862,95.7314421 C103.720182,92.6472539 107,86.9386393 107,80.7702439 C107,74.6018485 103.720182,68.8969958 98.4029862,65.8127885 L90.5149204,61.1606046 C89.9249933,60.8162152 89.563422,60.1887214 89.563422,59.4999234 C89.563422,58.8111254 89.9287378,58.1798888 90.5186458,57.8354802 L98.4253576,53.2208005 C103.742611,50.1366124 107,44.3904936 107,38.2220982 C107,32.0537028 103.720182,26.3451074 98.4029862,23.2609 C93.0857714,20.1766927 86.5261544,20.179399 81.2089587,23.2647388 L73.5410337,27.8082105 C72.9511066,28.1526191 72.235453,28.1526191 71.6455259,27.8082105 C71.0527714,27.4628038 70.6940275,26.8324693 70.6940275,26.1436713 L70.6940275,17.2741713 C70.6940275,11.1057759 67.5149665,5.39716128 62.1977517,2.31297315 C59.5391538,0.770869491 56.5703948,0 53.6007379,0 Z" id="Path" style="mix-blend-mode: multiply;"></path>
                </g>
                <g id="noun_shape_2901857-copy" opacity="0.606910342" transform="translate(0.000000, 1.000000)" fill="#F6F0DE">
                    <path d="M53.6007379,0 C50.6311001,0 47.6585966,0.770869491 45,2.31297315 C39.682803,5.39716128 36.3059725,11.1057759 36.3059725,17.2741713 L36.3059725,26.1436713 C36.3059725,26.8324693 35.9443821,27.4637251 35.3544741,27.8081145 C34.764547,28.1525231 34.0488934,28.1525231 33.4589663,27.8081145 L25.7910413,23.2646428 C20.4738456,20.1804547 13.9142286,20.1777484 8.59701377,23.2608041 C3.27981807,26.3450114 0,32.0536068 0,38.2220022 C0,44.3903977 3.27981807,50.0990123 8.59701377,53.1832004 L16.4850796,57.8353842 C17.0750067,58.1797736 17.436578,58.8110294 17.436578,59.4998274 C17.436578,60.1886254 17.0712622,60.819862 16.4813542,61.1642706 L8.57836781,65.7789503 C3.261153,68.8631384 0,74.6092572 0,80.7776526 C0,86.946048 3.28354344,92.6546434 8.60075825,95.7388508 C13.917954,98.8230581 20.4738456,98.8230389 25.7910413,95.7388508 L33.5708994,91.1916363 C34.1608265,90.8472277 34.8802437,90.8472277 35.4701517,91.1916363 C36.0600979,91.5360257 36.3059916,92.1635195 36.3059725,92.8523175 L36.3059725,101.725675 C36.3059725,107.894071 39.6865284,113.602685 45.0037241,116.686874 C47.6406957,118.216425 50.5540517,118.98739 53.5,119 C56.4942826,119.013263 59.5212529,118.24153 62.2014961,116.686874 C67.5186919,113.602685 70.7947654,107.894071 70.7947654,101.725675 L70.6940275,92.8561754 C70.6863858,92.1674158 70.9436657,91.5361216 71.5335737,91.1917323 C72.1235008,90.8473237 72.8391735,90.8473237 73.4291006,91.1917323 L81.2089587,95.7314421 C86.5261544,98.8156494 93.0857714,98.8156494 98.4029862,95.7314421 C103.720182,92.6472539 107,86.9386393 107,80.7702439 C107,74.6018485 103.720182,68.8969958 98.4029862,65.8127885 L90.5149204,61.1606046 C89.9249933,60.8162152 89.563422,60.1887214 89.563422,59.4999234 C89.563422,58.8111254 89.9287378,58.1798888 90.5186458,57.8354802 L98.4253576,53.2208005 C103.742611,50.1366124 107,44.3904936 107,38.2220982 C107,32.0537028 103.720182,26.3451074 98.4029862,23.2609 C93.0857714,20.1766927 86.5261544,20.179399 81.2089587,23.2647388 L73.5410337,27.8082105 C72.9511066,28.1526191 72.235453,28.1526191 71.6455259,27.8082105 C71.0527714,27.4628038 70.6940275,26.8324693 70.6940275,26.1436713 L70.6940275,17.2741713 C70.6940275,11.1057759 67.5149665,5.39716128 62.1977517,2.31297315 C59.5391538,0.770869491 56.5703948,0 53.6007379,0 Z" id="Path" opacity="0.631812686" style="mix-blend-mode: multiply;"></path>
                </g>
                <g id="Inbox-2" transform="translate(22.000000, 23.000000)" fill="#202A30" fill-rule="nonzero">
                    <path d="M33.3456292,0.714491739 C33.711661,1.22028481 33.886031,1.84060556 33.8373949,2.46394578 C33.8373949,3.67753101 33.8060056,4.89636986 33.8373949,6.14147679 C33.905405,9.07824798 33.9943413,12.0150192 34.0832777,14.9517904 C34.121679,15.7046863 34.0866351,16.4595491 33.9786467,17.2055915 C33.8922313,17.8708638 33.8555079,18.5416969 33.8687841,19.2124727 C33.8217002,21.6921793 33.7746163,24.1666324 33.7536901,26.6410854 C33.7327639,29.1155384 33.7536901,31.5111871 33.7536901,33.9436112 C33.7536901,35.750855 33.7536901,37.5528452 33.7536901,39.360089 C33.7655143,39.6949793 33.7374132,40.0300878 33.6699853,40.358276 C33.5755565,40.6271063 33.5646109,40.9183886 33.638596,41.1936009 C33.7903109,41.6664263 33.4816495,41.9606288 33.0631255,42.1655198 C31.9854263,41.3196877 30.9705058,40.4791092 29.887575,39.675306 C27.4182837,37.8102724 24.9228346,35.9662533 22.4535432,34.1012197 C21.1194981,33.0872719 19.8377685,31.9997734 18.4827972,31.0226009 C17.6736446,30.4235124 16.8141815,29.8961672 15.9141064,29.4465162 C14.752922,28.8327536 13.3201766,29.150264 12.5240624,30.1977832 C12.1952972,30.5321529 12.0322473,30.9963973 12.0793807,31.4639046 C12.1212331,31.8421649 12.2049379,32.209918 12.2415587,32.5829247 C12.2696938,32.8781413 12.4102585,33.151046 12.6339249,33.344699 C13.8999599,34.5004945 15.1032163,35.7298406 16.4320298,36.8120854 C18.0799679,38.157011 19.8168423,39.402118 21.5380221,40.6577321 C22.6209528,41.4405209 23.7718937,42.1339981 24.860056,42.9115333 C26.5916989,44.1566402 28.297184,45.4385224 30.0183638,46.7046438 C31.7395435,47.9707652 33.3927131,49.1580824 35.0563459,50.434711 C35.6121768,50.9116916 36.4309567,50.9116916 36.9867876,50.434711 C39.9949286,48.4120689 43.0344588,46.4892456 46.0425997,44.5349005 C47.130762,43.830916 48.187535,43.0849026 49.2756973,42.3861717 C51.891472,40.7155219 54.5072467,39.086901 57.0916322,37.3847295 C58.3525956,36.6367517 59.5099962,35.7252962 60.5339917,34.6738638 C60.8474912,34.3395945 61.1229712,33.9713258 61.355345,33.5758581 C61.7343353,32.8211283 61.7285117,31.9293658 61.3396968,31.1796925 C60.950882,30.4300192 60.2265861,29.9140394 59.3935139,29.7932548 C58.0516683,29.6412016 56.7004241,29.9827707 55.5901775,30.7546665 C54.2822901,31.5794841 52.9744028,32.3832874 51.7031362,33.2816556 C50.1702922,34.3691541 48.7002268,35.5512176 47.1987722,36.6912522 C46.4663552,37.2271211 45.7077806,37.7577362 44.9962898,38.3513948 C43.6203923,39.4441469 42.2601895,40.5579134 40.8895235,41.6559191 C40.763686,41.7623553 40.6225936,41.8491389 40.4709996,41.9133463 C40.2793752,42.0053228 40.0530357,41.9849077 39.8807996,41.860112 C39.7085636,41.7353162 39.6179109,41.5260507 39.6444147,41.3144341 C39.9844655,37.1115415 39.8536767,32.8561128 39.8327505,28.6269521 C39.8327505,25.3592031 39.6705725,22.0914541 39.6130254,18.8184515 C39.5816362,16.9324035 39.6130254,15.0411018 39.6130254,13.1498002 C39.6130254,11.8521571 39.5397838,10.554514 39.5083945,9.26212453 C39.5083945,8.96792205 39.5083945,8.67371957 39.5083945,8.37951709 C39.5083945,6.75614983 39.4508474,5.12752895 39.4351528,3.50416169 C39.4351528,2.7056121 39.4351528,1.92807697 39.4351528,1.10851292 C39.3854619,0.697648931 39.5307455,0.28719372 39.827519,0 C40.4712055,0.114851787 41.076758,0.387326926 41.5905511,0.793295975 C42.4956092,1.46050517 43.3902042,2.15923606 44.3057253,2.82119165 C45.8751901,3.94546541 47.4132657,5.09075364 49.0141198,6.15723763 C51.6979047,7.94346698 54.4130788,9.67190656 57.1177899,11.4108534 C57.8188175,11.8679179 58.5093821,12.3354897 59.2104097,12.8083151 C60.6281596,13.7749804 62.0302149,14.7574066 63.4584279,15.7030574 C65.6788034,17.1297772 67.7785079,18.7375548 69.7362872,20.5101158 C72.1539257,22.6394211 73.5997817,25.6685969 73.7384225,28.8948865 C73.9947685,33.9698793 74,39.0501257 74,44.1303721 C74,48.6239648 73.9825615,53.1175574 73.9476845,57.6111501 C73.9476845,59.3290824 73.8639797,61.0522684 73.7541172,62.7702007 C73.6955431,63.9876015 73.4393102,65.1872156 72.9955425,66.321645 C72.8490591,66.6683836 72.7758174,67.0413903 72.6397971,67.3723681 C72.5324099,67.6978283 72.3847729,68.0084678 72.200347,68.2970045 C71.086027,69.8730892 69.8409182,71.3441016 68.0569598,72.2319627 C67.3929386,72.5946954 66.6603489,72.8130724 65.906793,72.8729038 C64.4105699,72.9359472 62.9091152,73.0094978 61.4076605,72.9989905 C59.4824503,72.9989905 57.5624716,72.8729038 55.6529561,72.8203676 C52.6029627,72.7415634 49.5529694,72.67852 46.5029761,72.5997158 C45.6659282,72.5997158 44.8341118,72.4998971 43.9970639,72.4841362 C41.9044441,72.4421073 39.8118243,72.414088 37.7192045,72.4000784 C36.0503403,72.4000784 34.3762444,72.4000784 32.7073802,72.4000784 C29.4062725,72.4000784 26.0999332,72.3265277 22.8040571,72.4316001 C20.3818497,72.5051507 17.9596423,72.6154766 15.5322033,72.5892085 C14.4492726,72.5892085 13.3611103,72.5209115 12.2781796,72.4998971 C11.7550246,72.4998971 11.2004804,72.5314187 10.6616308,72.5261651 C9.65888598,72.4768942 8.67256313,72.251057 7.74765773,71.8589559 C4.81137287,70.8103264 2.40524148,68.6413373 1.05127443,65.8225515 C0.802783717,65.3292715 0.643369187,64.7956484 0.580434984,64.2464667 C0.345151006,62.8399494 0.219213671,61.4171785 0.203763423,59.991038 C0.303162863,58.10499 0.397330753,56.2189419 0.413025401,54.3276402 C0.413025401,50.8707611 0.433951599,47.3823603 0.350246808,43.9044666 C0.292699764,41.7714987 0.266542016,39.6385307 0.151447928,37.5055627 C0.0677431372,36.0030286 0.151447928,34.4899873 0.151447928,32.9769459 C0.151447928,31.6775516 0.111339383,30.3781573 0.031122291,29.0787631 C-0.0435011997,27.9059768 0.0161803312,26.7284645 0.208994972,25.5693478 C0.492755948,24.025687 1.26087106,22.613684 2.40101419,21.5398245 C4.01325326,20.0826055 5.70758295,18.7196704 7.47561716,17.4577651 C8.20280254,16.9008818 9.045082,16.4648317 9.78273047,15.955231 C10.3738956,15.5559562 10.9441344,15.1356669 11.5248364,14.7206313 C11.714969,14.5550045 11.9198617,14.4072816 12.1369277,14.2793276 C13.6750033,13.5805967 14.9253436,12.4510693 16.3221673,11.5159257 C17.8916321,10.4652025 19.4977178,9.49853724 21.0724142,8.47408217 C22.4692379,7.56520665 23.8451354,6.60904859 25.2576538,5.69491945 C26.7224876,4.72825416 28.2553316,3.75633525 29.7410916,2.7739091 C30.2642466,2.43242408 30.7874015,2.08043183 31.2843987,1.72318596 C31.9027194,1.26064042 32.601854,0.918508363 33.3456292,0.714491739 Z M26.4138262,10.0921958 C26.3562791,10.1499856 26.2621112,10.2077754 26.2621112,10.2655651 C26.2621112,10.3233549 26.3510476,10.3863983 26.4033631,10.4494417 C26.4556786,10.3916519 26.5498465,10.3338621 26.5446149,10.281326 C26.5393834,10.2287898 26.4609101,10.1552392 26.4138262,10.0921958 Z" id="Shape"></path>
                </g>
            </g>
        </g>
    </g>
</svg>