<?xml version="1.0" encoding="UTF-8"?>
<svg width="140px" height="126px" viewBox="0 0 140 126" version="1.1" xmlns="http://www.w3.org/2000/svg" xmlns:xlink="http://www.w3.org/1999/xlink">
    <title>Group 4</title>
    <g id="Page-1" stroke="none" stroke-width="1" fill="none" fill-rule="evenodd">
        <g id="HOMEPAGE-v1.6-Copy" transform="translate(-399.000000, -1269.000000)">
            <g id="noun_shape_2901834-(1)" transform="translate(399.000000, 1269.000000)">
                <path d="M67.8817626,0.086022606 C60.1366273,0.0752052115 52.3926518,2.49923783 45.8568333,7.36144555 C32.7851964,17.0858395 27.685262,34.4433886 33.2524104,49.7672835 C33.4772086,50.3740718 33.4227714,51.0465815 33.0999898,51.6073283 C32.7772732,52.1680751 32.2254749,52.5535516 31.5884744,52.6630223 C15.4115003,55.338031 2.82102412,68.4240943 0.888214696,84.7281456 C-1.04459469,101.032197 8.03135403,116.679103 23.1333062,123.072315 C38.2352807,129.465571 55.8133674,124.987924 66.1458478,112.239791 C66.5578767,111.728885 67.1709038,111.434957 67.8267207,111.434241 C68.4825158,111.433524 69.1029914,111.725492 69.5160608,112.235552 C79.855955,124.978214 97.4511997,129.466209 112.549771,123.063836 C127.648364,116.661464 136.712501,101.010194 134.769459,84.7069461 C132.826418,68.4036112 120.248364,55.3274812 104.069201,52.6630223 C103.430748,52.5551363 102.877447,52.1686612 102.553451,51.6073283 C102.229456,51.0459954 102.171585,50.3751138 102.396795,49.7672835 C108.007648,34.4593436 102.933621,17.1825542 89.8897529,7.42080196 C83.3678299,2.53990413 75.6268741,0.0971296899 67.8817626,0.086022606 Z" id="Path" fill="#EADF32"></path>
                <path d="M72.3617626,0.086022606 C64.6166273,0.0752052115 56.8726518,2.49923783 50.3368333,7.36144555 C37.2651964,17.0858395 32.165262,34.4433886 37.7324104,49.7672835 C37.9572086,50.3740718 37.9027714,51.0465815 37.5799898,51.6073283 C37.2572732,52.1680751 36.7054749,52.5535516 36.0684744,52.6630223 C19.8915003,55.338031 7.30102412,68.4240943 5.3682147,84.7281456 C3.43540531,101.032197 12.511354,116.679103 27.6133062,123.072315 C42.7152807,129.465571 60.2933674,124.987924 70.6258478,112.239791 C71.0378767,111.728885 71.6509038,111.434957 72.3067207,111.434241 C72.9625158,111.433524 73.5829914,111.725492 73.9960608,112.235552 C84.335955,124.978214 101.9312,129.466209 117.029771,123.063836 C132.128364,116.661464 141.192501,101.010194 139.249459,84.7069461 C137.306418,68.4036112 124.728364,55.3274812 108.549201,52.6630223 C107.910748,52.5551363 107.357447,52.1686612 107.033451,51.6073283 C106.709456,51.0459954 106.651585,50.3751138 106.876795,49.7672835 C112.487648,34.4593436 107.413621,17.1825542 94.3697529,7.42080196 C87.8478299,2.53990413 80.1068741,0.0971296899 72.3617626,0.086022606 Z" id="Path-Copy" fill="#F6F0DE" style="mix-blend-mode: multiply;"></path>
            </g>
        </g>
    </g>
</svg>