<?xml version="1.0" encoding="UTF-8"?>
<svg width="165px" height="168px" viewBox="0 0 165 168" version="1.1" xmlns="http://www.w3.org/2000/svg" xmlns:xlink="http://www.w3.org/1999/xlink">
    <title>Group 10</title>
    <g id="Page-1" stroke="none" stroke-width="1" fill="none" fill-rule="evenodd">
        <g id="HOMEPAGE-v1.6-Copy" transform="translate(-388.000000, -1477.000000)">
            <g id="Group-10" transform="translate(388.000000, 1477.000000)">
                <g id="Group-5">
                    <polygon id="Path-3-Copy-2" fill="#4DC3C5" style="mix-blend-mode: multiply;" points="90.0842437 51.2493471 128.108113 14.6258295 109.096178 62.6026801 158 57.8174063 116.493666 83.7950271 158 108.397637 109.096178 104.887908 128.108113 151.683614 90.0842437 120.020949 79.9843691 168 67.1764097 120.020949 31.2225652 151.683614 49.2798551 104.887908 -4.38538095e-15 111.481083 41.5442138 83.7950271 0 62.6026801 49.2798551 62.6026801 28.6040038 18.3809101 67.1764097 51.2493471 79 0"></polygon>
                    <polygon id="Path-3-Copy-3" fill="#F6F0DE" style="mix-blend-mode: multiply;" points="97.0842437 51.2493471 135.108113 14.6258295 116.096178 62.6026801 165 57.8174063 123.493666 83.7950271 165 108.397637 116.096178 104.887908 135.108113 151.683614 97.0842437 120.020949 86.9843691 168 74.1764097 120.020949 38.2225652 151.683614 56.2798551 104.887908 7 111.481083 48.5442138 83.7950271 7 62.6026801 56.2798551 62.6026801 35.6040038 18.3809101 74.1764097 51.2493471 86 0"></polygon>
                </g>
                <g id="Asset-6" transform="translate(66.541667, 70.000000)" fill="#202A30" fill-rule="nonzero">
                    <path d="M15.7553119,24.3889139 C15.6109015,24.6295369 15.5233466,24.9005674 15.4994519,25.1809413 C15.448686,25.4702571 15.387767,25.7595728 15.3126335,26.0447847 C15.0944955,26.8074711 14.6351794,27.4769897 14.0049046,27.9509855 C13.5726208,28.2740536 13.0617198,28.4726102 12.5266024,28.5255132 C11.6746631,28.6440717 10.8173021,28.7187201 9.95784929,28.7491686 C8.8557285,28.818153 7.74972847,28.7115196 6.68040457,28.4331784 C5.61838252,28.1294995 4.87110888,27.4872596 4.57260555,26.3484637 C4.35126635,25.5112948 4.47716571,24.725423 4.73099508,23.9395512 C4.8820557,23.4718398 5.09957571,23.0287913 5.37673697,22.6242931 C5.84581363,21.9369118 6.2803695,21.2249078 6.76162997,20.5477859 C7.33020774,19.7516547 7.93939821,18.9863018 8.52422106,18.2024818 C9.10904391,17.4186619 9.64716215,16.6779316 10.2116787,15.9166824 C10.6482652,15.3257396 11.0848517,14.7347969 11.5315913,14.1520617 C12.0879853,13.4297983 12.6497943,12.7116387 13.2170183,11.9975828 C13.596747,11.5215456 14.1287734,11.2732676 14.6790754,11.0639754 C15.6943929,10.9162397 16.6508219,10.9921594 17.5057192,11.6364512 C17.86887,11.9125394 18.1987312,12.2307018 18.4885465,12.5844218 C18.7606516,12.8983602 19.0327566,13.2307655 19.2886166,13.5672746 C19.5444766,13.9037836 19.7678465,14.2259295 19.9932469,14.5644905 C20.7141223,15.6519893 21.4349977,16.74154 22.1457199,17.8351945 C22.5274793,18.4220335 22.884871,19.0273394 23.2625691,19.6162303 C23.5732563,20.0963713 23.9062804,20.5600972 24.2129062,21.0525495 C24.7124424,21.8363695 25.2119786,22.6222413 25.6891778,23.4204244 C25.9964461,23.9410798 26.2301991,24.5025707 26.3836549,25.0886065 C26.6393747,26.1854817 26.2260962,27.331069 25.3317861,28.0043345 C24.6273102,28.5096698 23.8080527,28.8272519 22.9498513,28.9276826 C22.6440735,28.9673879 22.3362241,28.9886285 22.0279431,28.991291 C21.2828611,29.0133541 20.5371412,28.9934885 19.7942447,28.9317864 C19.2301112,28.8704735 18.6735805,28.7515403 18.1331854,28.5768103 C17.7938004,28.4571951 17.4879947,28.2565877 17.2417367,27.9920232 C16.6409969,27.4306819 16.2315529,26.6915729 16.072091,25.880634 C15.9786817,25.3717666 15.8609049,24.8793143 15.7553119,24.3889139 Z" id="Path"></path>
                    <path d="M16.4583333,6.20788263 C16.4637447,5.39032756 16.5730327,4.57655892 16.7837109,3.78509145 C17.0203933,2.92355577 17.4299577,2.11608628 17.9888132,1.409193 C18.2284248,1.09994945 18.5101934,0.823874155 18.8263592,0.588570181 C19.2280599,0.295490603 19.6598882,0.00241102504 20.2082098,0.00241102504 C20.771432,-0.0224480882 21.3257902,0.145557528 21.7748427,0.477199942 C22.7790945,1.21576048 23.2209653,2.23567741 23.3816456,3.40799572 C23.5046338,4.33686535 23.4795674,5.27863362 23.307331,6.20006717 C23.1734847,7.01733817 22.9070517,7.80874233 22.517989,8.54470379 C22.1999424,9.19580059 21.7285846,9.76478547 21.142164,10.2054881 C20.8321056,10.4503434 20.4953351,10.6613235 20.1379121,10.8346322 C19.5055224,11.1018866 18.7774495,11.0424363 18.199706,10.6763693 C17.7959962,10.4189727 17.4717852,10.0596835 17.2617348,9.63691369 C16.8277672,8.86268094 16.5753529,8.00459926 16.5226055,7.12424477 C16.4964949,6.76668769 16.4723929,6.4091306 16.4583333,6.20788263 Z" id="Path"></path>
                    <path d="M21.4641758,14.5752884 C21.4397388,14.0929442 21.4920647,13.6097756 21.6191885,13.1439282 C21.7155291,12.7483596 21.8319399,12.3579768 21.9679669,11.9743025 C22.3962913,10.97644 22.9184391,10.0521903 23.7220572,9.30174862 C24.0667563,8.97867018 24.3523059,8.59220294 24.7072032,8.27934851 C25.1769917,7.82751035 25.7316287,7.4737297 26.3389151,7.2385452 C26.9545719,7.0108812 27.618047,6.94471776 28.2663748,7.04633398 C28.8686008,7.12795324 29.4267484,7.40773309 29.8532146,7.84176126 C29.9349601,7.9211722 30.0037834,8.01293888 30.0571786,8.11371969 C30.3450723,8.66516416 30.4822929,9.28316087 30.4549084,9.90496468 C30.4026522,10.5394048 30.2654441,11.1639054 30.0469804,11.7616433 C29.6920831,12.726789 29.1107857,13.5467539 28.4784974,14.3421811 C27.9363835,14.9932672 27.3125131,15.5712919 26.6224251,16.0618581 C26.4725491,16.1592075 26.3172873,16.247958 26.1573872,16.3276822 C25.5166724,16.6856655 24.8090778,16.9070437 24.0789942,16.9779286 C23.6564275,17.0303317 23.2275383,16.9891491 22.822576,16.8572854 C22.208118,16.6453392 21.7512165,16.1235114 21.6212281,15.4852245 C21.55307,15.1848687 21.5006474,14.8811408 21.4641758,14.5752884 L21.4641758,14.5752884 Z" id="Path"></path>
                    <path d="M9.28566734,0.00159415719 C9.60527967,0.00982253089 9.91830609,0.0882204325 10.1993298,0.23042219 C10.9098229,0.511771717 11.5444358,0.936754935 12.0573293,1.47467462 C12.5321018,1.97022103 12.9492641,2.51125597 13.3018383,3.08872949 C13.5742784,3.58030964 13.794433,4.09558912 13.9591495,4.62718938 C14.1147131,5.1257076 14.2396022,5.63444135 14.3754465,6.13908889 C14.455577,6.42212143 14.4778754,6.71668708 14.4411776,7.00740954 C14.4148881,7.29837743 14.4148881,7.59089164 14.4411776,7.88185953 C14.4427538,8.32200401 14.3588724,8.75877948 14.1935904,9.17106032 C14.0417179,9.60693268 13.793961,10.0084506 13.4661661,10.3499333 C12.9681159,10.9037732 12.1655803,11.1299631 11.4219285,10.9260896 C10.7238728,10.7644047 10.0771841,10.4499342 9.53544557,10.0087344 C9.41712957,9.91270831 9.30319564,9.80442362 9.18049756,9.71861311 C8.37800162,9.078001 7.76475939,8.25646647 7.3991844,7.33226363 C7.06496231,6.54451206 6.8082836,5.73004217 6.63232141,4.89892267 C6.5665903,4.59654277 6.52934267,4.28599044 6.48113985,3.98361054 C6.46295529,3.88788645 6.45561148,3.79064511 6.45922948,3.69348929 C6.49866815,3.19088486 6.47675778,2.67193557 6.65204075,2.19793465 C6.86238031,1.61156281 7.05300054,1.0313203 7.57884944,0.590009098 C8.04183751,0.190935897 8.65563201,-0.0206659688 9.28566734,0.00159415719 L9.28566734,0.00159415719 Z" id="Path"></path>
                    <path d="M0.479164029,9.58825583 C0.43248784,9.21887544 0.542643646,8.87398437 0.604256216,8.52501175 C0.633315689,8.41571943 0.676038666,8.31133492 0.73121545,8.21481386 C0.772290497,8.12910128 0.830168971,8.05155181 0.873111065,7.96788001 C1.23718534,7.24748623 1.81783713,6.98626696 2.55345387,7.00055238 C3.27210107,7.03433496 3.96839679,7.28355878 4.56613115,7.72094617 C5.30884469,8.20754642 5.97464649,8.82227835 6.53773338,9.54131799 C7.03504236,10.212871 7.45340807,10.9498898 7.7830541,11.7351517 C8.07325013,12.3942902 8.28351238,13.092004 8.40851504,13.8106205 C8.59521979,14.8779461 8.24421485,15.7677243 7.57207773,16.5207705 C7.30061726,16.8077526 6.94131691,16.9743005 6.56387204,16.9881081 C6.01233158,17.0379882 5.45839651,16.9303944 4.95634409,16.6758694 C4.47197222,16.4644093 4.01699591,16.1800349 3.60460165,15.8309883 C3.06129081,15.324876 2.50304359,14.8330491 2.1109636,14.1677562 C1.86824742,13.7596011 1.59005733,13.3738945 1.36414457,12.9432909 C0.938586219,12.198648 0.661816357,11.3641013 0.551978884,10.4943602 C0.520239076,10.1943662 0.413817365,9.89845371 0.479164029,9.58825583 Z" id="Path"></path>
                </g>
            </g>
        </g>
    </g>
</svg>