<?xml version="1.0" encoding="UTF-8"?>
<svg width="141px" height="126px" viewBox="0 0 141 126" version="1.1" xmlns="http://www.w3.org/2000/svg" xmlns:xlink="http://www.w3.org/1999/xlink">
    <title>Group 11</title>
    <g id="Page-1" stroke="none" stroke-width="1" fill="none" fill-rule="evenodd">
        <g id="HOMEPAGE-v1.6-Copy" transform="translate(-175.000000, -2371.000000)">
            <g id="Group-11" transform="translate(175.000000, 2371.000000)">
                <g id="noun_shape_2901834-(1)">
                    <path d="M67.8817626,0.086022606 C60.1366273,0.0752052115 52.3926518,2.49923783 45.8568333,7.36144555 C32.7851964,17.0858395 27.685262,34.4433886 33.2524104,49.7672835 C33.4772086,50.3740718 33.4227714,51.0465815 33.0999898,51.6073283 C32.7772732,52.1680751 32.2254749,52.5535516 31.5884744,52.6630223 C15.4115003,55.338031 2.82102412,68.4240943 0.888214696,84.7281456 C-1.04459469,101.032197 8.03135403,116.679103 23.1333062,123.072315 C38.2352807,129.465571 55.8133674,124.987924 66.1458478,112.239791 C66.5578767,111.728885 67.1709038,111.434957 67.8267207,111.434241 C68.4825158,111.433524 69.1029914,111.725492 69.5160608,112.235552 C79.855955,124.978214 97.4511997,129.466209 112.549771,123.063836 C127.648364,116.661464 136.712501,101.010194 134.769459,84.7069461 C132.826418,68.4036112 120.248364,55.3274812 104.069201,52.6630223 C103.430748,52.5551363 102.877447,52.1686612 102.553451,51.6073283 C102.229456,51.0459954 102.171585,50.3751138 102.396795,49.7672835 C108.007648,34.4593436 102.933621,17.1825542 89.8897529,7.42080196 C83.3678299,2.53990413 75.6268741,0.0971296899 67.8817626,0.086022606 Z" id="Path" fill="#EADF32"></path>
                    <path d="M72.3617626,0.086022606 C64.6166273,0.0752052115 56.8726518,2.49923783 50.3368333,7.36144555 C37.2651964,17.0858395 32.165262,34.4433886 37.7324104,49.7672835 C37.9572086,50.3740718 37.9027714,51.0465815 37.5799898,51.6073283 C37.2572732,52.1680751 36.7054749,52.5535516 36.0684744,52.6630223 C19.8915003,55.338031 7.30102412,68.4240943 5.3682147,84.7281456 C3.43540531,101.032197 12.511354,116.679103 27.6133062,123.072315 C42.7152807,129.465571 60.2933674,124.987924 70.6258478,112.239791 C71.0378767,111.728885 71.6509038,111.434957 72.3067207,111.434241 C72.9625158,111.433524 73.5829914,111.725492 73.9960608,112.235552 C84.335955,124.978214 101.9312,129.466209 117.029771,123.063836 C132.128364,116.661464 141.192501,101.010194 139.249459,84.7069461 C137.306418,68.4036112 124.728364,55.3274812 108.549201,52.6630223 C107.910748,52.5551363 107.357447,52.1686612 107.033451,51.6073283 C106.709456,51.0459954 106.651585,50.3751138 106.876795,49.7672835 C112.487648,34.4593436 107.413621,17.1825542 94.3697529,7.42080196 C87.8478299,2.53990413 80.1068741,0.0971296899 72.3617626,0.086022606 Z" id="Path-Copy" fill="#F6F0DE" style="mix-blend-mode: multiply;"></path>
                </g>
                <g id="noun_review_3203099-(1)" transform="translate(11.285714, 37.540773)" fill="#202A30" fill-rule="nonzero">
                    <path d="M42.1095012,30.0147529 L29.5960838,28.6350823 C29.326978,28.6350823 29.1924251,28.4971152 29.0578723,28.2211811 L23.8103101,16.4939805 C23.1375458,15.1143098 21.2538055,15.1143098 20.5810411,16.4939805 L15.333479,28.2211811 C15.1989261,28.4971152 15.0643732,28.6350823 14.7952675,28.6350823 L2.2818501,30.0147529 C0.80176847,30.15272 0.129004094,32.0842589 1.33997997,33.1879954 L10.6241284,41.8799206 C10.7586812,42.0178877 10.8932341,42.2938218 10.8932341,42.5697559 L8.33672948,55.262726 C8.06762373,56.7803637 9.68225823,58.0220673 11.027787,57.1942649 L21.9265699,50.8477799 C22.1956756,50.7098128 22.4647814,50.7098128 22.5993343,50.8477799 L33.4981171,57.1942649 C34.8436459,58.0220673 36.4582804,56.7803637 36.1891746,55.262726 L33.63267,42.5697559 C33.63267,42.2938218 33.63267,42.0178877 33.9017758,41.8799206 L43.1859242,33.1879954 C44.2623472,32.222226 43.5895828,30.2906871 42.1095012,30.0147529 Z" id="Path"></path>
                    <path d="M128.148627,33.1879954 C129.224105,32.0842589 128.686366,30.15272 127.207584,30.0147529 L114.705155,28.6350823 C114.436286,28.6350823 114.301851,28.4971152 114.167416,28.2211811 L108.790028,16.4939805 C108.117854,15.1143098 106.235768,15.1143098 105.563595,16.4939805 L100.320641,28.2211811 C100.186206,28.4971152 100.051771,28.6350823 99.782902,28.6350823 L87.2804735,30.0147529 C85.8016916,30.15272 85.1295181,32.0842589 86.3394305,33.1879954 L95.6154258,41.8799206 C95.7498605,42.0178877 95.8842953,42.2938218 95.8842953,42.5697559 L93.3300357,55.262726 C93.0611662,56.7803637 94.6743828,58.0220673 96.01873,57.1942649 L106.907942,50.8477799 C107.176811,50.7098128 107.445681,50.7098128 107.580115,50.8477799 L118.469327,57.1942649 C119.813675,58.0220673 121.426891,56.7803637 121.158022,55.262726 L118.603762,42.5697559 C118.603762,42.2938218 118.603762,42.0178877 118.872631,41.8799206 L128.148627,33.1879954 Z" id="Path"></path>
                    <path d="M85.1468528,18.1879954 C86.2257034,17.0842589 85.6862781,15.15272 84.2028585,15.0147529 L71.66122,13.6350823 C71.3915073,13.6350823 71.256651,13.4971152 71.1217947,13.2211811 L65.8623979,1.49398046 C65.1881162,0.114309803 63.3001276,0.114309803 62.625846,1.49398046 L57.3664492,13.2211811 C57.2315929,13.4971152 57.0967366,13.6350823 56.8270239,13.6350823 L44.2853854,15.0147529 C42.8019658,15.15272 42.1276841,17.0842589 43.3413911,18.1879954 L52.6464777,26.8799206 C52.781334,27.0178877 52.9161904,27.2938218 52.9161904,27.5697559 L50.3539201,40.262726 C50.0842075,41.7803637 51.7024834,43.0220673 53.0510467,42.1942649 L63.9744093,35.8477799 C64.2441219,35.7098128 64.5138346,35.7098128 64.6486909,35.8477799 L75.5720535,42.1942649 C76.9206168,43.0220673 78.5388927,41.7803637 78.2691801,40.262726 L75.5720535,27.5697559 C75.5720535,27.2938218 75.5720535,27.0178877 75.8417662,26.8799206 L85.1468528,18.1879954 Z" id="Path"></path>
                </g>
            </g>
        </g>
    </g>
</svg>