<?xml version="1.0" encoding="UTF-8"?>
<svg width="150px" height="145px" viewBox="0 0 150 145" version="1.1" xmlns="http://www.w3.org/2000/svg" xmlns:xlink="http://www.w3.org/1999/xlink">
    <title>Group 14</title>
    <g id="Page-1" stroke="none" stroke-width="1" fill="none" fill-rule="evenodd">
        <g id="HOMEPAGE-v1.6-Copy" transform="translate(-388.000000, -1035.000000)" fill-rule="nonzero">
            <g id="Group-13" transform="translate(388.000000, 1035.000000)">
                <g id="noun_banners_1567399" transform="translate(5.730769, 0.000000)" fill="#F59223">
                    <polygon id="Path" style="mix-blend-mode: multiply;" points="18.368518 64.4357656 2.44093776 52.9415346 21.9983443 50.9278148 9.59719673 35.7141407 29.0110847 38.8164288 20.9813281 20.9209259 38.9283717 28.9277181 35.8173151 9.56960321 51.0747681 21.9351903 53.0942355 2.43389129 64.6217327 18.3156701 71.634601 0 78.6475024 18.3156701 90.1750162 2.43389129 92.1944588 21.9351903 107.451912 9.56960321 104.34088 28.9277181 122.287911 20.9209259 114.258167 38.8164288 133.672038 35.7141407 121.270887 50.9278148 140.828277 52.9415346 124.900721 64.4357656 143.269231 71.4285735 124.900721 78.4213813 140.828277 89.9156124 121.270887 91.9293322 133.672038 107.14271 114.258167 104.040718 122.287911 121.936225 104.34088 113.929429 107.451912 133.28754 92.1944588 120.921957 90.1750162 140.423247 78.6475024 124.541485 71.634601 142.857143 64.6217327 124.541485 53.0942355 140.423247 51.0747681 120.921957 35.8173151 133.28754 38.9283717 113.929429 20.9813281 121.936225 29.0110847 104.040718 9.59719673 107.14271 21.9983443 91.9293322 2.44093776 89.9156124 18.368518 78.4213813 0 71.4285735"></polygon>
                </g>
                <g id="noun_banners_1567399-copy-3" transform="translate(0.000000, 1.142857)" fill="#F6F0DE">
                    <polygon id="Path" style="mix-blend-mode: multiply;" points="18.368518 64.4357656 2.44093776 52.9415346 21.9983443 50.9278148 9.59719673 35.7141407 29.0110847 38.8164288 20.9813281 20.9209259 38.9283717 28.9277181 35.8173151 9.56960321 51.0747681 21.9351903 53.0942355 2.43389129 64.6217327 18.3156701 71.634601 0 78.6475024 18.3156701 90.1750162 2.43389129 92.1944588 21.9351903 107.451912 9.56960321 104.34088 28.9277181 122.287911 20.9209259 114.258167 38.8164288 133.672038 35.7141407 121.270887 50.9278148 140.828277 52.9415346 124.900721 64.4357656 143.269231 71.4285735 124.900721 78.4213813 140.828277 89.9156124 121.270887 91.9293322 133.672038 107.14271 114.258167 104.040718 122.287911 121.936225 104.34088 113.929429 107.451912 133.28754 92.1944588 120.921957 90.1750162 140.423247 78.6475024 124.541485 71.634601 142.857143 64.6217327 124.541485 53.0942355 140.423247 51.0747681 120.921957 35.8173151 133.28754 38.9283717 113.929429 20.9813281 121.936225 29.0110847 104.040718 9.59719673 107.14271 21.9983443 91.9293322 2.44093776 89.9156124 18.368518 78.4213813 0 71.4285735"></polygon>
                </g>
                <g id="noun_Wrench_3010215" transform="translate(55.015385, 49.142857)" fill="#202A30">
                    <path d="M35.4733383,27.0420032 L20.7861658,12.4886065 C21.5205245,9.10196702 20.4189865,5.53226594 17.9405262,3.06093443 C15.4620658,0.58960292 11.7902727,-0.508766641 8.30206924,0.223479733 C7.93488993,0.31501053 7.75130027,0.498072123 7.56771062,0.86419531 C7.47591579,1.2303185 7.56771062,1.50491089 7.8430951,1.77950328 L12.4328365,6.35604311 L10.5051451,10.474929 L6.37437785,12.3970757 L1.78463646,7.82053586 C1.50925198,7.54594347 1.23386749,7.45441268 0.866688181,7.54594347 C0.49950887,7.63747427 0.315919214,7.91206666 0.224124386,8.27818985 C-0.510234237,11.7563601 0.591303698,15.3260612 3.06976405,17.8889235 C5.5482244,20.360255 9.12822269,21.4586246 12.6164262,20.7263782 L27.2118038,35.2797749 C26.8446245,38.1172296 27.8543676,40.9546843 29.8738538,42.9683618 C31.6179555,44.707447 34.004621,45.7142857 36.4830814,45.7142857 C38.9615418,45.7142857 41.3482073,44.707447 43.092309,42.9683618 C46.7641021,39.3071299 46.7641021,33.3576282 43.092309,29.6963963 C41.1646176,27.7742496 38.318978,26.7674108 35.4733383,27.0420032 Z M41.2243386,36.2293915 L40.7502189,38.372398 L40.0864514,40.5154046 C39.9916274,40.7949271 39.8019796,41.0744497 39.4226838,41.1676239 L37.3365573,41.8198433 L35.1556068,42.2857143 C35.0607829,42.2857143 35.0607829,42.2857143 34.9659589,42.2857143 C34.7763111,42.2857143 34.4918393,42.1925401 34.3021914,42.0061917 L32.6901845,40.5154046 L31.1730016,38.838269 C30.9833537,38.6519206 30.8885298,38.2792238 30.9833537,37.9997013 L31.4574734,35.8566947 L32.1212409,33.7136882 C32.2160649,33.4341656 32.4057127,33.154643 32.7850085,33.154643 L34.871135,32.5024237 L37.0520855,32.0365527 C37.3365573,31.9433785 37.715853,32.0365527 37.9055009,32.2229011 L39.5175078,33.7136882 L41.0346907,35.3908238 C41.2243386,35.5771721 41.3191625,35.9498689 41.2243386,36.2293915 Z" id="Shape" transform="translate(22.923077, 22.857143) scale(-1, 1) translate(-22.923077, -22.857143) "></path>
                </g>
            </g>
        </g>
    </g>
</svg>