<?xml version="1.0" encoding="UTF-8"?>
<svg width="46px" height="25px" viewBox="0 0 46 25" version="1.1" xmlns="http://www.w3.org/2000/svg" xmlns:xlink="http://www.w3.org/1999/xlink">
    <title>noun_Hand drawn arrow_2930274</title>
    <g id="How-it-works" stroke="none" stroke-width="1" fill="none" fill-rule="evenodd">
        <g id="How-it-works-w/-artwork" transform="translate(-301.000000, -8399.000000)" fill="#FFFFFF" fill-rule="nonzero">
            <g id="Group-18-Copy" transform="translate(119.000000, 8075.000000)">
                <g id="Group-22" transform="translate(0.000000, 309.000000)">
                    <g id="noun_Hand-drawn-arrow_2930274" transform="translate(205.000000, 27.500000) scale(-1, 1) rotate(90.000000) translate(-205.000000, -27.500000) translate(192.500000, 4.500000)">
                        <path d="M24.5,27.7047772 C24.3481013,28.0830383 24.1455696,28.3532248 23.8924051,28.6234112 C23.5886076,28.947635 23.2848101,29.2178215 23.0316456,29.5960826 C22.9810127,29.7041572 22.8797468,29.7581945 22.778481,29.8122318 C22.7278481,29.8662691 22.6265823,29.9743437 22.5759494,30.0824183 C22.4240506,30.4606794 22.1202532,30.7308658 21.9177215,31.0550896 C21.664557,31.4333507 21.4620253,31.8116118 21.1582278,32.1358356 C21.1075949,32.1898729 21.056962,32.2979475 21.056962,32.3519848 C20.9556962,32.6762085 20.8037975,32.946395 20.5506329,33.1625442 C20.5,33.2165815 20.4493671,33.2706188 20.3987342,33.3786934 C20.0949367,34.027141 19.6392405,34.567514 19.2848101,35.1619242 C19.0316456,35.5401853 18.7278481,35.8644091 18.5253165,36.2967075 C18.4746835,36.3507448 18.4240506,36.4047821 18.3734177,36.5128567 C18.2721519,36.6209313 18.221519,36.7290059 18.1202532,36.8370805 C17.8670886,37.2153415 17.6139241,37.5936026 17.3101266,37.8637891 C17.1075949,38.2960875 16.8037975,38.566274 16.5,38.8904978 C16.4493671,38.9985723 16.3481013,39.0526096 16.2974684,39.1606842 C16.0949367,39.484908 15.8924051,39.8091318 15.5886076,40.0793183 C15.335443,40.2954675 15.1835443,40.6196913 14.9810127,40.8358405 C14.8797468,40.9439151 14.8291139,41.0519897 14.8291139,41.2141015 C14.778481,41.484288 14.6265823,41.7004372 14.3227848,41.7544745 C14.221519,41.8085118 14.1202532,41.8625491 14.0189873,41.9706237 C13.8670886,42.1867729 13.664557,42.3488848 13.4620253,42.4569594 C13.4113924,42.5109967 13.3101266,42.565034 13.2594937,42.6190713 C13.056962,42.8892578 12.8037975,43.105407 12.5,43.2134815 C12.2468354,43.2675188 11.9936709,43.4296307 11.7911392,43.6457799 C11.6898734,43.7538545 11.5886076,43.8078918 11.4873418,43.9159664 C11.1835443,44.0780783 10.9303797,44.2942275 10.6265823,44.5103767 C10.4746835,44.6184513 10.2721519,44.7805632 10.0696203,44.8346005 C10.0189873,44.8346005 9.91772152,44.8886378 9.91772152,44.8886378 C9.66455696,45.104787 9.36075949,45.1588243 9.05696203,45.3209361 C8.65189873,45.5370853 8.24683544,45.5370853 7.84177215,45.4290107 C7.68987342,45.4290107 7.58860759,45.2668989 7.53797468,45.104787 C7.53797468,45.0507497 7.53797468,44.9967124 7.53797468,44.9967124 C7.63924051,44.7265259 7.68987342,44.5103767 7.94303797,44.3482648 C8.09493671,44.2401902 8.19620253,44.024041 8.34810127,43.8619291 C8.29746835,43.8078918 8.29746835,43.7538545 8.24683544,43.7538545 C8.14556962,43.6998172 8.0443038,43.6998172 7.94303797,43.6457799 C7.74050633,43.5377053 7.48734177,43.6457799 7.33544304,43.4296307 C7.23417722,43.2675188 7.03164557,43.1594443 6.87974684,43.0513697 C6.77848101,42.9973324 6.77848101,42.8892578 6.7278481,42.7811832 C6.7278481,42.6731086 6.7278481,42.6190713 6.77848101,42.5109967 C6.87974684,42.4029221 6.98101266,42.2948475 7.13291139,42.1867729 C7.38607595,41.9706237 7.48734177,41.7004372 7.53797468,41.3762134 C7.53797468,41.2141015 7.53797468,40.9979524 7.58860759,40.8358405 C7.74050633,40.5116167 7.58860759,40.2414302 7.38607595,39.9712437 C7.33544304,39.9172064 7.28481013,39.8091318 7.23417722,39.7550945 C6.82911392,39.2687588 6.52531646,38.7824232 6.12025316,38.2960875 C5.96835443,38.0799383 5.8164557,37.8637891 5.66455696,37.6476399 C5.51265823,37.3774534 5.31012658,37.1613042 5.10759494,36.945155 C5.00632911,36.8370805 4.90506329,36.6749686 4.80379747,36.5128567 C4.70253165,36.3507448 4.60126582,36.1886329 4.44936709,36.0805583 C4.44936709,36.0805583 4.39873418,36.026521 4.39873418,36.026521 C4.14556962,35.5942226 3.79113924,35.2699988 3.43670886,34.8917377 C3.1835443,34.567514 2.87974684,34.2973275 2.67721519,33.9190664 C2.2721519,33.5948426 2.01898734,33.1085069 1.66455696,32.7302458 C1.61392405,32.6762085 1.61392405,32.6762085 1.56329114,32.6221713 C1.31012658,32.1898729 0.955696203,31.8656491 0.601265823,31.5414253 C0.550632911,31.3793134 0.5,31.2712388 0.5,31.2172015 C0.5,31.0010523 0.550632911,30.7849031 0.702531646,30.6227912 C0.702531646,30.6227912 0.753164557,30.5687539 0.753164557,30.5687539 C1.10759494,30.4606794 1.25949367,30.1364556 1.56329114,29.9743437 C1.61392405,29.9203064 1.71518987,29.8662691 1.76582278,29.8662691 C2.17088608,29.7041572 2.52531646,29.5960826 2.93037975,29.488008 C2.98101266,29.488008 3.08227848,29.488008 3.1835443,29.5420453 C3.33544304,29.5960826 3.48734177,29.6501199 3.68987342,29.5960826 C3.79113924,29.5960826 3.84177215,29.5960826 3.94303797,29.5960826 C4.34810127,29.5960826 4.70253165,29.7041572 5.10759494,29.7041572 C5.51265823,29.8122318 5.91772152,30.028381 6.17088608,30.4066421 C6.52531646,30.8929777 6.93037975,31.2712388 7.38607595,31.7035372 C7.43670886,31.7575745 7.48734177,31.8116118 7.53797468,31.8116118 C7.58860759,31.8656491 7.63924051,31.8116118 7.63924051,31.7575745 C7.68987342,31.7035372 7.68987342,31.5954626 7.68987342,31.487388 C7.68987342,31.1091269 7.74050633,30.7308658 7.74050633,30.3526048 C7.74050633,29.9743437 7.84177215,29.5960826 7.74050633,29.2178215 C7.74050633,29.1637842 7.74050633,29.1097469 7.74050633,29.0016723 C7.74050633,28.6774485 7.79113924,28.3532248 7.79113924,27.9749637 C7.74050633,27.6507399 7.74050633,27.3265161 7.74050633,26.948255 C7.79113924,26.5159566 7.68987342,26.029621 7.79113924,25.5973226 C7.79113924,25.489248 7.79113924,25.3811734 7.79113924,25.2730988 C7.74050633,24.7327258 7.79113924,24.2463901 7.79113924,23.7060172 C7.79113924,23.5979426 7.79113924,23.5439053 7.84177215,23.4358307 C7.94303797,23.0035323 7.94303797,22.5712339 7.84177215,22.0848983 C7.79113924,21.8147118 7.79113924,21.5445253 7.94303797,21.3283761 C8.0443038,21.1662642 8.0443038,21.0581896 7.99367089,20.8960777 C7.94303797,20.7880031 7.94303797,20.6258912 7.99367089,20.5178166 C8.09493671,20.3016674 8.0443038,20.0855182 7.99367089,19.8693691 C7.94303797,19.7072572 7.94303797,19.5451453 7.99367089,19.4370707 C8.09493671,19.2209215 8.09493671,19.0047723 8.0443038,18.7886231 C7.99367089,18.5184366 8.0443038,18.3022874 8.0443038,18.0321009 C8.0443038,17.2755788 8.0443038,16.5730939 7.99367089,15.8165718 C7.99367089,15.7084972 7.99367089,15.6004226 7.99367089,15.492348 C8.0443038,14.951975 7.94303797,14.411602 7.89240506,13.871229 C7.79113924,13.9252663 7.68987342,13.9252663 7.63924051,13.9793036 C7.58860759,13.9793036 7.58860759,13.9252663 7.53797468,13.9252663 C7.53797468,13.871229 7.48734177,13.8171917 7.48734177,13.8171917 C7.53797468,12.8985577 7.48734177,12.0339609 7.53797468,11.1153269 C7.53797468,10.953215 7.53797468,10.7911031 7.58860759,10.6289912 C7.58860759,10.5209166 7.63924051,10.3588047 7.63924051,10.2507301 C7.63924051,9.81843174 7.63924051,9.33209606 7.63924051,8.89979768 C7.63924051,8.79172308 7.68987342,8.68364849 7.74050633,8.57557389 C7.79113924,8.4674993 7.84177215,8.3594247 7.89240506,8.19731281 C7.94303797,8.08923822 7.94303797,8.03520092 7.89240506,7.92712632 C7.79113924,7.81905173 7.79113924,7.71097714 7.79113924,7.54886524 C7.89240506,7.11656686 7.94303797,6.68426848 7.89240506,6.19793281 C7.89240506,6.08985821 7.94303797,6.03582091 7.94303797,5.92774632 C7.99367089,5.44141064 8.0443038,5.27929875 7.89240506,4.90103767 C7.79113924,4.63085118 7.74050633,4.36066469 7.79113924,4.09047821 C7.79113924,3.98240361 7.79113924,3.87432902 7.79113924,3.76625442 C7.79113924,3.65817983 7.68987342,3.55010523 7.63924051,3.49606794 C7.53797468,3.38799334 7.38607595,3.38799334 7.23417722,3.27991875 C7.13291139,3.22588145 7.08227848,3.06376956 7.13291139,3.00973226 C7.1835443,2.73954577 7.28481013,2.46935928 7.43670886,2.1991728 C7.53797468,1.98302361 7.68987342,1.87494901 7.94303797,1.87494901 C8.44936709,1.82091172 8.9556962,1.82091172 9.46202532,1.65879982 C9.56329114,1.65879982 9.61392405,1.60476253 9.71518987,1.55072523 C10.0189873,1.33457604 10.3227848,1.17246415 10.5759494,0.902277659 C10.6772152,0.794203064 10.8291139,0.686128469 10.9810127,0.578053874 C11.1329114,0.524016577 11.2341772,0.469979279 11.335443,0.686128469 C11.3860759,0.740165766 11.4873418,0.740165766 11.5379747,0.686128469 C11.5886076,0.632091172 11.6392405,0.578053874 11.6898734,0.524016577 C11.7911392,0.524016577 11.8924051,0.469979279 12.0443038,0.524016577 C12.1455696,0.578053874 12.2974684,0.632091172 12.3987342,0.632091172 C12.6012658,0.632091172 12.7531646,0.794203064 12.8544304,0.956314956 C12.9556962,1.11842685 13.0063291,1.33457604 12.9556962,1.55072523 C12.9556962,1.55072523 12.9556962,1.60476253 12.9556962,1.60476253 C12.7531646,2.1991728 12.8037975,2.90165766 12.7025316,3.55010523 C12.7025316,3.60414253 12.7025316,3.65817983 12.7025316,3.65817983 C12.6518987,4.09047821 12.6518987,4.52277659 12.7025316,4.95507497 C12.7025316,5.06314956 12.7025316,5.11718686 12.7025316,5.22526145 C12.6518987,5.33333605 12.7025316,5.44141064 12.7025316,5.54948524 C12.7531646,5.87370902 12.7531646,6.19793281 12.7025316,6.46811929 C12.7025316,6.57619389 12.6518987,6.63023119 12.7025316,6.73830578 C12.7531646,7.22464146 12.6518987,7.65693984 12.7025316,8.14327551 C12.7025316,8.25135011 12.7025316,8.413462 12.7025316,8.5215366 C12.6012658,9.16998417 12.6518987,9.71035714 12.6518987,10.2507301 C12.6518987,10.5749539 12.6518987,10.8991777 12.6518987,11.2774388 C12.6518987,11.4395507 12.6012658,11.6016626 12.5506329,11.7637744 C12.5,11.871849 12.5,11.9799236 12.5506329,12.0879982 C12.6518987,12.412222 12.6012658,12.7364458 12.5,13.0066323 C12.4493671,13.1687442 12.3987342,13.3308561 12.4493671,13.492968 C12.5,13.7091172 12.4493671,13.9252663 12.3987342,14.1414155 C12.3987342,14.411602 12.3987342,14.6817885 12.4493671,14.951975 C12.5,15.1681242 12.5506329,15.4383107 12.5506329,15.6544599 C12.5506329,16.4650193 12.5506329,17.3296161 12.5506329,18.1401755 C12.5506329,18.2482501 12.5506329,18.410362 12.5506329,18.5184366 C12.5506329,18.7886231 12.5506329,19.1128469 12.5506329,19.3830334 C12.5506329,19.7612945 12.5506329,20.0855182 12.4493671,20.4637793 C12.5506329,20.7880031 12.5,21.1662642 12.5,21.5445253 C12.5,21.7606745 12.4493671,21.9227864 12.5,22.1389355 C12.5,22.1929728 12.5,22.2470101 12.5,22.2470101 C12.4493671,22.6252712 12.5,23.0035323 12.5,23.3817934 C12.5,23.7600545 12.5506329,24.1383156 12.5506329,24.5165766 C12.5506329,25.1109869 12.6518987,25.7053972 12.5506329,26.2998075 C12.6012658,26.8401804 12.5506329,27.4345907 12.6012658,27.9749637 C12.6518987,28.4612993 12.6518987,28.947635 12.6012658,29.4339707 C12.6012658,29.5960826 12.6012658,29.8122318 12.6012658,29.9743437 C12.6012658,30.3526048 12.6012658,30.7849031 12.6518987,31.1631642 C12.6518987,31.6494999 12.7025316,32.0817983 12.7531646,32.568134 C12.8037975,33.2706188 12.9050633,33.9731037 12.9050633,34.7296259 C12.9050633,34.7296259 12.9050633,34.7836631 12.9050633,34.7836631 C13.056962,35.3780734 13.0063291,36.026521 13.0063291,36.6749686 C13.0063291,36.7290059 13.0063291,36.7830432 13.0063291,36.7830432 C13.1075949,37.1613042 13.056962,37.5936026 13.056962,37.9718637 C13.056962,38.1880129 13.1075949,38.3501248 13.2088608,38.566274 C13.2594937,38.6743486 13.4113924,38.6743486 13.4620253,38.6203113 C13.5126582,38.566274 13.5126582,38.566274 13.5632911,38.5122367 C13.6139241,38.4041621 13.7151899,38.3501248 13.7658228,38.2420502 C13.9177215,37.9718637 14.1202532,37.7016772 14.3734177,37.485528 C14.6265823,37.1072669 14.9810127,36.7290059 15.1835443,36.2967075 C15.3860759,35.8103718 15.6392405,35.3780734 15.9936709,34.945775 C16.2468354,34.6755886 16.3987342,34.3513648 16.6012658,34.027141 C16.8037975,33.7569545 16.9556962,33.486768 17.1075949,33.2165815 C17.2088608,33.0544696 17.3101266,32.8923577 17.3607595,32.7842831 C17.5126582,32.568134 17.5126582,32.2979475 17.7658228,32.1898729 C17.7658228,32.1898729 17.8164557,32.1358356 17.8164557,32.1358356 C18.0696203,31.5414253 18.5253165,31.1091269 18.8797468,30.5687539 C19.0316456,30.3526048 19.1835443,30.1364556 19.2848101,29.8662691 C19.335443,29.7041572 19.4367089,29.5960826 19.5886076,29.488008 C19.8417722,29.3258961 20.0443038,29.1097469 20.1962025,28.8395604 C20.2974684,28.6774485 20.4493671,28.5153366 20.6518987,28.4072621 C20.8037975,28.3532248 20.9050633,28.1370756 21.056962,28.0830383 C21.2088608,28.0830383 21.3101266,27.9749637 21.4113924,27.8668891 C21.7151899,27.5426653 21.9683544,27.2184415 22.3734177,27.0022923 C22.5253165,26.8942177 22.6265823,26.7861431 22.778481,26.6780685 C22.8291139,26.6240312 22.9303797,26.5699939 22.9810127,26.5699939 C23.1835443,26.5699939 23.2848101,26.5159566 23.4367089,26.407882 C23.6898734,26.2457702 23.8924051,26.3538447 24.0949367,26.4619193 C24.1962025,26.5159566 24.2468354,26.6240312 24.2974684,26.6780685 C24.3481013,26.7321058 24.3481013,26.948255 24.2468354,27.0022923 C24.1455696,27.0563296 24.0443038,27.1103669 23.943038,27.1103669 C23.8417722,27.1644042 23.8417722,27.3265161 23.943038,27.3805534 C24.2468354,27.5426653 24.3481013,27.5967026 24.5,27.7047772 Z M10.1,3.9313446 C10.1,3.9313446 10.1,3.9313446 10.1,3.9313446 C10.1,3.82677316 10.1,3.77448744 10.1,3.66991601 C10.1,3.51305885 10.1,3.30391598 9.9826087,3.14705882 C9.9826087,3.14705882 9.92391304,3.14705882 9.86521739,3.14705882 C9.80652174,3.14705882 9.80652174,3.19934454 9.74782609,3.19934454 C9.74782609,3.19934454 9.68913043,3.25163026 9.68913043,3.25163026 C9.57173913,3.51305885 9.51304348,3.82677316 9.39565217,4.08820175 C9.33695652,4.14048747 9.33695652,4.24505891 9.33695652,4.34963034 C9.33695652,4.5064875 9.39565217,4.66334465 9.39565217,4.82020181 C9.45434783,5.02934468 9.45434783,5.18620184 9.33695652,5.39534471 C9.21956522,5.60448758 9.16086957,5.81363046 9.27826087,6.02277333 C9.33695652,6.12734477 9.33695652,6.28420192 9.33695652,6.38877336 C9.33695652,6.44105908 9.33695652,6.49334479 9.27826087,6.54563051 C9.21956522,6.65020195 9.16086957,6.75477339 9.16086957,6.85934482 C9.16086957,7.01620198 9.16086957,7.22534485 9.10217391,7.382202 C8.98478261,7.90505919 9.04347826,8.42791637 8.98478261,8.95077355 C8.98478261,9.05534499 8.98478261,9.15991643 8.98478261,9.26448786 C9.04347826,9.52591645 9.04347826,9.73505933 8.92608696,9.9442022 C8.8673913,10.0487736 8.92608696,10.2056308 8.92608696,10.3102022 C8.92608696,10.4147737 8.98478261,10.5716308 8.98478261,10.6762023 C9.04347826,10.8853451 9.04347826,11.1467737 8.98478261,11.3559166 C8.92608696,11.5650595 8.92608696,11.8264881 8.92608696,12.0879167 C8.92608696,12.2970595 9.21956522,12.4539167 9.45434783,12.401631 C9.57173913,12.401631 9.68913043,12.3493452 9.80652174,12.2970595 C9.86521739,12.2970595 9.86521739,12.2447738 9.86521739,12.1924881 C9.86521739,12.0879167 9.80652174,12.0356309 9.80652174,11.9310595 C9.68913043,11.6696309 9.63043478,11.3559166 9.68913043,11.0422023 C9.68913043,10.9376308 9.68913043,10.8853451 9.68913043,10.7807737 C9.57173913,10.4147737 9.63043478,9.99648792 9.68913043,9.63048789 C9.74782609,9.15991643 9.86521739,8.74163068 9.74782609,8.27105922 C9.74782609,8.16648778 9.74782609,8.00963062 9.74782609,7.90505919 C9.80652174,7.48677344 9.80652174,7.06848769 9.86521739,6.70248767 C9.92391304,6.28420192 9.86521739,5.86591617 9.9826087,5.39534471 C9.9826087,5.29077327 9.9826087,5.18620184 9.92391304,5.0816304 C9.86521739,4.76791609 9.80652174,4.45420178 9.86521739,4.14048747 C10.1,4.14048747 10.1,4.03591603 10.1,3.9313446 Z M8.95063291,13.7893314 C8.95063291,13.7352941 8.95063291,13.6812568 8.95063291,13.6272195 C8.95063291,13.5731822 8.9,13.5731822 8.9,13.5191449 C8.84936709,13.5731822 8.84936709,13.5731822 8.84936709,13.6272195 C8.84936709,13.6812568 8.84936709,13.7352941 8.84936709,13.8433687 C8.84936709,13.897406 8.9,13.897406 8.9,13.9514433 C8.9,13.897406 8.9,13.897406 8.95063291,13.7893314 C8.95063291,13.8433687 8.95063291,13.7893314 8.95063291,13.7893314 Z M8.9,12.4387834 L8.9,12.4387834 L8.9,12.3847461 L8.9,12.4387834 Z" id="Shape"></path>
                    </g>
                </g>
            </g>
        </g>
    </g>
</svg>