<?xml version="1.0" encoding="UTF-8"?>
<svg width="46px" height="27px" viewBox="0 0 46 27" version="1.1" xmlns="http://www.w3.org/2000/svg" xmlns:xlink="http://www.w3.org/1999/xlink">
    <title>noun_Hand drawn arrow_2930274</title>
    <g id="Page-1" stroke="none" stroke-width="1" fill="none" fill-rule="evenodd">
        <g id="HOMEPAGE-v1.6-Copy" transform="translate(-858.000000, -2876.000000)" fill="#202A30" fill-rule="nonzero">
            <g id="Group-6-Copy-4" transform="translate(680.000000, 2872.000000)">
                <g id="noun_Hand-drawn-arrow_2930274" transform="translate(201.000000, 17.500000) scale(-1, 1) rotate(90.000000) translate(-201.000000, -17.500000) translate(188.000000, -5.000000)">
                    <path d="M25.5,27.1002266 C25.3417722,27.4700819 25.1308017,27.7342642 24.8670886,27.9984465 C24.5506329,28.3154654 24.2341772,28.5796477 23.9704641,28.949503 C23.9177215,29.0551759 23.8122363,29.1080124 23.7067511,29.1608489 C23.6540084,29.2136853 23.5485232,29.3193583 23.4957806,29.4250312 C23.3375527,29.7948865 23.021097,30.0590688 22.8101266,30.3760876 C22.5464135,30.7459429 22.335443,31.1157982 22.0189873,31.432817 C21.9662447,31.4856535 21.9135021,31.5913264 21.9135021,31.6441629 C21.8080169,31.9611817 21.649789,32.225364 21.3860759,32.4367099 C21.3333333,32.4895464 21.2805907,32.5423828 21.2278481,32.6480558 C20.9113924,33.2820934 20.4367089,33.8104581 20.0675105,34.3916592 C19.8037975,34.7615145 19.4873418,35.0785333 19.2763713,35.5012251 C19.2236287,35.5540616 19.1708861,35.606898 19.1181435,35.712571 C19.0126582,35.8182439 18.9599156,35.9239168 18.8544304,36.0295898 C18.5907173,36.3994451 18.3270042,36.7693003 18.0105485,37.0334827 C17.7995781,37.4561744 17.4831224,37.7203568 17.1666667,38.0373756 C17.1139241,38.1430485 17.0084388,38.195885 16.9556962,38.3015579 C16.7447257,38.6185767 16.5337553,38.9355955 16.2172996,39.1997779 C15.9535865,39.4111238 15.7953586,39.7281426 15.5843882,39.9394885 C15.478903,40.0451614 15.4261603,40.1508343 15.4261603,40.3093437 C15.3734177,40.5735261 15.2151899,40.7848719 14.8987342,40.8377084 C14.7932489,40.8905449 14.6877637,40.9433814 14.5822785,41.0490543 C14.4240506,41.2604002 14.2130802,41.4189096 14.0021097,41.5245825 C13.9493671,41.577419 13.8438819,41.6302554 13.7911392,41.6830919 C13.5801688,41.9472743 13.3164557,42.1586201 13,42.2642931 C12.7362869,42.3171295 12.4725738,42.4756389 12.2616034,42.6869848 C12.1561181,42.7926578 12.0506329,42.8454942 11.9451477,42.9511672 C11.628692,43.1096766 11.3649789,43.3210224 11.0485232,43.5323683 C10.8902954,43.6380413 10.6793249,43.7965507 10.4683544,43.8493871 C10.4156118,43.8493871 10.3101266,43.9022236 10.3101266,43.9022236 C10.0464135,44.1135695 9.72995781,44.1664059 9.41350211,44.3249153 C8.99156118,44.5362612 8.56962025,44.5362612 8.14767932,44.4305883 C7.98945148,44.4305883 7.88396624,44.2720789 7.83122363,44.1135695 C7.83122363,44.060733 7.83122363,44.0078965 7.83122363,44.0078965 C7.93670886,43.7437142 7.98945148,43.5323683 8.25316456,43.3738589 C8.41139241,43.268186 8.51687764,43.0568401 8.67510549,42.8983307 C8.62236287,42.8454942 8.62236287,42.7926578 8.56962025,42.7926578 C8.46413502,42.7398213 8.35864979,42.7398213 8.25316456,42.6869848 C8.04219409,42.5813119 7.77848101,42.6869848 7.62025316,42.4756389 C7.51476793,42.3171295 7.30379747,42.2114566 7.14556962,42.1057837 C7.04008439,42.0529472 7.04008439,41.9472743 6.98734177,41.8416013 C6.98734177,41.7359284 6.98734177,41.6830919 7.04008439,41.577419 C7.14556962,41.471746 7.25105485,41.3660731 7.4092827,41.2604002 C7.67299578,41.0490543 7.77848101,40.7848719 7.83122363,40.4678531 C7.83122363,40.3093437 7.83122363,40.0979979 7.88396624,39.9394885 C8.04219409,39.6224696 7.88396624,39.3582873 7.67299578,39.094105 C7.62025316,39.0412685 7.56751055,38.9355955 7.51476793,38.8827591 C7.092827,38.4072309 6.77637131,37.9317026 6.35443038,37.4561744 C6.19620253,37.2448286 6.03797468,37.0334827 5.87974684,36.8221368 C5.72151899,36.5579545 5.51054852,36.3466086 5.29957806,36.1352627 C5.19409283,36.0295898 5.08860759,35.8710804 4.98312236,35.712571 C4.87763713,35.5540616 4.7721519,35.3955522 4.61392405,35.2898792 C4.61392405,35.2898792 4.56118143,35.2370427 4.56118143,35.2370427 C4.29746835,34.814351 3.92827004,34.4973322 3.55907173,34.1274769 C3.29535865,33.8104581 2.97890295,33.5462758 2.76793249,33.1764205 C2.34599156,32.8594017 2.08227848,32.3838734 1.71308017,32.0140182 C1.66033755,31.9611817 1.66033755,31.9611817 1.60759494,31.9083452 C1.34388186,31.4856535 0.974683544,31.1686347 0.605485232,30.8516159 C0.552742616,30.6931064 0.5,30.5874335 0.5,30.534597 C0.5,30.3232512 0.552742616,30.1119053 0.710970464,29.9533959 C0.710970464,29.9533959 0.76371308,29.9005594 0.76371308,29.9005594 C1.13291139,29.7948865 1.29113924,29.4778677 1.60759494,29.3193583 C1.66033755,29.2665218 1.76582278,29.2136853 1.8185654,29.2136853 C2.24050633,29.0551759 2.60970464,28.949503 3.03164557,28.84383 C3.08438819,28.84383 3.18987342,28.84383 3.29535865,28.8966665 C3.4535865,28.949503 3.61181435,29.0023395 3.82278481,28.949503 C3.92827004,28.949503 3.98101266,28.949503 4.08649789,28.949503 C4.50843882,28.949503 4.87763713,29.0551759 5.29957806,29.0551759 C5.72151899,29.1608489 6.14345992,29.3721947 6.407173,29.74205 C6.77637131,30.2175782 7.19831224,30.5874335 7.67299578,31.0101253 C7.7257384,31.0629617 7.77848101,31.1157982 7.83122363,31.1157982 C7.88396624,31.1686347 7.93670886,31.1157982 7.93670886,31.0629617 C7.98945148,31.0101253 7.98945148,30.9044523 7.98945148,30.7987794 C7.98945148,30.4289241 8.04219409,30.0590688 8.04219409,29.6892135 C8.04219409,29.3193583 8.14767932,28.949503 8.04219409,28.5796477 C8.04219409,28.5268112 8.04219409,28.4739748 8.04219409,28.3683018 C8.04219409,28.051283 8.09493671,27.7342642 8.09493671,27.3644089 C8.04219409,27.0473901 8.04219409,26.7303713 8.04219409,26.360516 C8.09493671,25.9378243 7.98945148,25.4622961 8.09493671,25.0396043 C8.09493671,24.9339314 8.09493671,24.8282584 8.09493671,24.7225855 C8.04219409,24.1942208 8.09493671,23.7186926 8.09493671,23.1903279 C8.09493671,23.084655 8.09493671,23.0318185 8.14767932,22.9261456 C8.25316456,22.5034538 8.25316456,22.0807621 8.14767932,21.6052338 C8.09493671,21.3410515 8.09493671,21.0768692 8.25316456,20.8655233 C8.35864979,20.7070139 8.35864979,20.6013409 8.30590717,20.4428315 C8.25316456,20.3371586 8.25316456,20.1786492 8.30590717,20.0729763 C8.41139241,19.8616304 8.35864979,19.6502845 8.30590717,19.4389386 C8.25316456,19.2804292 8.25316456,19.1219198 8.30590717,19.0162469 C8.41139241,18.804901 8.41139241,18.5935551 8.35864979,18.3822093 C8.30590717,18.1180269 8.35864979,17.906681 8.35864979,17.6424987 C8.35864979,16.9027881 8.35864979,16.215914 8.30590717,15.4762035 C8.30590717,15.3705306 8.30590717,15.2648576 8.30590717,15.1591847 C8.35864979,14.63082 8.25316456,14.1024553 8.20042194,13.5740906 C8.09493671,13.6269271 7.98945148,13.6269271 7.93670886,13.6797636 C7.88396624,13.6797636 7.88396624,13.6269271 7.83122363,13.6269271 C7.83122363,13.5740906 7.77848101,13.5212542 7.77848101,13.5212542 C7.83122363,12.6230342 7.77848101,11.7776507 7.83122363,10.8794307 C7.83122363,10.7209213 7.83122363,10.5624119 7.88396624,10.4039025 C7.88396624,10.2982296 7.93670886,10.1397202 7.93670886,10.0340472 C7.93670886,9.61135547 7.93670886,9.13582726 7.93670886,8.71313551 C7.93670886,8.60746257 7.98945148,8.50178963 8.04219409,8.3961167 C8.09493671,8.29044376 8.14767932,8.18477082 8.20042194,8.02626142 C8.25316456,7.92058848 8.25316456,7.86775201 8.20042194,7.76207907 C8.09493671,7.65640614 8.09493671,7.5507332 8.09493671,7.39222379 C8.20042194,6.96953204 8.25316456,6.5468403 8.20042194,6.07131208 C8.20042194,5.96563914 8.25316456,5.91280267 8.25316456,5.80712974 C8.30590717,5.33160152 8.35864979,5.17309211 8.20042194,4.80323683 C8.09493671,4.53905449 8.04219409,4.27487215 8.09493671,4.0106898 C8.09493671,3.90501687 8.09493671,3.79934393 8.09493671,3.69367099 C8.09493671,3.58799805 7.98945148,3.48232512 7.93670886,3.42948865 C7.83122363,3.32381571 7.67299578,3.32381571 7.51476793,3.21814277 C7.4092827,3.1653063 7.35654008,3.0067969 7.4092827,2.95396043 C7.46202532,2.68977809 7.56751055,2.42559574 7.7257384,2.1614134 C7.83122363,1.95006753 7.98945148,1.84439459 8.25316456,1.84439459 C8.78059072,1.79155812 9.30801688,1.79155812 9.83544304,1.63304872 C9.94092827,1.63304872 9.99367089,1.58021225 10.0991561,1.52737578 C10.4156118,1.3160299 10.7320675,1.1575205 10.9957806,0.893338155 C11.1012658,0.787665218 11.2594937,0.681992281 11.4177215,0.576319344 C11.5759494,0.523482875 11.6814346,0.470646406 11.7869198,0.681992281 C11.8396624,0.734828749 11.9451477,0.734828749 11.9978903,0.681992281 C12.0506329,0.629155812 12.1033755,0.576319344 12.1561181,0.523482875 C12.2616034,0.523482875 12.3670886,0.470646406 12.5253165,0.523482875 C12.6308017,0.576319344 12.7890295,0.629155812 12.8945148,0.629155812 C13.1054852,0.629155812 13.2637131,0.787665218 13.3691983,0.946174624 C13.4746835,1.10468403 13.5274262,1.3160299 13.4746835,1.52737578 C13.4746835,1.52737578 13.4746835,1.58021225 13.4746835,1.58021225 C13.2637131,2.1614134 13.3164557,2.84828749 13.2109705,3.48232512 C13.2109705,3.53516159 13.2109705,3.58799805 13.2109705,3.58799805 C13.1582278,4.0106898 13.1582278,4.43338155 13.2109705,4.8560733 C13.2109705,4.96174624 13.2109705,5.01458271 13.2109705,5.12025564 C13.1582278,5.22592858 13.2109705,5.33160152 13.2109705,5.43727445 C13.2637131,5.75429327 13.2637131,6.07131208 13.2109705,6.33549442 C13.2109705,6.44116736 13.1582278,6.49400383 13.2109705,6.59967676 C13.2637131,7.07520498 13.1582278,7.49789673 13.2109705,7.97342495 C13.2109705,8.07909788 13.2109705,8.23760729 13.2109705,8.34328023 C13.1054852,8.97731785 13.1582278,9.50568254 13.1582278,10.0340472 C13.1582278,10.351066 13.1582278,10.6680848 13.1582278,11.0379401 C13.1582278,11.1964495 13.1054852,11.3549589 13.0527426,11.5134683 C13,11.6191413 13,11.7248142 13.0527426,11.8304872 C13.1582278,12.147506 13.1054852,12.4645248 13,12.7287071 C12.9472574,12.8872165 12.8945148,13.0457259 12.9472574,13.2042353 C13,13.4155812 12.9472574,13.6269271 12.8945148,13.838273 C12.8945148,14.1024553 12.8945148,14.3666376 12.9472574,14.63082 C13,14.8421659 13.0527426,15.1063482 13.0527426,15.3176941 C13.0527426,16.1102411 13.0527426,16.9556246 13.0527426,17.7481716 C13.0527426,17.8538446 13.0527426,18.012354 13.0527426,18.1180269 C13.0527426,18.3822093 13.0527426,18.6992281 13.0527426,18.9634104 C13.0527426,19.3332657 13.0527426,19.6502845 12.9472574,20.0201398 C13.0527426,20.3371586 13,20.7070139 13,21.0768692 C13,21.288215 12.9472574,21.4467244 13,21.6580703 C13,21.7109068 13,21.7637433 13,21.7637433 C12.9472574,22.1335985 13,22.5034538 13,22.8733091 C13,23.2431644 13.0527426,23.6130197 13.0527426,23.9828749 C13.0527426,24.5640761 13.1582278,25.1452772 13.0527426,25.7264784 C13.1054852,26.2548431 13.0527426,26.8360442 13.1054852,27.3644089 C13.1582278,27.8399371 13.1582278,28.3154654 13.1054852,28.7909936 C13.1054852,28.949503 13.1054852,29.1608489 13.1054852,29.3193583 C13.1054852,29.6892135 13.1054852,30.1119053 13.1582278,30.4817606 C13.1582278,30.9572888 13.2109705,31.3799805 13.2637131,31.8555088 C13.3164557,32.5423828 13.4219409,33.2292569 13.4219409,33.9689675 C13.4219409,33.9689675 13.4219409,34.021804 13.4219409,34.021804 C13.5801688,34.6030051 13.5274262,35.2370427 13.5274262,35.8710804 C13.5274262,35.9239168 13.5274262,35.9767533 13.5274262,35.9767533 C13.6329114,36.3466086 13.5801688,36.7693003 13.5801688,37.1391556 C13.5801688,37.3505015 13.6329114,37.5090109 13.7383966,37.7203568 C13.7911392,37.8260297 13.9493671,37.8260297 14.0021097,37.7731932 C14.0548523,37.7203568 14.0548523,37.7203568 14.1075949,37.6675203 C14.1603376,37.5618474 14.2658228,37.5090109 14.3185654,37.403338 C14.4767932,37.1391556 14.6877637,36.8749733 14.9514768,36.6636274 C15.2151899,36.2937721 15.5843882,35.9239168 15.7953586,35.5012251 C16.0063291,35.0256969 16.2700422,34.6030051 16.6392405,34.1803134 C16.9029536,33.916131 17.0611814,33.5991122 17.2721519,33.2820934 C17.4831224,33.0179111 17.6413502,32.7537287 17.7995781,32.4895464 C17.9050633,32.331037 18.0105485,32.1725276 18.0632911,32.0668546 C18.221519,31.8555088 18.221519,31.5913264 18.4852321,31.4856535 C18.4852321,31.4856535 18.5379747,31.432817 18.5379747,31.432817 C18.8016878,30.8516159 19.2763713,30.4289241 19.6455696,29.9005594 C19.8037975,29.6892135 19.9620253,29.4778677 20.0675105,29.2136853 C20.1202532,29.0551759 20.2257384,28.949503 20.3839662,28.84383 C20.6476793,28.6853206 20.8586498,28.4739748 21.0168776,28.2097924 C21.1223629,28.051283 21.2805907,27.8927736 21.4915612,27.7871007 C21.649789,27.7342642 21.7552743,27.5229183 21.9135021,27.4700819 C22.07173,27.4700819 22.1772152,27.3644089 22.2827004,27.258736 C22.5991561,26.9417172 22.8628692,26.6246984 23.2848101,26.4133525 C23.443038,26.3076796 23.5485232,26.2020066 23.7067511,26.0963337 C23.7594937,26.0434972 23.8649789,25.9906607 23.9177215,25.9906607 C24.128692,25.9906607 24.2341772,25.9378243 24.3924051,25.8321513 C24.6561181,25.6736419 24.8670886,25.7793149 25.0780591,25.8849878 C25.1835443,25.9378243 25.2362869,26.0434972 25.2890295,26.0963337 C25.3417722,26.1491701 25.3417722,26.360516 25.2362869,26.4133525 C25.1308017,26.466189 25.0253165,26.5190254 24.9198312,26.5190254 C24.814346,26.5718619 24.814346,26.7303713 24.9198312,26.7832078 C25.2362869,26.9417172 25.3417722,26.9945536 25.5,27.1002266 Z M10.5,3.8550925 C10.5,3.8550925 10.5,3.8550925 10.5,3.8550925 C10.5,3.75284487 10.5,3.70172106 10.5,3.59947343 C10.5,3.44610199 10.5,3.24160673 10.3777174,3.08823529 C10.3777174,3.08823529 10.3165761,3.08823529 10.2554348,3.08823529 C10.1942935,3.08823529 10.1942935,3.13935911 10.1331522,3.13935911 C10.1331522,3.13935911 10.0720109,3.19048292 10.0720109,3.19048292 C9.94972826,3.44610199 9.88858696,3.75284487 9.76630435,4.00846394 C9.70516304,4.05958775 9.70516304,4.16183538 9.70516304,4.264083 C9.70516304,4.41745444 9.76630435,4.57082588 9.76630435,4.72419732 C9.82744565,4.92869258 9.82744565,5.08206402 9.70516304,5.28655927 C9.58288043,5.49105453 9.52173913,5.69554978 9.64402174,5.90004503 C9.70516304,6.00229266 9.70516304,6.1556641 9.70516304,6.25791173 C9.70516304,6.30903554 9.70516304,6.36015935 9.64402174,6.41128317 C9.58288043,6.51353079 9.52173913,6.61577842 9.52173913,6.71802605 C9.52173913,6.87139749 9.52173913,7.07589274 9.46059783,7.22926418 C9.33831522,7.74050232 9.39945652,8.25174045 9.33831522,8.76297859 C9.33831522,8.86522621 9.33831522,8.96747384 9.33831522,9.06972147 C9.39945652,9.32534053 9.39945652,9.52983579 9.27717391,9.73433104 C9.21603261,9.83657867 9.27717391,9.98995011 9.27717391,10.0921977 C9.27717391,10.1944454 9.33831522,10.3478168 9.33831522,10.4500644 C9.39945652,10.6545597 9.39945652,10.9101787 9.33831522,11.114674 C9.27717391,11.3191693 9.27717391,11.5747883 9.27717391,11.8304074 C9.27717391,12.0349026 9.58288043,12.1882741 9.82744565,12.1371503 C9.94972826,12.1371503 10.0720109,12.0860265 10.1942935,12.0349026 C10.2554348,12.0349026 10.2554348,11.9837788 10.2554348,11.932655 C10.2554348,11.8304074 10.1942935,11.7792836 10.1942935,11.677036 C10.0720109,11.4214169 10.0108696,11.114674 10.0720109,10.8079311 C10.0720109,10.7056835 10.0720109,10.6545597 10.0720109,10.5523121 C9.94972826,10.1944454 10.0108696,9.78545485 10.0720109,9.42758816 C10.1331522,8.96747384 10.2554348,8.55848333 10.1331522,8.09836901 C10.1331522,7.99612138 10.1331522,7.84274994 10.1331522,7.74050232 C10.1942935,7.33151181 10.1942935,6.9225213 10.2554348,6.56465461 C10.3165761,6.1556641 10.2554348,5.74667359 10.3777174,5.28655927 C10.3777174,5.18431164 10.3777174,5.08206402 10.3165761,4.97981639 C10.2554348,4.67307351 10.1942935,4.36633063 10.2554348,4.05958775 C10.5,4.05958775 10.5,3.95734012 10.5,3.8550925 Z M9.30274262,13.4940129 C9.30274262,13.4411765 9.30274262,13.38834 9.30274262,13.3355035 C9.30274262,13.2826671 9.25,13.2826671 9.25,13.2298306 C9.19725738,13.2826671 9.19725738,13.2826671 9.19725738,13.3355035 C9.19725738,13.38834 9.19725738,13.4411765 9.19725738,13.5468494 C9.19725738,13.5996859 9.25,13.5996859 9.25,13.6525223 C9.25,13.5996859 9.25,13.5996859 9.30274262,13.4940129 C9.30274262,13.5468494 9.30274262,13.4940129 9.30274262,13.4940129 Z M9.25,12.1734771 L9.25,12.1734771 L9.25,12.1206406 L9.25,12.1734771 Z" id="Shape"></path>
                </g>
            </g>
        </g>
    </g>
</svg>