<?xml version="1.0" encoding="UTF-8"?>
<svg width="43px" height="42px" viewBox="0 0 43 42" version="1.1" xmlns="http://www.w3.org/2000/svg" xmlns:xlink="http://www.w3.org/1999/xlink">
    <title>Group 6</title>
    <g id="Page-1" stroke="none" stroke-width="1" fill="none" fill-rule="evenodd">
        <g id="HOMEPAGE-v1.6-Copy" transform="translate(-856.000000, -1718.000000)">
            <g id="Group-8" transform="translate(665.000000, 1718.000000)">
                <g id="Group-6" transform="translate(191.000000, 0.000000)">
                    <polygon id="Path-3-Copy" fill="#9F75FF" points="22.2359842 12.8123368 31.6216227 3.65645738 26.9288035 15.65067 39 14.4543516 28.7547657 20.9487568 39 27.0994092 26.9288035 26.221977 31.6216227 37.9209036 22.2359842 30.0052372 19.7429772 42 16.5815188 30.0052372 7.70683571 37.9209036 12.1640149 26.221977 -1.08246745e-15 27.8702707 10.2545844 20.9487568 0 15.65067 12.1640149 15.65067 7.06048196 4.59522753 16.5815188 12.8123368 19.5 0"></polygon>
                    <polygon id="Path-3-Copy-4" fill="#F6F0DE" style="mix-blend-mode: multiply;" points="26.2359842 12.8123368 35.6216227 3.65645738 30.9288035 15.65067 43 14.4543516 32.7547657 20.9487568 43 27.0994092 30.9288035 26.221977 35.6216227 37.9209036 26.2359842 30.0052372 23.7429772 42 20.5815188 30.0052372 11.7068357 37.9209036 16.1640149 26.221977 4 27.8702707 14.2545844 20.9487568 4 15.65067 16.1640149 15.65067 11.060482 4.59522753 20.5815188 12.8123368 23.5 0"></polygon>
                </g>
            </g>
        </g>
    </g>
</svg>