<?xml version="1.0" encoding="UTF-8"?>
<svg width="48px" height="49px" viewBox="0 0 48 49" version="1.1" xmlns="http://www.w3.org/2000/svg" xmlns:xlink="http://www.w3.org/1999/xlink">
    <title>Google/Black</title>
    <g id="Symbols" stroke="none" stroke-width="1" fill="none" fill-rule="evenodd">
        <g id="Google" fill="#0F0423">
            <path d="M24.3373817,29.3514851 C24.3373817,29.3514851 33.6877556,29.3388713 37.4949896,29.3388713 C35.4333001,35.6290644 32.2275127,39.0544554 24.3373817,39.0544554 C16.3525518,39.0544554 10.1204954,32.5381832 10.1204954,24.5 C10.1204954,16.4618168 16.3525518,9.94554455 24.3373817,9.94554455 C28.5590741,9.94554455 31.2855837,11.4393168 33.7865509,13.5213317 C35.7884813,11.5060248 35.6212521,11.2188168 40.7145119,6.37679208 C36.3908917,2.41506931 30.6443781,0 24.3373817,0 C10.8961591,0 0,10.9689653 0,24.5 C0,38.0307921 10.8961591,49 24.3373817,49 C44.4282518,49 49.3388607,31.3891089 47.7109067,19.6485149 L24.3373817,19.6485149 L24.3373817,29.3514851 Z"></path>
        </g>
    </g>
</svg>