<?xml version="1.0" encoding="UTF-8"?>
<svg width="48px" height="48px" viewBox="0 0 48 48" version="1.1" xmlns="http://www.w3.org/2000/svg" xmlns:xlink="http://www.w3.org/1999/xlink">
    <title>Instagram/Black</title>
    <g id="Instagram/Black" stroke="none" stroke-width="1" fill="none" fill-rule="evenodd">
        <g fill="#0F0423" id="Instagram">
            <path d="M25.8597552,0.000968902378 C29.4671474,0.00525128291 30.8855078,0.0246618928 32.3202305,0.0774357617 L32.5899712,0.0877262898 C32.9964851,0.103761901 33.4151965,0.12252675 33.8951693,0.144426516 C36.4496895,0.260939463 38.1943351,0.666686514 39.720912,1.26001655 C41.2991241,1.87325763 42.6375464,2.69389748 43.9718721,4.02812792 C45.3061025,5.36245363 46.1267424,6.70087587 46.7400787,8.27908805 C47.3333135,9.80566488 47.7390605,11.5503105 47.8555735,14.1048307 C47.962639,16.4513646 47.9947761,17.3336727 47.9993888,22.4849917 L47.9993888,25.5150816 C47.9947761,30.6663273 47.962639,31.5486354 47.8555735,33.8951693 C47.7390605,36.4496895 47.3333135,38.1943351 46.7400787,39.720912 C46.1267424,41.2991241 45.3061025,42.6375464 43.9718721,43.9718721 C42.6375464,45.3061025 41.2991241,46.1267424 39.720912,46.7400787 C38.1943351,47.3333135 36.4496895,47.7390605 33.8951693,47.8555735 C31.5486354,47.962639 30.6663273,47.9947761 25.5150816,47.9993888 L22.4849917,47.9993888 C17.3336727,47.9947761 16.4513646,47.962639 14.1048307,47.8555735 C11.5503105,47.7390605 9.80566488,47.3333135 8.27908805,46.7400787 C6.70087587,46.1267424 5.36245363,45.3061025 4.02812792,43.9718721 C2.69389748,42.6375464 1.87325763,41.2991241 1.26001655,39.720912 C0.666686514,38.1943351 0.260939463,36.4496895 0.144426516,33.8951693 C0.12252675,33.4151965 0.103761901,32.9964851 0.0877262898,32.5899712 L0.0774357617,32.3202305 C0.0246618928,30.8855078 0.00525128291,29.4671474 0.000968902378,25.8597552 L0.000968902378,22.1403133 C0.00525128291,18.5328701 0.0246618928,17.1144967 0.0774357617,15.6797706 L0.0877262898,15.4100294 C0.103761901,15.0035149 0.12252675,14.5848035 0.144426516,14.1048307 C0.260939463,11.5503105 0.666686514,9.80566488 1.26001655,8.27908805 C1.87325763,6.70087587 2.69389748,5.36245363 4.02812792,4.02812792 C5.36245363,2.69389748 6.70087587,1.87325763 8.27908805,1.26001655 C9.80566488,0.666686514 11.5503105,0.260939463 14.1048307,0.144426516 C14.5848035,0.12252675 15.0035149,0.103761901 15.4100294,0.0877262898 L15.6797706,0.0774357617 C17.1144967,0.0246618928 18.5328701,0.00525128291 22.1403133,0.000968902378 Z M24.0000476,4.3243166 C23.8637007,4.3243166 23.7299111,4.32432768 23.5986073,4.32435049 L22.1377108,4.32522794 C17.4101805,4.33055561 16.5634199,4.36108402 14.3019405,4.46426551 C11.9619642,4.57096584 10.6911823,4.96194633 9.84548697,5.29062145 C8.72522879,5.72599689 7.92573848,6.24606572 7.08594973,7.08594973 C6.24606572,7.92573848 5.72599689,8.72522879 5.29062145,9.84548697 C4.96194633,10.6911823 4.57096584,11.9619642 4.46426551,14.3019405 C4.36108402,16.5634199 4.33055561,17.4101805 4.32522794,22.1377108 L4.32435049,23.5986073 L4.32435049,23.5986073 L4.3243166,24.0000476 C4.3243166,24.1363926 4.32432768,24.2701802 4.32435049,24.401482 L4.32522794,25.8623572 C4.33055561,30.5898195 4.36108402,31.4365801 4.46426551,33.6980595 C4.57096584,36.0380358 4.96194633,37.3088177 5.29062145,38.154513 C5.72599689,39.2747712 6.24616099,40.0742615 7.08594973,40.9140503 C7.92573848,41.7539343 8.72522879,42.2740031 9.84548697,42.7093786 C10.6911823,43.0380537 11.9619642,43.4290342 14.3019405,43.5357345 C14.7864885,43.5578448 15.2060784,43.576619 15.61282,43.592524 L15.8826495,43.6027074 C17.227998,43.6515503 18.5592535,43.6696662 21.8064075,43.674348 L22.4819555,43.6751104 C22.598995,43.6752093 22.7183062,43.6752946 22.8399606,43.6753668 L25.1601186,43.6753668 C25.2817715,43.6752946 25.4010813,43.6752093 25.5181194,43.6751104 L26.1936598,43.674348 C30.6313908,43.6679495 31.4907573,43.6364593 33.6980595,43.5357345 C36.0380358,43.4290342 37.3088177,43.0380537 38.154513,42.7093786 C39.2747712,42.2740031 40.0742615,41.7539343 40.9140503,40.9140503 C41.7539343,40.0742615 42.2740031,39.2747712 42.7093786,38.154513 C43.0380537,37.3088177 43.4290342,36.0380358 43.5357345,33.6980595 C43.5578448,33.2134568 43.576619,32.7938156 43.592524,32.387031 L43.6027074,32.1171741 C43.6515503,30.7716949 43.6696662,29.4404111 43.674348,26.1935047 L43.6751104,25.51801 C43.6752093,25.40098 43.6752946,25.2816786 43.6753668,25.1600343 L43.6753668,22.8400439 C43.6752946,22.7183978 43.6752093,22.5990946 43.6751104,22.4820629 L43.674348,21.8065585 C43.6698222,18.6678376 43.6527431,17.3191912 43.6074899,16.0173996 L43.592524,15.6129697 C43.576619,15.2061844 43.5578448,14.7865432 43.5357345,14.3019405 C43.4290342,11.9619642 43.0380537,10.6911823 42.7093786,9.84548697 C42.2740031,8.72522879 41.7539343,7.92573848 40.9140503,7.08594973 C40.0742615,6.24606572 39.2747712,5.72599689 38.154513,5.29062145 C37.3088177,4.96194633 36.0380358,4.57096584 33.6980595,4.46426551 C31.4365801,4.36108402 30.5898195,4.33055561 25.8623572,4.32522794 L24.401482,4.32435049 L24.401482,4.32435049 Z M24.0000476,11.6756834 C30.8065759,11.6756834 36.3243166,17.1934241 36.3243166,24.0000476 C36.3243166,30.8065759 30.8065759,36.3243166 24.0000476,36.3243166 C17.1934241,36.3243166 11.6756834,30.8065759 11.6756834,24.0000476 C11.6756834,17.1934241 17.1934241,11.6756834 24.0000476,11.6756834 Z M24.0000476,16 C19.5817014,16 16,19.5817014 16,24.0000476 C16,28.4182986 19.5817014,32 24.0000476,32 C28.4182986,32 32,28.4182986 32,24.0000476 C32,19.5817014 28.4182986,16 24.0000476,16 Z M36.8112321,8.30871644 C38.4018291,8.30871644 39.6912836,9.59817085 39.6912836,11.1887679 C39.6912836,12.7793649 38.4018291,14.0687241 36.8112321,14.0687241 C35.2207303,14.0687241 33.9312759,12.7793649 33.9312759,11.1887679 C33.9312759,9.59817085 35.2207303,8.30871644 36.8112321,8.30871644 Z"></path>
        </g>
    </g>
</svg>