<?xml version="1.0" encoding="UTF-8"?>
<svg width="48px" height="48px" viewBox="0 0 48 48" version="1.1" xmlns="http://www.w3.org/2000/svg" xmlns:xlink="http://www.w3.org/1999/xlink">
    <title>Linked-In</title>
    <g id="Linked-In" stroke="none" stroke-width="1" fill="none" fill-rule="evenodd">
        <g id="Group" fill-rule="nonzero">
            <g id="linkedin" fill="#0F0423">
                <path d="M14.5714286,41.6045261 C14.5714286,42.2963552 14.0194448,42.8571429 13.3384768,42.8571429 L8.09009459,42.8571429 C7.40912662,42.8571429 6.85714286,42.2963552 6.85714286,41.6045261 L6.85714286,19.2526167 C6.85714286,18.5607876 7.40912662,18 8.09009459,18 L13.3384768,18 C14.0194448,18 14.5714286,18.5607876 14.5714286,19.2526167 L14.5714286,41.6045261 Z M3,0 L45,0 C46.6568542,-3.04359188e-16 48,1.34314575 48,3 L48,45 C48,46.6568542 46.6568542,48 45,48 L3,48 C1.34314575,48 2.02906125e-16,46.6568542 0,45 L0,3 C-2.02906125e-16,1.34314575 1.34314575,3.04359188e-16 3,0 Z M11.1428571,15.4285714 C8.30256234,15.4285714 6,13.1260091 6,10.2857143 C6,7.44541948 8.30256234,5.14285714 11.1428571,5.14285714 C13.9831519,5.14285714 16.2857143,7.44541948 16.2857143,10.2857143 C16.2857143,13.1260091 13.9832784,15.4285714 11.1428571,15.4285714 Z M41.6807065,42.8571429 L35.836204,42.8571429 C35.1865321,42.8571429 34.6597711,42.3315947 34.6597711,41.6834186 L34.6597711,30.9987954 C34.6597711,29.4048865 35.1283848,24.0142093 30.4847448,24.0142093 C26.8827938,24.0142093 26.1521992,27.7039638 26.0054949,29.3598214 L26.0054949,41.6834186 C26.0054949,42.3315947 25.4788612,42.8571429 24.829062,42.8571429 L19.1764329,42.8571429 C18.526761,42.8571429 18,42.3315947 18,41.6834186 L18,18.6988098 C18,18.0506337 18.526761,17.5250855 19.1764329,17.5250855 L24.829062,17.5250855 C25.4787339,17.5250855 26.0054949,18.0506337 26.0054949,18.6988098 L26.0054949,20.6861182 C27.3411013,18.6863693 29.3259978,17.1428571 33.5521734,17.1428571 C42.9107062,17.1428571 42.8571463,25.8659415 42.8571463,30.6588394 L42.8571463,41.6834186 C42.8571463,42.3315947 42.3303784,42.8571429 41.6807065,42.8571429 Z" id="Shape"></path>
            </g>
            <g id="Shape-2" transform="translate(5.000000, 5.000000)" fill="#BADCE7">
                <path d="M9.06282723,36.1563141 C9.06282723,36.854199 8.49713089,37.4198953 7.79924607,37.4198953 L2.42048168,37.4198953 C1.72259686,37.4198953 1.15690052,36.854199 1.15690052,36.1563141 L1.15690052,13.6087539 C1.15690052,12.9108691 1.72259686,12.3451728 2.42048168,12.3451728 L7.79924607,12.3451728 C8.49713089,12.3451728 9.06282723,12.9108691 9.06282723,13.6087539 L9.06282723,36.1563141 Z M5.10986387,10.2197277 C2.28779058,10.2197277 0,7.93193717 0,5.10986387 C0,2.28779058 2.28779058,2.27373675e-13 5.10986387,2.27373675e-13 C7.93193717,2.27373675e-13 10.2197277,2.28779058 10.2197277,5.10986387 C10.2197277,7.93193717 7.93206283,10.2197277 5.10986387,10.2197277 Z M37.1721081,36.2580942 C37.1721081,36.8996859 36.6518953,37.4198953 36.0103037,37.4198953 L30.2384921,37.4198953 C29.5969005,37.4198953 29.0766911,36.8996859 29.0766911,36.2580942 L29.0766911,25.6820105 C29.0766911,24.1042932 29.5394764,18.768377 24.9535916,18.768377 C21.3964398,18.768377 20.6749319,22.4206492 20.5300524,24.0596859 L20.5300524,36.2580942 C20.5300524,36.8996859 20.0099686,37.4198953 19.3682513,37.4198953 L13.7859267,37.4198953 C13.1443351,37.4198953 12.6241257,36.8996859 12.6241257,36.2580942 L12.6241257,13.5069738 C12.6241257,12.8653822 13.1443351,12.3451728 13.7859267,12.3451728 L19.3682513,12.3451728 C20.0098429,12.3451728 20.5300524,12.8653822 20.5300524,13.5069738 L20.5300524,15.4740942 C21.8490471,13.4946597 23.8092565,11.9668272 27.9828691,11.9668272 C37.2250052,11.9668272 37.1721081,20.6012984 37.1721081,25.3455079 L37.1721081,36.2580942 L37.1721081,36.2580942 Z" id="Shape"></path>
            </g>
        </g>
    </g>
</svg>