<?xml version="1.0" encoding="UTF-8"?>
<svg width="90px" height="68px" viewBox="0 0 90 68" version="1.1" xmlns="http://www.w3.org/2000/svg" xmlns:xlink="http://www.w3.org/1999/xlink">
    <title>noun_Quote_450889 Copy</title>
    <g id="-Careers-and-Company" stroke="none" stroke-width="1" fill="none" fill-rule="evenodd" opacity="0.266671317">
        <g id="Company" transform="translate(-1204.000000, -4555.000000)" fill="#FFFFFF" fill-rule="nonzero">
            <g id="Group-4" transform="translate(-26.000000, 4026.000000)">
                <g id="noun_Quote_450889-Copy" transform="translate(1275.000000, 563.000000) scale(-1, 1) translate(-1275.000000, -563.000000) translate(1230.000000, 529.000000)">
                    <path d="M25.7,26 C25.7,32.1 38.3,33 38.3,48 C38.3,59 30.4,67.2 19.4,67.2 C7.7,67.1 0,56.6 0,45.5 C0,26.3 18,0.9 29.2,0.9 C32,0.9 37.1,2.9 37.1,6.3 C37.1,9.7 25.7,15.6 25.7,26 Z" id="Path"></path>
                    <path d="M77.4,26 C77.4,32.1 90,33 90,48 C90,59 82.1,67.2 71.1,67.2 C59.3,67.2 51.6,56.7 51.6,45.6 C51.6,26.4 69.6,1 80.8,1 C83.6,1 88.7,3 88.7,6.4 C88.7,9.8 77.4,15.6 77.4,26 Z" id="Path"></path>
                </g>
            </g>
        </g>
    </g>
</svg>