<?xml version="1.0" encoding="UTF-8"?>
<svg width="77px" height="77px" viewBox="0 0 77 77" version="1.1" xmlns="http://www.w3.org/2000/svg" xmlns:xlink="http://www.w3.org/1999/xlink">
    <title>Group 2 Copy</title>
    <g id="Homepage" stroke="none" stroke-width="1" fill="none" fill-rule="evenodd">
        <g id="Homepage--w/artwork" transform="translate(-1487.000000, -6468.000000)">
            <g id="Group-5" transform="translate(-16.000000, 5840.000000)">
                <g id="Group-2-Copy" transform="translate(1541.500000, 666.500000) scale(-1, 1) translate(-1541.500000, -666.500000) translate(1503.000000, 628.000000)">
                    <circle id="Oval" fill="#1B7386" cx="38.5" cy="38.5" r="38.5"></circle>
                    <g id="noun_Arrow_630089" transform="translate(38.500000, 38.500000) rotate(45.000000) translate(-38.500000, -38.500000) translate(26.000000, 26.000000)" fill="#FCFCF9" fill-rule="nonzero">
                        <path d="M23.97308,1.11614281 C23.3121506,0.450631542 22.2794483,0.450631542 21.6185189,1.11614281 L3.77342424,18.9601636 L3.77342424,4.85964367 C3.77342424,3.94456568 3.02987863,3.19586551 2.12110066,3.19586551 C1.21232269,3.19586551 0.46877708,3.94456568 0.46877708,4.85964367 L0.46877708,24.6170094 L20.4618924,24.6170094 C21.3706704,24.6170094 22.114216,23.8683092 22.114216,22.9532312 C22.114216,22.0381532 21.3706704,21.289453 20.4618924,21.289453 L6.12798534,21.289453 L23.97308,3.48702669 C24.6340094,2.82151542 24.6340094,1.78165407 23.97308,1.11614281 Z" id="Path"></path>
                    </g>
                </g>
            </g>
        </g>
    </g>
</svg>