<?xml version="1.0" encoding="UTF-8"?>
<svg width="124px" height="126px" viewBox="0 0 124 126" version="1.1" xmlns="http://www.w3.org/2000/svg" xmlns:xlink="http://www.w3.org/1999/xlink">
    <title>noun_banners_1567399 copy 4</title>
    <g id="Page-1" stroke="none" stroke-width="1" fill="none" fill-rule="evenodd" opacity="0.525251116">
        <g id="HOMEPAGE-v1.6-Copy" transform="translate(-1152.000000, -5347.000000)" fill="#EADF32" fill-rule="nonzero">
            <g id="noun_banners_1567399-copy-4" style="mix-blend-mode: multiply;" transform="translate(1152.000000, 5347.500000)">
                <polygon id="Path" style="mix-blend-mode: multiply;" points="0 62.5000018 15.898014 56.4302446 2.11263982 46.453252 19.0396408 44.7053432 8.30640598 31.4998741 25.1091912 34.1926602 18.1594099 18.6593636 33.6926363 25.6092593 31.0000064 8.80641559 44.2053832 19.5397452 45.953239 2.61261764 55.9303265 16.3980017 61.9999875 0.5 68.0696772 16.3980017 78.0467791 2.61261764 79.7946135 19.5397452 92.9999902 8.80641559 90.3073816 25.6092593 105.840597 18.6593636 98.890827 34.1926602 115.693598 31.4998741 104.960359 44.7053432 121.887346 46.453252 108.101993 56.4302446 124 62.5000018 108.101993 68.569759 121.887346 78.5467515 104.960359 80.2946603 115.693598 93.4998721 98.890827 90.8073434 105.840597 106.340643 90.3073816 99.3907443 92.9999902 116.193584 79.7946135 105.460258 78.0467791 122.387379 68.0696772 108.602009 61.9999875 124.5 55.9303265 108.602009 45.953239 122.387379 44.2053832 105.460258 31.0000064 116.193584 33.6926363 99.3907443 18.1594099 106.340643 25.1091912 90.8073434 8.30640598 93.4998721 19.0396408 80.2946603 2.11263982 78.5467515 15.898014 68.569759"></polygon>
            </g>
        </g>
    </g>
</svg>